<svg width="74" height="59" viewBox="0 0 74 59" fill="none" xmlns="http://www.w3.org/2000/svg">
<path d="M47.6979 59C47.183 58.4824 46.4105 57.9649 45.3805 57.4474C46.153 56.9298 46.668 56.5417 46.9255 56.2829C43.3205 56.2829 41.3893 55.8947 41.1318 55.1184C40.8743 54.0833 40.1018 53.1776 38.8143 52.4013V53.1776C37.7844 53.4364 37.3981 53.4364 37.6556 53.1776C37.9131 52.6601 37.7844 52.1425 37.2694 51.625C38.2994 50.8487 38.8143 49.943 38.8143 48.9079C38.8143 48.3904 38.6856 47.8728 38.4281 47.3553C38.4281 46.5789 38.4281 45.932 38.4281 45.4145C38.4281 43.6031 39.0718 42.0504 40.3593 40.7566V41.5329C41.6468 41.7917 42.1618 41.7917 41.9043 41.5329C41.9043 41.0153 42.033 40.4978 42.2905 39.9803L40.3593 39.2039C41.9043 38.1689 43.1918 36.0987 44.2218 32.9934C45.5092 29.8881 46.668 27.6886 47.6979 26.3947C47.6979 26.9123 47.9554 27.4298 48.4704 27.9474C48.4704 25.8772 48.9854 24.3246 50.0154 23.2895C50.0154 23.5482 50.0154 23.807 50.0154 24.0658C50.2729 24.0658 50.5304 24.3246 50.7879 24.8421V20.9605H53.8778V19.7961C53.1054 19.2785 52.5904 18.8903 52.3329 18.6316C52.0754 18.3728 52.3329 17.9846 53.1054 17.4671C53.6203 13.5855 55.4228 11.2566 58.5128 10.4802V7.375C60.5727 6.85744 61.7315 6.08112 61.9889 5.04603C62.5039 4.01096 63.2764 2.84649 64.3064 1.55263L66.6239 4.26973C68.4263 2.19955 70.3576 0.776306 72.4175 0L73.19 4.26973C71.9025 5.04605 71.13 6.08114 70.8725 7.375L68.9413 6.59867C68.6838 8.15131 68.5551 8.79824 68.5551 8.53946C68.5551 8.02192 67.9114 8.41008 66.6239 9.70394C67.9114 9.70394 68.6838 9.96271 68.9413 10.4802C67.6539 11.2566 66.8814 12.2917 66.6239 13.5855C66.3664 14.8794 66.1089 16.1732 65.8514 17.4671C65.0789 17.2083 64.5639 17.0789 64.3064 17.0789C64.0489 16.8202 63.5339 16.9496 62.7614 17.4671H65.0789C64.8214 19.5373 64.1777 21.6074 63.1477 23.6776C62.3752 25.489 61.7315 27.3004 61.2165 29.1118H60.444V27.171C59.1565 27.171 58.2553 27.4298 57.7403 27.9474L61.2165 30.2763C59.6715 33.6403 58.5128 37.1338 57.7403 40.7566C57.2253 44.1206 56.324 47.4846 55.0366 50.8487C54.0066 50.8487 53.4916 50.7193 53.4916 50.4605C53.7491 50.2018 53.6203 50.5899 53.1054 51.625C53.6203 52.4013 53.8778 53.1776 53.8778 53.9539C53.8778 54.7303 53.8778 55.5066 53.8778 56.2829C52.8479 56.5417 51.8179 57.0592 50.7879 57.8355C49.7579 58.3531 48.7279 58.7412 47.6979 59ZM10.6186 59C9.0736 57.7061 7.27113 56.9298 5.21117 56.671C3.1512 56.4123 1.47748 55.5066 0.190002 53.9539C1.47748 53.4364 2.24997 52.9188 2.50746 52.4013C2.76496 51.8838 3.02245 51.1074 3.27995 50.0724C1.99247 49.8136 1.21998 49.6842 0.962489 49.6842C0.962489 49.6842 0.704994 49.1667 0.190002 48.1316C1.21999 46.8377 1.99247 45.5438 2.50746 44.25C3.02245 42.9561 3.79494 41.7916 4.82492 40.7566C4.30993 40.239 3.79494 39.7215 3.27995 39.2039L5.98365 39.9803V39.2039C4.95367 38.6864 4.43868 38.4276 4.43868 38.4276C4.69618 38.1689 4.56743 37.5219 4.05244 36.4868C5.08242 35.4517 5.72616 34.4167 5.98365 33.3816C6.49865 32.3465 7.52863 31.5702 9.0736 31.0526V30.2763L10.6186 31.0526V30.2763C11.6486 29.2412 12.421 27.171 12.936 24.0658C12.1635 23.807 11.7773 23.807 11.7773 24.0658C12.0348 24.3245 11.9061 24.0658 11.3911 23.2895C13.7085 21.2193 15.1247 19.1491 15.6397 17.0789C16.1547 15.0088 17.1847 12.8092 18.7297 10.4802C20.0172 8.41008 21.5621 6.72807 23.3646 5.43421C25.1671 4.14035 26.9695 2.58772 28.772 0.776306C30.317 1.03507 31.4757 1.42323 32.2482 1.94079C33.2782 2.45832 33.9219 3.75218 34.1794 5.82236C33.1494 6.08113 32.2482 7.50437 31.4757 10.0921C30.9607 12.6798 30.317 14.6206 29.5445 15.9145L27.9995 15.1381C27.742 15.3969 27.6133 15.9145 27.6133 16.6908C27.6133 16.9496 27.6133 17.3377 27.6133 17.8553C27.8708 18.114 27.9995 18.5022 27.9995 19.0197C27.9995 20.5724 27.3558 21.8662 26.0683 22.9013C24.7808 23.9364 23.7509 25.1009 22.9784 26.3947C23.2359 27.4298 23.4934 28.2061 23.7509 28.7237C24.2658 29.2412 24.5233 29.7588 24.5233 30.2763C24.5233 31.8289 24.0083 32.6053 22.9784 32.6053C22.2059 32.6053 21.4334 32.864 20.6609 33.3816C20.4034 34.4167 20.4034 35.0636 20.6609 35.3223C21.1759 35.3223 21.4334 35.7105 21.4334 36.4868C21.4334 37.5219 21.1759 38.6864 20.6609 39.9803C19.8884 43.3443 19.1159 47.3553 18.3434 52.0132C17.571 56.4123 14.996 58.7412 10.6186 59Z" fill="#454545"/>
</svg>
