<svg width="40" height="40" viewBox="0 0 40 40" fill="none" xmlns="http://www.w3.org/2000/svg">
<rect width="40" height="40" rx="20" fill="white"/>
<mask id="path-2-outside-1_222_1176" maskUnits="userSpaceOnUse" x="8" y="11.5" width="24" height="5" fill="black">
<rect fill="white" x="8" y="11.5" width="24" height="5"/>
<path d="M9.38767 15.4703C9.32305 15.3119 9.24229 15.1931 9.14537 15.1139C9.08076 14.995 9.03231 14.8366 9 14.6386C9.12922 14.401 9.19383 14.203 9.19383 14.0446C9.25844 14.0446 9.29075 14.0644 9.29075 14.104C9.32305 14.104 9.35536 14.104 9.38767 14.104C9.51689 14.104 9.6138 13.9653 9.67841 13.6881C9.5815 13.6089 9.53304 13.5693 9.53304 13.5693C9.53304 13.4901 9.54919 13.4109 9.5815 13.3317C9.64611 13.2525 9.67841 13.1733 9.67841 13.0941H9.96916C9.96916 12.896 10.0499 12.7574 10.2115 12.6782C10.373 12.5594 10.5184 12.5 10.6476 12.5C10.7768 12.5792 10.8576 12.6188 10.8899 12.6188C10.9868 12.6188 11.1322 12.5792 11.326 12.5V12.6782L11.1322 12.9158H11.4229C11.4875 12.8366 11.5683 12.797 11.6652 12.797C11.7621 12.797 11.8429 12.797 11.9075 12.797C11.9721 12.8762 12.0044 12.9554 12.0044 13.0347C12.0367 13.0743 12.1013 13.1337 12.1982 13.2129V13.0941C12.3275 12.9752 12.4244 12.9158 12.489 12.9158C12.5859 12.9158 12.7151 12.9158 12.8767 12.9158C12.9413 12.9554 13.022 12.9752 13.1189 12.9752C13.2159 12.9752 13.2966 12.9752 13.3612 12.9752L13.2643 13.0941V13.1535C13.232 13.1931 13.2482 13.2129 13.3128 13.2129C13.3774 13.2129 13.4258 13.2129 13.4582 13.2129L13.5551 12.9158L14.3304 13.2129C14.395 13.2129 14.4919 13.2129 14.6211 13.2129C14.7504 13.1733 14.8796 13.1535 15.0088 13.1535C15.2349 13.1535 15.4288 13.1733 15.5903 13.2129C15.7518 13.2525 15.8164 13.3317 15.7841 13.4505V13.2129C15.8811 13.1733 15.9618 13.1535 16.0264 13.1535C16.1233 13.1139 16.2203 13.0941 16.3172 13.0941C16.4787 13.0941 16.6241 13.1139 16.7533 13.1535C16.8825 13.1535 17.0117 13.1733 17.141 13.2129C17.141 13.2921 17.1733 13.4109 17.2379 13.5693C17.3348 13.5297 17.3994 13.5297 17.4317 13.5693C17.4963 13.5693 17.5609 13.5693 17.6256 13.5693C17.6579 13.4901 17.674 13.4307 17.674 13.3911C17.674 13.3119 17.6902 13.2525 17.7225 13.2129L17.8194 13.5693C18.207 13.3317 18.627 13.2129 19.0793 13.2129C19.4024 13.2129 19.7254 13.2327 20.0485 13.2723C20.3715 13.3119 20.6946 13.3317 21.0176 13.3317C21.1791 13.3317 21.3245 13.3317 21.4537 13.3317C21.6153 13.2921 21.7606 13.2525 21.8899 13.2129C21.9222 13.2921 21.9383 13.3515 21.9383 13.3911C21.9383 13.4307 21.9545 13.4901 21.9868 13.5693C22.0837 13.2525 22.2614 13.0941 22.5198 13.0941C22.649 13.0941 22.7783 13.1139 22.9075 13.1535C23.0367 13.1931 23.1659 13.2129 23.2952 13.2129C23.6182 13.2129 23.8928 13.2327 24.1189 13.2723C24.3451 13.2723 24.6035 13.2921 24.8943 13.3317H24.9912C25.0881 13.3317 25.1366 13.3119 25.1366 13.2723C25.1689 13.1931 25.2335 13.1337 25.3304 13.0941C25.395 13.0545 25.5081 13.0347 25.6696 13.0347C25.928 13.0347 26.138 13.0941 26.2996 13.2129C26.4934 13.2921 26.7034 13.3713 26.9295 13.4505V12.9752C27.6079 12.9752 28.2863 12.9752 28.9648 12.9752C29.6432 12.9356 30.3216 12.9158 31 12.9158V12.9752H30.9031C30.8385 13.0545 30.79 13.0743 30.7577 13.0347C30.7577 12.9951 30.7254 13.0545 30.6608 13.2129C30.5316 13.4505 30.467 13.6485 30.467 13.8069C30.467 13.9653 30.3539 14.1436 30.1278 14.3416C29.9339 14.4604 29.7239 14.5198 29.4978 14.5198C29.304 14.5198 29.1101 14.5594 28.9163 14.6386L28.7709 14.1634H28.674C28.674 14.3218 28.6902 14.401 28.7225 14.401C28.7871 14.401 28.7386 14.4406 28.5771 14.5198C28.4479 14.599 28.3186 14.599 28.1894 14.5198C28.0925 14.4406 27.9794 14.4406 27.8502 14.5198V14.7574C27.6564 14.8762 27.4626 14.9356 27.2687 14.9356C27.0426 14.9356 26.8003 14.896 26.5418 14.8168C26.3157 14.698 26.0896 14.6782 25.8634 14.7574C25.7019 14.797 25.5404 14.8564 25.3789 14.9356C25.2496 14.9752 25.0881 14.995 24.8943 14.995C24.8943 14.8366 24.8943 14.7772 24.8943 14.8168C24.9266 14.8168 24.862 14.797 24.7004 14.7574C24.5712 14.995 24.3451 15.0941 24.022 15.0545C23.7313 14.9752 23.4728 14.9554 23.2467 14.995C22.5037 15.1535 21.7445 15.2327 20.9692 15.2327C20.1938 15.2327 19.4024 15.2723 18.5947 15.3515L18.7401 15.2327C18.8047 15.1931 18.7885 15.1733 18.6916 15.1733C18.5947 15.1337 18.5301 15.1139 18.4978 15.1139C18.4009 15.1931 18.2394 15.2525 18.0132 15.2921C17.7871 15.3317 17.5448 15.3515 17.2863 15.3515C16.8341 15.3515 16.4787 15.3119 16.2203 15.2327V15.3515L16.3656 15.4703H15.7841C15.7195 15.2327 15.6388 15.1139 15.5419 15.1139C15.4772 15.1139 15.3965 15.1733 15.2996 15.2921C15.2026 15.3713 15.1057 15.4307 15.0088 15.4703C14.8796 15.5099 14.815 15.5099 14.815 15.4703C14.815 15.3911 14.7827 15.3119 14.7181 15.2327C14.6211 15.2723 14.5727 15.3119 14.5727 15.3515C14.5727 15.3911 14.4919 15.4307 14.3304 15.4703C14.3304 15.2723 14.2819 15.1931 14.185 15.2327C14.0881 15.2327 13.975 15.2327 13.8458 15.2327C13.7812 15.3515 13.4743 15.4307 12.9251 15.4703C12.4082 15.4703 12.069 15.4703 11.9075 15.4703C11.8752 15.2723 11.746 15.1931 11.5198 15.2327C11.326 15.2327 11.1645 15.2327 11.0352 15.2327C10.9383 15.3515 10.8414 15.4109 10.7445 15.4109C10.6153 15.4109 10.5184 15.3515 10.4537 15.2327C10.3891 15.0743 10.2599 15.0347 10.0661 15.1139C9.96916 15.1535 9.90455 15.2327 9.87225 15.3515C9.87225 15.4307 9.71072 15.4703 9.38767 15.4703Z"/>
</mask>
<path d="M9.38767 15.4703C9.32305 15.3119 9.24229 15.1931 9.14537 15.1139C9.08076 14.995 9.03231 14.8366 9 14.6386C9.12922 14.401 9.19383 14.203 9.19383 14.0446C9.25844 14.0446 9.29075 14.0644 9.29075 14.104C9.32305 14.104 9.35536 14.104 9.38767 14.104C9.51689 14.104 9.6138 13.9653 9.67841 13.6881C9.5815 13.6089 9.53304 13.5693 9.53304 13.5693C9.53304 13.4901 9.54919 13.4109 9.5815 13.3317C9.64611 13.2525 9.67841 13.1733 9.67841 13.0941H9.96916C9.96916 12.896 10.0499 12.7574 10.2115 12.6782C10.373 12.5594 10.5184 12.5 10.6476 12.5C10.7768 12.5792 10.8576 12.6188 10.8899 12.6188C10.9868 12.6188 11.1322 12.5792 11.326 12.5V12.6782L11.1322 12.9158H11.4229C11.4875 12.8366 11.5683 12.797 11.6652 12.797C11.7621 12.797 11.8429 12.797 11.9075 12.797C11.9721 12.8762 12.0044 12.9554 12.0044 13.0347C12.0367 13.0743 12.1013 13.1337 12.1982 13.2129V13.0941C12.3275 12.9752 12.4244 12.9158 12.489 12.9158C12.5859 12.9158 12.7151 12.9158 12.8767 12.9158C12.9413 12.9554 13.022 12.9752 13.1189 12.9752C13.2159 12.9752 13.2966 12.9752 13.3612 12.9752L13.2643 13.0941V13.1535C13.232 13.1931 13.2482 13.2129 13.3128 13.2129C13.3774 13.2129 13.4258 13.2129 13.4582 13.2129L13.5551 12.9158L14.3304 13.2129C14.395 13.2129 14.4919 13.2129 14.6211 13.2129C14.7504 13.1733 14.8796 13.1535 15.0088 13.1535C15.2349 13.1535 15.4288 13.1733 15.5903 13.2129C15.7518 13.2525 15.8164 13.3317 15.7841 13.4505V13.2129C15.8811 13.1733 15.9618 13.1535 16.0264 13.1535C16.1233 13.1139 16.2203 13.0941 16.3172 13.0941C16.4787 13.0941 16.6241 13.1139 16.7533 13.1535C16.8825 13.1535 17.0117 13.1733 17.141 13.2129C17.141 13.2921 17.1733 13.4109 17.2379 13.5693C17.3348 13.5297 17.3994 13.5297 17.4317 13.5693C17.4963 13.5693 17.5609 13.5693 17.6256 13.5693C17.6579 13.4901 17.674 13.4307 17.674 13.3911C17.674 13.3119 17.6902 13.2525 17.7225 13.2129L17.8194 13.5693C18.207 13.3317 18.627 13.2129 19.0793 13.2129C19.4024 13.2129 19.7254 13.2327 20.0485 13.2723C20.3715 13.3119 20.6946 13.3317 21.0176 13.3317C21.1791 13.3317 21.3245 13.3317 21.4537 13.3317C21.6153 13.2921 21.7606 13.2525 21.8899 13.2129C21.9222 13.2921 21.9383 13.3515 21.9383 13.3911C21.9383 13.4307 21.9545 13.4901 21.9868 13.5693C22.0837 13.2525 22.2614 13.0941 22.5198 13.0941C22.649 13.0941 22.7783 13.1139 22.9075 13.1535C23.0367 13.1931 23.1659 13.2129 23.2952 13.2129C23.6182 13.2129 23.8928 13.2327 24.1189 13.2723C24.3451 13.2723 24.6035 13.2921 24.8943 13.3317H24.9912C25.0881 13.3317 25.1366 13.3119 25.1366 13.2723C25.1689 13.1931 25.2335 13.1337 25.3304 13.0941C25.395 13.0545 25.5081 13.0347 25.6696 13.0347C25.928 13.0347 26.138 13.0941 26.2996 13.2129C26.4934 13.2921 26.7034 13.3713 26.9295 13.4505V12.9752C27.6079 12.9752 28.2863 12.9752 28.9648 12.9752C29.6432 12.9356 30.3216 12.9158 31 12.9158V12.9752H30.9031C30.8385 13.0545 30.79 13.0743 30.7577 13.0347C30.7577 12.9951 30.7254 13.0545 30.6608 13.2129C30.5316 13.4505 30.467 13.6485 30.467 13.8069C30.467 13.9653 30.3539 14.1436 30.1278 14.3416C29.9339 14.4604 29.7239 14.5198 29.4978 14.5198C29.304 14.5198 29.1101 14.5594 28.9163 14.6386L28.7709 14.1634H28.674C28.674 14.3218 28.6902 14.401 28.7225 14.401C28.7871 14.401 28.7386 14.4406 28.5771 14.5198C28.4479 14.599 28.3186 14.599 28.1894 14.5198C28.0925 14.4406 27.9794 14.4406 27.8502 14.5198V14.7574C27.6564 14.8762 27.4626 14.9356 27.2687 14.9356C27.0426 14.9356 26.8003 14.896 26.5418 14.8168C26.3157 14.698 26.0896 14.6782 25.8634 14.7574C25.7019 14.797 25.5404 14.8564 25.3789 14.9356C25.2496 14.9752 25.0881 14.995 24.8943 14.995C24.8943 14.8366 24.8943 14.7772 24.8943 14.8168C24.9266 14.8168 24.862 14.797 24.7004 14.7574C24.5712 14.995 24.3451 15.0941 24.022 15.0545C23.7313 14.9752 23.4728 14.9554 23.2467 14.995C22.5037 15.1535 21.7445 15.2327 20.9692 15.2327C20.1938 15.2327 19.4024 15.2723 18.5947 15.3515L18.7401 15.2327C18.8047 15.1931 18.7885 15.1733 18.6916 15.1733C18.5947 15.1337 18.5301 15.1139 18.4978 15.1139C18.4009 15.1931 18.2394 15.2525 18.0132 15.2921C17.7871 15.3317 17.5448 15.3515 17.2863 15.3515C16.8341 15.3515 16.4787 15.3119 16.2203 15.2327V15.3515L16.3656 15.4703H15.7841C15.7195 15.2327 15.6388 15.1139 15.5419 15.1139C15.4772 15.1139 15.3965 15.1733 15.2996 15.2921C15.2026 15.3713 15.1057 15.4307 15.0088 15.4703C14.8796 15.5099 14.815 15.5099 14.815 15.4703C14.815 15.3911 14.7827 15.3119 14.7181 15.2327C14.6211 15.2723 14.5727 15.3119 14.5727 15.3515C14.5727 15.3911 14.4919 15.4307 14.3304 15.4703C14.3304 15.2723 14.2819 15.1931 14.185 15.2327C14.0881 15.2327 13.975 15.2327 13.8458 15.2327C13.7812 15.3515 13.4743 15.4307 12.9251 15.4703C12.4082 15.4703 12.069 15.4703 11.9075 15.4703C11.8752 15.2723 11.746 15.1931 11.5198 15.2327C11.326 15.2327 11.1645 15.2327 11.0352 15.2327C10.9383 15.3515 10.8414 15.4109 10.7445 15.4109C10.6153 15.4109 10.5184 15.3515 10.4537 15.2327C10.3891 15.0743 10.2599 15.0347 10.0661 15.1139C9.96916 15.1535 9.90455 15.2327 9.87225 15.3515C9.87225 15.4307 9.71072 15.4703 9.38767 15.4703Z" fill="#262626"/>
<path d="M9.38767 15.4703C9.32305 15.3119 9.24229 15.1931 9.14537 15.1139C9.08076 14.995 9.03231 14.8366 9 14.6386C9.12922 14.401 9.19383 14.203 9.19383 14.0446C9.25844 14.0446 9.29075 14.0644 9.29075 14.104C9.32305 14.104 9.35536 14.104 9.38767 14.104C9.51689 14.104 9.6138 13.9653 9.67841 13.6881C9.5815 13.6089 9.53304 13.5693 9.53304 13.5693C9.53304 13.4901 9.54919 13.4109 9.5815 13.3317C9.64611 13.2525 9.67841 13.1733 9.67841 13.0941H9.96916C9.96916 12.896 10.0499 12.7574 10.2115 12.6782C10.373 12.5594 10.5184 12.5 10.6476 12.5C10.7768 12.5792 10.8576 12.6188 10.8899 12.6188C10.9868 12.6188 11.1322 12.5792 11.326 12.5V12.6782L11.1322 12.9158H11.4229C11.4875 12.8366 11.5683 12.797 11.6652 12.797C11.7621 12.797 11.8429 12.797 11.9075 12.797C11.9721 12.8762 12.0044 12.9554 12.0044 13.0347C12.0367 13.0743 12.1013 13.1337 12.1982 13.2129V13.0941C12.3275 12.9752 12.4244 12.9158 12.489 12.9158C12.5859 12.9158 12.7151 12.9158 12.8767 12.9158C12.9413 12.9554 13.022 12.9752 13.1189 12.9752C13.2159 12.9752 13.2966 12.9752 13.3612 12.9752L13.2643 13.0941V13.1535C13.232 13.1931 13.2482 13.2129 13.3128 13.2129C13.3774 13.2129 13.4258 13.2129 13.4582 13.2129L13.5551 12.9158L14.3304 13.2129C14.395 13.2129 14.4919 13.2129 14.6211 13.2129C14.7504 13.1733 14.8796 13.1535 15.0088 13.1535C15.2349 13.1535 15.4288 13.1733 15.5903 13.2129C15.7518 13.2525 15.8164 13.3317 15.7841 13.4505V13.2129C15.8811 13.1733 15.9618 13.1535 16.0264 13.1535C16.1233 13.1139 16.2203 13.0941 16.3172 13.0941C16.4787 13.0941 16.6241 13.1139 16.7533 13.1535C16.8825 13.1535 17.0117 13.1733 17.141 13.2129C17.141 13.2921 17.1733 13.4109 17.2379 13.5693C17.3348 13.5297 17.3994 13.5297 17.4317 13.5693C17.4963 13.5693 17.5609 13.5693 17.6256 13.5693C17.6579 13.4901 17.674 13.4307 17.674 13.3911C17.674 13.3119 17.6902 13.2525 17.7225 13.2129L17.8194 13.5693C18.207 13.3317 18.627 13.2129 19.0793 13.2129C19.4024 13.2129 19.7254 13.2327 20.0485 13.2723C20.3715 13.3119 20.6946 13.3317 21.0176 13.3317C21.1791 13.3317 21.3245 13.3317 21.4537 13.3317C21.6153 13.2921 21.7606 13.2525 21.8899 13.2129C21.9222 13.2921 21.9383 13.3515 21.9383 13.3911C21.9383 13.4307 21.9545 13.4901 21.9868 13.5693C22.0837 13.2525 22.2614 13.0941 22.5198 13.0941C22.649 13.0941 22.7783 13.1139 22.9075 13.1535C23.0367 13.1931 23.1659 13.2129 23.2952 13.2129C23.6182 13.2129 23.8928 13.2327 24.1189 13.2723C24.3451 13.2723 24.6035 13.2921 24.8943 13.3317H24.9912C25.0881 13.3317 25.1366 13.3119 25.1366 13.2723C25.1689 13.1931 25.2335 13.1337 25.3304 13.0941C25.395 13.0545 25.5081 13.0347 25.6696 13.0347C25.928 13.0347 26.138 13.0941 26.2996 13.2129C26.4934 13.2921 26.7034 13.3713 26.9295 13.4505V12.9752C27.6079 12.9752 28.2863 12.9752 28.9648 12.9752C29.6432 12.9356 30.3216 12.9158 31 12.9158V12.9752H30.9031C30.8385 13.0545 30.79 13.0743 30.7577 13.0347C30.7577 12.9951 30.7254 13.0545 30.6608 13.2129C30.5316 13.4505 30.467 13.6485 30.467 13.8069C30.467 13.9653 30.3539 14.1436 30.1278 14.3416C29.9339 14.4604 29.7239 14.5198 29.4978 14.5198C29.304 14.5198 29.1101 14.5594 28.9163 14.6386L28.7709 14.1634H28.674C28.674 14.3218 28.6902 14.401 28.7225 14.401C28.7871 14.401 28.7386 14.4406 28.5771 14.5198C28.4479 14.599 28.3186 14.599 28.1894 14.5198C28.0925 14.4406 27.9794 14.4406 27.8502 14.5198V14.7574C27.6564 14.8762 27.4626 14.9356 27.2687 14.9356C27.0426 14.9356 26.8003 14.896 26.5418 14.8168C26.3157 14.698 26.0896 14.6782 25.8634 14.7574C25.7019 14.797 25.5404 14.8564 25.3789 14.9356C25.2496 14.9752 25.0881 14.995 24.8943 14.995C24.8943 14.8366 24.8943 14.7772 24.8943 14.8168C24.9266 14.8168 24.862 14.797 24.7004 14.7574C24.5712 14.995 24.3451 15.0941 24.022 15.0545C23.7313 14.9752 23.4728 14.9554 23.2467 14.995C22.5037 15.1535 21.7445 15.2327 20.9692 15.2327C20.1938 15.2327 19.4024 15.2723 18.5947 15.3515L18.7401 15.2327C18.8047 15.1931 18.7885 15.1733 18.6916 15.1733C18.5947 15.1337 18.5301 15.1139 18.4978 15.1139C18.4009 15.1931 18.2394 15.2525 18.0132 15.2921C17.7871 15.3317 17.5448 15.3515 17.2863 15.3515C16.8341 15.3515 16.4787 15.3119 16.2203 15.2327V15.3515L16.3656 15.4703H15.7841C15.7195 15.2327 15.6388 15.1139 15.5419 15.1139C15.4772 15.1139 15.3965 15.1733 15.2996 15.2921C15.2026 15.3713 15.1057 15.4307 15.0088 15.4703C14.8796 15.5099 14.815 15.5099 14.815 15.4703C14.815 15.3911 14.7827 15.3119 14.7181 15.2327C14.6211 15.2723 14.5727 15.3119 14.5727 15.3515C14.5727 15.3911 14.4919 15.4307 14.3304 15.4703C14.3304 15.2723 14.2819 15.1931 14.185 15.2327C14.0881 15.2327 13.975 15.2327 13.8458 15.2327C13.7812 15.3515 13.4743 15.4307 12.9251 15.4703C12.4082 15.4703 12.069 15.4703 11.9075 15.4703C11.8752 15.2723 11.746 15.1931 11.5198 15.2327C11.326 15.2327 11.1645 15.2327 11.0352 15.2327C10.9383 15.3515 10.8414 15.4109 10.7445 15.4109C10.6153 15.4109 10.5184 15.3515 10.4537 15.2327C10.3891 15.0743 10.2599 15.0347 10.0661 15.1139C9.96916 15.1535 9.90455 15.2327 9.87225 15.3515C9.87225 15.4307 9.71072 15.4703 9.38767 15.4703Z" stroke="#262626" stroke-width="0.8" mask="url(#path-2-outside-1_222_1176)"/>
<mask id="path-3-outside-2_222_1176" maskUnits="userSpaceOnUse" x="8" y="17.5" width="24" height="5" fill="black">
<rect fill="white" x="8" y="17.5" width="24" height="5"/>
<path d="M9.38767 21.4703C9.32305 21.3119 9.24229 21.1931 9.14537 21.1139C9.08076 20.995 9.03231 20.8366 9 20.6386C9.12922 20.401 9.19383 20.203 9.19383 20.0446C9.25844 20.0446 9.29075 20.0644 9.29075 20.104C9.32305 20.104 9.35536 20.104 9.38767 20.104C9.51689 20.104 9.6138 19.9653 9.67841 19.6881C9.5815 19.6089 9.53304 19.5693 9.53304 19.5693C9.53304 19.4901 9.54919 19.4109 9.5815 19.3317C9.64611 19.2525 9.67841 19.1733 9.67841 19.0941H9.96916C9.96916 18.896 10.0499 18.7574 10.2115 18.6782C10.373 18.5594 10.5184 18.5 10.6476 18.5C10.7768 18.5792 10.8576 18.6188 10.8899 18.6188C10.9868 18.6188 11.1322 18.5792 11.326 18.5V18.6782L11.1322 18.9158H11.4229C11.4875 18.8366 11.5683 18.797 11.6652 18.797C11.7621 18.797 11.8429 18.797 11.9075 18.797C11.9721 18.8762 12.0044 18.9554 12.0044 19.0347C12.0367 19.0743 12.1013 19.1337 12.1982 19.2129V19.0941C12.3275 18.9752 12.4244 18.9158 12.489 18.9158C12.5859 18.9158 12.7151 18.9158 12.8767 18.9158C12.9413 18.9554 13.022 18.9752 13.1189 18.9752C13.2159 18.9752 13.2966 18.9752 13.3612 18.9752L13.2643 19.0941V19.1535C13.232 19.1931 13.2482 19.2129 13.3128 19.2129C13.3774 19.2129 13.4258 19.2129 13.4582 19.2129L13.5551 18.9158L14.3304 19.2129C14.395 19.2129 14.4919 19.2129 14.6211 19.2129C14.7504 19.1733 14.8796 19.1535 15.0088 19.1535C15.2349 19.1535 15.4288 19.1733 15.5903 19.2129C15.7518 19.2525 15.8164 19.3317 15.7841 19.4505V19.2129C15.8811 19.1733 15.9618 19.1535 16.0264 19.1535C16.1233 19.1139 16.2203 19.0941 16.3172 19.0941C16.4787 19.0941 16.6241 19.1139 16.7533 19.1535C16.8825 19.1535 17.0117 19.1733 17.141 19.2129C17.141 19.2921 17.1733 19.4109 17.2379 19.5693C17.3348 19.5297 17.3994 19.5297 17.4317 19.5693C17.4963 19.5693 17.5609 19.5693 17.6256 19.5693C17.6579 19.4901 17.674 19.4307 17.674 19.3911C17.674 19.3119 17.6902 19.2525 17.7225 19.2129L17.8194 19.5693C18.207 19.3317 18.627 19.2129 19.0793 19.2129C19.4024 19.2129 19.7254 19.2327 20.0485 19.2723C20.3715 19.3119 20.6946 19.3317 21.0176 19.3317C21.1791 19.3317 21.3245 19.3317 21.4537 19.3317C21.6153 19.2921 21.7606 19.2525 21.8899 19.2129C21.9222 19.2921 21.9383 19.3515 21.9383 19.3911C21.9383 19.4307 21.9545 19.4901 21.9868 19.5693C22.0837 19.2525 22.2614 19.0941 22.5198 19.0941C22.649 19.0941 22.7783 19.1139 22.9075 19.1535C23.0367 19.1931 23.1659 19.2129 23.2952 19.2129C23.6182 19.2129 23.8928 19.2327 24.1189 19.2723C24.3451 19.2723 24.6035 19.2921 24.8943 19.3317H24.9912C25.0881 19.3317 25.1366 19.3119 25.1366 19.2723C25.1689 19.1931 25.2335 19.1337 25.3304 19.0941C25.395 19.0545 25.5081 19.0347 25.6696 19.0347C25.928 19.0347 26.138 19.0941 26.2996 19.2129C26.4934 19.2921 26.7034 19.3713 26.9295 19.4505V18.9752C27.6079 18.9752 28.2863 18.9752 28.9648 18.9752C29.6432 18.9356 30.3216 18.9158 31 18.9158V18.9752H30.9031C30.8385 19.0545 30.79 19.0743 30.7577 19.0347C30.7577 18.9951 30.7254 19.0545 30.6608 19.2129C30.5316 19.4505 30.467 19.6485 30.467 19.8069C30.467 19.9653 30.3539 20.1436 30.1278 20.3416C29.9339 20.4604 29.7239 20.5198 29.4978 20.5198C29.304 20.5198 29.1101 20.5594 28.9163 20.6386L28.7709 20.1634H28.674C28.674 20.3218 28.6902 20.401 28.7225 20.401C28.7871 20.401 28.7386 20.4406 28.5771 20.5198C28.4479 20.599 28.3186 20.599 28.1894 20.5198C28.0925 20.4406 27.9794 20.4406 27.8502 20.5198V20.7574C27.6564 20.8762 27.4626 20.9356 27.2687 20.9356C27.0426 20.9356 26.8003 20.896 26.5418 20.8168C26.3157 20.698 26.0896 20.6782 25.8634 20.7574C25.7019 20.797 25.5404 20.8564 25.3789 20.9356C25.2496 20.9752 25.0881 20.995 24.8943 20.995C24.8943 20.8366 24.8943 20.7772 24.8943 20.8168C24.9266 20.8168 24.862 20.797 24.7004 20.7574C24.5712 20.995 24.3451 21.0941 24.022 21.0545C23.7313 20.9752 23.4728 20.9554 23.2467 20.995C22.5037 21.1535 21.7445 21.2327 20.9692 21.2327C20.1938 21.2327 19.4024 21.2723 18.5947 21.3515L18.7401 21.2327C18.8047 21.1931 18.7885 21.1733 18.6916 21.1733C18.5947 21.1337 18.5301 21.1139 18.4978 21.1139C18.4009 21.1931 18.2394 21.2525 18.0132 21.2921C17.7871 21.3317 17.5448 21.3515 17.2863 21.3515C16.8341 21.3515 16.4787 21.3119 16.2203 21.2327V21.3515L16.3656 21.4703H15.7841C15.7195 21.2327 15.6388 21.1139 15.5419 21.1139C15.4772 21.1139 15.3965 21.1733 15.2996 21.2921C15.2026 21.3713 15.1057 21.4307 15.0088 21.4703C14.8796 21.5099 14.815 21.5099 14.815 21.4703C14.815 21.3911 14.7827 21.3119 14.7181 21.2327C14.6211 21.2723 14.5727 21.3119 14.5727 21.3515C14.5727 21.3911 14.4919 21.4307 14.3304 21.4703C14.3304 21.2723 14.2819 21.1931 14.185 21.2327C14.0881 21.2327 13.975 21.2327 13.8458 21.2327C13.7812 21.3515 13.4743 21.4307 12.9251 21.4703C12.4082 21.4703 12.069 21.4703 11.9075 21.4703C11.8752 21.2723 11.746 21.1931 11.5198 21.2327C11.326 21.2327 11.1645 21.2327 11.0352 21.2327C10.9383 21.3515 10.8414 21.4109 10.7445 21.4109C10.6153 21.4109 10.5184 21.3515 10.4537 21.2327C10.3891 21.0743 10.2599 21.0347 10.0661 21.1139C9.96916 21.1535 9.90455 21.2327 9.87225 21.3515C9.87225 21.4307 9.71072 21.4703 9.38767 21.4703Z"/>
</mask>
<path d="M9.38767 21.4703C9.32305 21.3119 9.24229 21.1931 9.14537 21.1139C9.08076 20.995 9.03231 20.8366 9 20.6386C9.12922 20.401 9.19383 20.203 9.19383 20.0446C9.25844 20.0446 9.29075 20.0644 9.29075 20.104C9.32305 20.104 9.35536 20.104 9.38767 20.104C9.51689 20.104 9.6138 19.9653 9.67841 19.6881C9.5815 19.6089 9.53304 19.5693 9.53304 19.5693C9.53304 19.4901 9.54919 19.4109 9.5815 19.3317C9.64611 19.2525 9.67841 19.1733 9.67841 19.0941H9.96916C9.96916 18.896 10.0499 18.7574 10.2115 18.6782C10.373 18.5594 10.5184 18.5 10.6476 18.5C10.7768 18.5792 10.8576 18.6188 10.8899 18.6188C10.9868 18.6188 11.1322 18.5792 11.326 18.5V18.6782L11.1322 18.9158H11.4229C11.4875 18.8366 11.5683 18.797 11.6652 18.797C11.7621 18.797 11.8429 18.797 11.9075 18.797C11.9721 18.8762 12.0044 18.9554 12.0044 19.0347C12.0367 19.0743 12.1013 19.1337 12.1982 19.2129V19.0941C12.3275 18.9752 12.4244 18.9158 12.489 18.9158C12.5859 18.9158 12.7151 18.9158 12.8767 18.9158C12.9413 18.9554 13.022 18.9752 13.1189 18.9752C13.2159 18.9752 13.2966 18.9752 13.3612 18.9752L13.2643 19.0941V19.1535C13.232 19.1931 13.2482 19.2129 13.3128 19.2129C13.3774 19.2129 13.4258 19.2129 13.4582 19.2129L13.5551 18.9158L14.3304 19.2129C14.395 19.2129 14.4919 19.2129 14.6211 19.2129C14.7504 19.1733 14.8796 19.1535 15.0088 19.1535C15.2349 19.1535 15.4288 19.1733 15.5903 19.2129C15.7518 19.2525 15.8164 19.3317 15.7841 19.4505V19.2129C15.8811 19.1733 15.9618 19.1535 16.0264 19.1535C16.1233 19.1139 16.2203 19.0941 16.3172 19.0941C16.4787 19.0941 16.6241 19.1139 16.7533 19.1535C16.8825 19.1535 17.0117 19.1733 17.141 19.2129C17.141 19.2921 17.1733 19.4109 17.2379 19.5693C17.3348 19.5297 17.3994 19.5297 17.4317 19.5693C17.4963 19.5693 17.5609 19.5693 17.6256 19.5693C17.6579 19.4901 17.674 19.4307 17.674 19.3911C17.674 19.3119 17.6902 19.2525 17.7225 19.2129L17.8194 19.5693C18.207 19.3317 18.627 19.2129 19.0793 19.2129C19.4024 19.2129 19.7254 19.2327 20.0485 19.2723C20.3715 19.3119 20.6946 19.3317 21.0176 19.3317C21.1791 19.3317 21.3245 19.3317 21.4537 19.3317C21.6153 19.2921 21.7606 19.2525 21.8899 19.2129C21.9222 19.2921 21.9383 19.3515 21.9383 19.3911C21.9383 19.4307 21.9545 19.4901 21.9868 19.5693C22.0837 19.2525 22.2614 19.0941 22.5198 19.0941C22.649 19.0941 22.7783 19.1139 22.9075 19.1535C23.0367 19.1931 23.1659 19.2129 23.2952 19.2129C23.6182 19.2129 23.8928 19.2327 24.1189 19.2723C24.3451 19.2723 24.6035 19.2921 24.8943 19.3317H24.9912C25.0881 19.3317 25.1366 19.3119 25.1366 19.2723C25.1689 19.1931 25.2335 19.1337 25.3304 19.0941C25.395 19.0545 25.5081 19.0347 25.6696 19.0347C25.928 19.0347 26.138 19.0941 26.2996 19.2129C26.4934 19.2921 26.7034 19.3713 26.9295 19.4505V18.9752C27.6079 18.9752 28.2863 18.9752 28.9648 18.9752C29.6432 18.9356 30.3216 18.9158 31 18.9158V18.9752H30.9031C30.8385 19.0545 30.79 19.0743 30.7577 19.0347C30.7577 18.9951 30.7254 19.0545 30.6608 19.2129C30.5316 19.4505 30.467 19.6485 30.467 19.8069C30.467 19.9653 30.3539 20.1436 30.1278 20.3416C29.9339 20.4604 29.7239 20.5198 29.4978 20.5198C29.304 20.5198 29.1101 20.5594 28.9163 20.6386L28.7709 20.1634H28.674C28.674 20.3218 28.6902 20.401 28.7225 20.401C28.7871 20.401 28.7386 20.4406 28.5771 20.5198C28.4479 20.599 28.3186 20.599 28.1894 20.5198C28.0925 20.4406 27.9794 20.4406 27.8502 20.5198V20.7574C27.6564 20.8762 27.4626 20.9356 27.2687 20.9356C27.0426 20.9356 26.8003 20.896 26.5418 20.8168C26.3157 20.698 26.0896 20.6782 25.8634 20.7574C25.7019 20.797 25.5404 20.8564 25.3789 20.9356C25.2496 20.9752 25.0881 20.995 24.8943 20.995C24.8943 20.8366 24.8943 20.7772 24.8943 20.8168C24.9266 20.8168 24.862 20.797 24.7004 20.7574C24.5712 20.995 24.3451 21.0941 24.022 21.0545C23.7313 20.9752 23.4728 20.9554 23.2467 20.995C22.5037 21.1535 21.7445 21.2327 20.9692 21.2327C20.1938 21.2327 19.4024 21.2723 18.5947 21.3515L18.7401 21.2327C18.8047 21.1931 18.7885 21.1733 18.6916 21.1733C18.5947 21.1337 18.5301 21.1139 18.4978 21.1139C18.4009 21.1931 18.2394 21.2525 18.0132 21.2921C17.7871 21.3317 17.5448 21.3515 17.2863 21.3515C16.8341 21.3515 16.4787 21.3119 16.2203 21.2327V21.3515L16.3656 21.4703H15.7841C15.7195 21.2327 15.6388 21.1139 15.5419 21.1139C15.4772 21.1139 15.3965 21.1733 15.2996 21.2921C15.2026 21.3713 15.1057 21.4307 15.0088 21.4703C14.8796 21.5099 14.815 21.5099 14.815 21.4703C14.815 21.3911 14.7827 21.3119 14.7181 21.2327C14.6211 21.2723 14.5727 21.3119 14.5727 21.3515C14.5727 21.3911 14.4919 21.4307 14.3304 21.4703C14.3304 21.2723 14.2819 21.1931 14.185 21.2327C14.0881 21.2327 13.975 21.2327 13.8458 21.2327C13.7812 21.3515 13.4743 21.4307 12.9251 21.4703C12.4082 21.4703 12.069 21.4703 11.9075 21.4703C11.8752 21.2723 11.746 21.1931 11.5198 21.2327C11.326 21.2327 11.1645 21.2327 11.0352 21.2327C10.9383 21.3515 10.8414 21.4109 10.7445 21.4109C10.6153 21.4109 10.5184 21.3515 10.4537 21.2327C10.3891 21.0743 10.2599 21.0347 10.0661 21.1139C9.96916 21.1535 9.90455 21.2327 9.87225 21.3515C9.87225 21.4307 9.71072 21.4703 9.38767 21.4703Z" fill="#262626"/>
<path d="M9.38767 21.4703C9.32305 21.3119 9.24229 21.1931 9.14537 21.1139C9.08076 20.995 9.03231 20.8366 9 20.6386C9.12922 20.401 9.19383 20.203 9.19383 20.0446C9.25844 20.0446 9.29075 20.0644 9.29075 20.104C9.32305 20.104 9.35536 20.104 9.38767 20.104C9.51689 20.104 9.6138 19.9653 9.67841 19.6881C9.5815 19.6089 9.53304 19.5693 9.53304 19.5693C9.53304 19.4901 9.54919 19.4109 9.5815 19.3317C9.64611 19.2525 9.67841 19.1733 9.67841 19.0941H9.96916C9.96916 18.896 10.0499 18.7574 10.2115 18.6782C10.373 18.5594 10.5184 18.5 10.6476 18.5C10.7768 18.5792 10.8576 18.6188 10.8899 18.6188C10.9868 18.6188 11.1322 18.5792 11.326 18.5V18.6782L11.1322 18.9158H11.4229C11.4875 18.8366 11.5683 18.797 11.6652 18.797C11.7621 18.797 11.8429 18.797 11.9075 18.797C11.9721 18.8762 12.0044 18.9554 12.0044 19.0347C12.0367 19.0743 12.1013 19.1337 12.1982 19.2129V19.0941C12.3275 18.9752 12.4244 18.9158 12.489 18.9158C12.5859 18.9158 12.7151 18.9158 12.8767 18.9158C12.9413 18.9554 13.022 18.9752 13.1189 18.9752C13.2159 18.9752 13.2966 18.9752 13.3612 18.9752L13.2643 19.0941V19.1535C13.232 19.1931 13.2482 19.2129 13.3128 19.2129C13.3774 19.2129 13.4258 19.2129 13.4582 19.2129L13.5551 18.9158L14.3304 19.2129C14.395 19.2129 14.4919 19.2129 14.6211 19.2129C14.7504 19.1733 14.8796 19.1535 15.0088 19.1535C15.2349 19.1535 15.4288 19.1733 15.5903 19.2129C15.7518 19.2525 15.8164 19.3317 15.7841 19.4505V19.2129C15.8811 19.1733 15.9618 19.1535 16.0264 19.1535C16.1233 19.1139 16.2203 19.0941 16.3172 19.0941C16.4787 19.0941 16.6241 19.1139 16.7533 19.1535C16.8825 19.1535 17.0117 19.1733 17.141 19.2129C17.141 19.2921 17.1733 19.4109 17.2379 19.5693C17.3348 19.5297 17.3994 19.5297 17.4317 19.5693C17.4963 19.5693 17.5609 19.5693 17.6256 19.5693C17.6579 19.4901 17.674 19.4307 17.674 19.3911C17.674 19.3119 17.6902 19.2525 17.7225 19.2129L17.8194 19.5693C18.207 19.3317 18.627 19.2129 19.0793 19.2129C19.4024 19.2129 19.7254 19.2327 20.0485 19.2723C20.3715 19.3119 20.6946 19.3317 21.0176 19.3317C21.1791 19.3317 21.3245 19.3317 21.4537 19.3317C21.6153 19.2921 21.7606 19.2525 21.8899 19.2129C21.9222 19.2921 21.9383 19.3515 21.9383 19.3911C21.9383 19.4307 21.9545 19.4901 21.9868 19.5693C22.0837 19.2525 22.2614 19.0941 22.5198 19.0941C22.649 19.0941 22.7783 19.1139 22.9075 19.1535C23.0367 19.1931 23.1659 19.2129 23.2952 19.2129C23.6182 19.2129 23.8928 19.2327 24.1189 19.2723C24.3451 19.2723 24.6035 19.2921 24.8943 19.3317H24.9912C25.0881 19.3317 25.1366 19.3119 25.1366 19.2723C25.1689 19.1931 25.2335 19.1337 25.3304 19.0941C25.395 19.0545 25.5081 19.0347 25.6696 19.0347C25.928 19.0347 26.138 19.0941 26.2996 19.2129C26.4934 19.2921 26.7034 19.3713 26.9295 19.4505V18.9752C27.6079 18.9752 28.2863 18.9752 28.9648 18.9752C29.6432 18.9356 30.3216 18.9158 31 18.9158V18.9752H30.9031C30.8385 19.0545 30.79 19.0743 30.7577 19.0347C30.7577 18.9951 30.7254 19.0545 30.6608 19.2129C30.5316 19.4505 30.467 19.6485 30.467 19.8069C30.467 19.9653 30.3539 20.1436 30.1278 20.3416C29.9339 20.4604 29.7239 20.5198 29.4978 20.5198C29.304 20.5198 29.1101 20.5594 28.9163 20.6386L28.7709 20.1634H28.674C28.674 20.3218 28.6902 20.401 28.7225 20.401C28.7871 20.401 28.7386 20.4406 28.5771 20.5198C28.4479 20.599 28.3186 20.599 28.1894 20.5198C28.0925 20.4406 27.9794 20.4406 27.8502 20.5198V20.7574C27.6564 20.8762 27.4626 20.9356 27.2687 20.9356C27.0426 20.9356 26.8003 20.896 26.5418 20.8168C26.3157 20.698 26.0896 20.6782 25.8634 20.7574C25.7019 20.797 25.5404 20.8564 25.3789 20.9356C25.2496 20.9752 25.0881 20.995 24.8943 20.995C24.8943 20.8366 24.8943 20.7772 24.8943 20.8168C24.9266 20.8168 24.862 20.797 24.7004 20.7574C24.5712 20.995 24.3451 21.0941 24.022 21.0545C23.7313 20.9752 23.4728 20.9554 23.2467 20.995C22.5037 21.1535 21.7445 21.2327 20.9692 21.2327C20.1938 21.2327 19.4024 21.2723 18.5947 21.3515L18.7401 21.2327C18.8047 21.1931 18.7885 21.1733 18.6916 21.1733C18.5947 21.1337 18.5301 21.1139 18.4978 21.1139C18.4009 21.1931 18.2394 21.2525 18.0132 21.2921C17.7871 21.3317 17.5448 21.3515 17.2863 21.3515C16.8341 21.3515 16.4787 21.3119 16.2203 21.2327V21.3515L16.3656 21.4703H15.7841C15.7195 21.2327 15.6388 21.1139 15.5419 21.1139C15.4772 21.1139 15.3965 21.1733 15.2996 21.2921C15.2026 21.3713 15.1057 21.4307 15.0088 21.4703C14.8796 21.5099 14.815 21.5099 14.815 21.4703C14.815 21.3911 14.7827 21.3119 14.7181 21.2327C14.6211 21.2723 14.5727 21.3119 14.5727 21.3515C14.5727 21.3911 14.4919 21.4307 14.3304 21.4703C14.3304 21.2723 14.2819 21.1931 14.185 21.2327C14.0881 21.2327 13.975 21.2327 13.8458 21.2327C13.7812 21.3515 13.4743 21.4307 12.9251 21.4703C12.4082 21.4703 12.069 21.4703 11.9075 21.4703C11.8752 21.2723 11.746 21.1931 11.5198 21.2327C11.326 21.2327 11.1645 21.2327 11.0352 21.2327C10.9383 21.3515 10.8414 21.4109 10.7445 21.4109C10.6153 21.4109 10.5184 21.3515 10.4537 21.2327C10.3891 21.0743 10.2599 21.0347 10.0661 21.1139C9.96916 21.1535 9.90455 21.2327 9.87225 21.3515C9.87225 21.4307 9.71072 21.4703 9.38767 21.4703Z" stroke="#262626" stroke-width="0.8" mask="url(#path-3-outside-2_222_1176)"/>
<mask id="path-4-outside-3_222_1176" maskUnits="userSpaceOnUse" x="8" y="23.5" width="24" height="5" fill="black">
<rect fill="white" x="8" y="23.5" width="24" height="5"/>
<path d="M9.38767 27.4703C9.32305 27.3119 9.24229 27.1931 9.14537 27.1139C9.08076 26.995 9.03231 26.8366 9 26.6386C9.12922 26.401 9.19383 26.203 9.19383 26.0446C9.25844 26.0446 9.29075 26.0644 9.29075 26.104C9.32305 26.104 9.35536 26.104 9.38767 26.104C9.51689 26.104 9.6138 25.9653 9.67841 25.6881C9.5815 25.6089 9.53304 25.5693 9.53304 25.5693C9.53304 25.4901 9.54919 25.4109 9.5815 25.3317C9.64611 25.2525 9.67841 25.1733 9.67841 25.0941H9.96916C9.96916 24.896 10.0499 24.7574 10.2115 24.6782C10.373 24.5594 10.5184 24.5 10.6476 24.5C10.7768 24.5792 10.8576 24.6188 10.8899 24.6188C10.9868 24.6188 11.1322 24.5792 11.326 24.5V24.6782L11.1322 24.9158H11.4229C11.4875 24.8366 11.5683 24.797 11.6652 24.797C11.7621 24.797 11.8429 24.797 11.9075 24.797C11.9721 24.8762 12.0044 24.9554 12.0044 25.0347C12.0367 25.0743 12.1013 25.1337 12.1982 25.2129V25.0941C12.3275 24.9752 12.4244 24.9158 12.489 24.9158C12.5859 24.9158 12.7151 24.9158 12.8767 24.9158C12.9413 24.9554 13.022 24.9752 13.1189 24.9752C13.2159 24.9752 13.2966 24.9752 13.3612 24.9752L13.2643 25.0941V25.1535C13.232 25.1931 13.2482 25.2129 13.3128 25.2129C13.3774 25.2129 13.4258 25.2129 13.4582 25.2129L13.5551 24.9158L14.3304 25.2129C14.395 25.2129 14.4919 25.2129 14.6211 25.2129C14.7504 25.1733 14.8796 25.1535 15.0088 25.1535C15.2349 25.1535 15.4288 25.1733 15.5903 25.2129C15.7518 25.2525 15.8164 25.3317 15.7841 25.4505V25.2129C15.8811 25.1733 15.9618 25.1535 16.0264 25.1535C16.1233 25.1139 16.2203 25.0941 16.3172 25.0941C16.4787 25.0941 16.6241 25.1139 16.7533 25.1535C16.8825 25.1535 17.0117 25.1733 17.141 25.2129C17.141 25.2921 17.1733 25.4109 17.2379 25.5693C17.3348 25.5297 17.3994 25.5297 17.4317 25.5693C17.4963 25.5693 17.5609 25.5693 17.6256 25.5693C17.6579 25.4901 17.674 25.4307 17.674 25.3911C17.674 25.3119 17.6902 25.2525 17.7225 25.2129L17.8194 25.5693C18.207 25.3317 18.627 25.2129 19.0793 25.2129C19.4024 25.2129 19.7254 25.2327 20.0485 25.2723C20.3715 25.3119 20.6946 25.3317 21.0176 25.3317C21.1791 25.3317 21.3245 25.3317 21.4537 25.3317C21.6153 25.2921 21.7606 25.2525 21.8899 25.2129C21.9222 25.2921 21.9383 25.3515 21.9383 25.3911C21.9383 25.4307 21.9545 25.4901 21.9868 25.5693C22.0837 25.2525 22.2614 25.0941 22.5198 25.0941C22.649 25.0941 22.7783 25.1139 22.9075 25.1535C23.0367 25.1931 23.1659 25.2129 23.2952 25.2129C23.6182 25.2129 23.8928 25.2327 24.1189 25.2723C24.3451 25.2723 24.6035 25.2921 24.8943 25.3317H24.9912C25.0881 25.3317 25.1366 25.3119 25.1366 25.2723C25.1689 25.1931 25.2335 25.1337 25.3304 25.0941C25.395 25.0545 25.5081 25.0347 25.6696 25.0347C25.928 25.0347 26.138 25.0941 26.2996 25.2129C26.4934 25.2921 26.7034 25.3713 26.9295 25.4505V24.9752C27.6079 24.9752 28.2863 24.9752 28.9648 24.9752C29.6432 24.9356 30.3216 24.9158 31 24.9158V24.9752H30.9031C30.8385 25.0545 30.79 25.0743 30.7577 25.0347C30.7577 24.9951 30.7254 25.0545 30.6608 25.2129C30.5316 25.4505 30.467 25.6485 30.467 25.8069C30.467 25.9653 30.3539 26.1436 30.1278 26.3416C29.9339 26.4604 29.7239 26.5198 29.4978 26.5198C29.304 26.5198 29.1101 26.5594 28.9163 26.6386L28.7709 26.1634H28.674C28.674 26.3218 28.6902 26.401 28.7225 26.401C28.7871 26.401 28.7386 26.4406 28.5771 26.5198C28.4479 26.599 28.3186 26.599 28.1894 26.5198C28.0925 26.4406 27.9794 26.4406 27.8502 26.5198V26.7574C27.6564 26.8762 27.4626 26.9356 27.2687 26.9356C27.0426 26.9356 26.8003 26.896 26.5418 26.8168C26.3157 26.698 26.0896 26.6782 25.8634 26.7574C25.7019 26.797 25.5404 26.8564 25.3789 26.9356C25.2496 26.9752 25.0881 26.995 24.8943 26.995C24.8943 26.8366 24.8943 26.7772 24.8943 26.8168C24.9266 26.8168 24.862 26.797 24.7004 26.7574C24.5712 26.995 24.3451 27.0941 24.022 27.0545C23.7313 26.9752 23.4728 26.9554 23.2467 26.995C22.5037 27.1535 21.7445 27.2327 20.9692 27.2327C20.1938 27.2327 19.4024 27.2723 18.5947 27.3515L18.7401 27.2327C18.8047 27.1931 18.7885 27.1733 18.6916 27.1733C18.5947 27.1337 18.5301 27.1139 18.4978 27.1139C18.4009 27.1931 18.2394 27.2525 18.0132 27.2921C17.7871 27.3317 17.5448 27.3515 17.2863 27.3515C16.8341 27.3515 16.4787 27.3119 16.2203 27.2327V27.3515L16.3656 27.4703H15.7841C15.7195 27.2327 15.6388 27.1139 15.5419 27.1139C15.4772 27.1139 15.3965 27.1733 15.2996 27.2921C15.2026 27.3713 15.1057 27.4307 15.0088 27.4703C14.8796 27.5099 14.815 27.5099 14.815 27.4703C14.815 27.3911 14.7827 27.3119 14.7181 27.2327C14.6211 27.2723 14.5727 27.3119 14.5727 27.3515C14.5727 27.3911 14.4919 27.4307 14.3304 27.4703C14.3304 27.2723 14.2819 27.1931 14.185 27.2327C14.0881 27.2327 13.975 27.2327 13.8458 27.2327C13.7812 27.3515 13.4743 27.4307 12.9251 27.4703C12.4082 27.4703 12.069 27.4703 11.9075 27.4703C11.8752 27.2723 11.746 27.1931 11.5198 27.2327C11.326 27.2327 11.1645 27.2327 11.0352 27.2327C10.9383 27.3515 10.8414 27.4109 10.7445 27.4109C10.6153 27.4109 10.5184 27.3515 10.4537 27.2327C10.3891 27.0743 10.2599 27.0347 10.0661 27.1139C9.96916 27.1535 9.90455 27.2327 9.87225 27.3515C9.87225 27.4307 9.71072 27.4703 9.38767 27.4703Z"/>
</mask>
<path d="M9.38767 27.4703C9.32305 27.3119 9.24229 27.1931 9.14537 27.1139C9.08076 26.995 9.03231 26.8366 9 26.6386C9.12922 26.401 9.19383 26.203 9.19383 26.0446C9.25844 26.0446 9.29075 26.0644 9.29075 26.104C9.32305 26.104 9.35536 26.104 9.38767 26.104C9.51689 26.104 9.6138 25.9653 9.67841 25.6881C9.5815 25.6089 9.53304 25.5693 9.53304 25.5693C9.53304 25.4901 9.54919 25.4109 9.5815 25.3317C9.64611 25.2525 9.67841 25.1733 9.67841 25.0941H9.96916C9.96916 24.896 10.0499 24.7574 10.2115 24.6782C10.373 24.5594 10.5184 24.5 10.6476 24.5C10.7768 24.5792 10.8576 24.6188 10.8899 24.6188C10.9868 24.6188 11.1322 24.5792 11.326 24.5V24.6782L11.1322 24.9158H11.4229C11.4875 24.8366 11.5683 24.797 11.6652 24.797C11.7621 24.797 11.8429 24.797 11.9075 24.797C11.9721 24.8762 12.0044 24.9554 12.0044 25.0347C12.0367 25.0743 12.1013 25.1337 12.1982 25.2129V25.0941C12.3275 24.9752 12.4244 24.9158 12.489 24.9158C12.5859 24.9158 12.7151 24.9158 12.8767 24.9158C12.9413 24.9554 13.022 24.9752 13.1189 24.9752C13.2159 24.9752 13.2966 24.9752 13.3612 24.9752L13.2643 25.0941V25.1535C13.232 25.1931 13.2482 25.2129 13.3128 25.2129C13.3774 25.2129 13.4258 25.2129 13.4582 25.2129L13.5551 24.9158L14.3304 25.2129C14.395 25.2129 14.4919 25.2129 14.6211 25.2129C14.7504 25.1733 14.8796 25.1535 15.0088 25.1535C15.2349 25.1535 15.4288 25.1733 15.5903 25.2129C15.7518 25.2525 15.8164 25.3317 15.7841 25.4505V25.2129C15.8811 25.1733 15.9618 25.1535 16.0264 25.1535C16.1233 25.1139 16.2203 25.0941 16.3172 25.0941C16.4787 25.0941 16.6241 25.1139 16.7533 25.1535C16.8825 25.1535 17.0117 25.1733 17.141 25.2129C17.141 25.2921 17.1733 25.4109 17.2379 25.5693C17.3348 25.5297 17.3994 25.5297 17.4317 25.5693C17.4963 25.5693 17.5609 25.5693 17.6256 25.5693C17.6579 25.4901 17.674 25.4307 17.674 25.3911C17.674 25.3119 17.6902 25.2525 17.7225 25.2129L17.8194 25.5693C18.207 25.3317 18.627 25.2129 19.0793 25.2129C19.4024 25.2129 19.7254 25.2327 20.0485 25.2723C20.3715 25.3119 20.6946 25.3317 21.0176 25.3317C21.1791 25.3317 21.3245 25.3317 21.4537 25.3317C21.6153 25.2921 21.7606 25.2525 21.8899 25.2129C21.9222 25.2921 21.9383 25.3515 21.9383 25.3911C21.9383 25.4307 21.9545 25.4901 21.9868 25.5693C22.0837 25.2525 22.2614 25.0941 22.5198 25.0941C22.649 25.0941 22.7783 25.1139 22.9075 25.1535C23.0367 25.1931 23.1659 25.2129 23.2952 25.2129C23.6182 25.2129 23.8928 25.2327 24.1189 25.2723C24.3451 25.2723 24.6035 25.2921 24.8943 25.3317H24.9912C25.0881 25.3317 25.1366 25.3119 25.1366 25.2723C25.1689 25.1931 25.2335 25.1337 25.3304 25.0941C25.395 25.0545 25.5081 25.0347 25.6696 25.0347C25.928 25.0347 26.138 25.0941 26.2996 25.2129C26.4934 25.2921 26.7034 25.3713 26.9295 25.4505V24.9752C27.6079 24.9752 28.2863 24.9752 28.9648 24.9752C29.6432 24.9356 30.3216 24.9158 31 24.9158V24.9752H30.9031C30.8385 25.0545 30.79 25.0743 30.7577 25.0347C30.7577 24.9951 30.7254 25.0545 30.6608 25.2129C30.5316 25.4505 30.467 25.6485 30.467 25.8069C30.467 25.9653 30.3539 26.1436 30.1278 26.3416C29.9339 26.4604 29.7239 26.5198 29.4978 26.5198C29.304 26.5198 29.1101 26.5594 28.9163 26.6386L28.7709 26.1634H28.674C28.674 26.3218 28.6902 26.401 28.7225 26.401C28.7871 26.401 28.7386 26.4406 28.5771 26.5198C28.4479 26.599 28.3186 26.599 28.1894 26.5198C28.0925 26.4406 27.9794 26.4406 27.8502 26.5198V26.7574C27.6564 26.8762 27.4626 26.9356 27.2687 26.9356C27.0426 26.9356 26.8003 26.896 26.5418 26.8168C26.3157 26.698 26.0896 26.6782 25.8634 26.7574C25.7019 26.797 25.5404 26.8564 25.3789 26.9356C25.2496 26.9752 25.0881 26.995 24.8943 26.995C24.8943 26.8366 24.8943 26.7772 24.8943 26.8168C24.9266 26.8168 24.862 26.797 24.7004 26.7574C24.5712 26.995 24.3451 27.0941 24.022 27.0545C23.7313 26.9752 23.4728 26.9554 23.2467 26.995C22.5037 27.1535 21.7445 27.2327 20.9692 27.2327C20.1938 27.2327 19.4024 27.2723 18.5947 27.3515L18.7401 27.2327C18.8047 27.1931 18.7885 27.1733 18.6916 27.1733C18.5947 27.1337 18.5301 27.1139 18.4978 27.1139C18.4009 27.1931 18.2394 27.2525 18.0132 27.2921C17.7871 27.3317 17.5448 27.3515 17.2863 27.3515C16.8341 27.3515 16.4787 27.3119 16.2203 27.2327V27.3515L16.3656 27.4703H15.7841C15.7195 27.2327 15.6388 27.1139 15.5419 27.1139C15.4772 27.1139 15.3965 27.1733 15.2996 27.2921C15.2026 27.3713 15.1057 27.4307 15.0088 27.4703C14.8796 27.5099 14.815 27.5099 14.815 27.4703C14.815 27.3911 14.7827 27.3119 14.7181 27.2327C14.6211 27.2723 14.5727 27.3119 14.5727 27.3515C14.5727 27.3911 14.4919 27.4307 14.3304 27.4703C14.3304 27.2723 14.2819 27.1931 14.185 27.2327C14.0881 27.2327 13.975 27.2327 13.8458 27.2327C13.7812 27.3515 13.4743 27.4307 12.9251 27.4703C12.4082 27.4703 12.069 27.4703 11.9075 27.4703C11.8752 27.2723 11.746 27.1931 11.5198 27.2327C11.326 27.2327 11.1645 27.2327 11.0352 27.2327C10.9383 27.3515 10.8414 27.4109 10.7445 27.4109C10.6153 27.4109 10.5184 27.3515 10.4537 27.2327C10.3891 27.0743 10.2599 27.0347 10.0661 27.1139C9.96916 27.1535 9.90455 27.2327 9.87225 27.3515C9.87225 27.4307 9.71072 27.4703 9.38767 27.4703Z" fill="#262626"/>
<path d="M9.38767 27.4703C9.32305 27.3119 9.24229 27.1931 9.14537 27.1139C9.08076 26.995 9.03231 26.8366 9 26.6386C9.12922 26.401 9.19383 26.203 9.19383 26.0446C9.25844 26.0446 9.29075 26.0644 9.29075 26.104C9.32305 26.104 9.35536 26.104 9.38767 26.104C9.51689 26.104 9.6138 25.9653 9.67841 25.6881C9.5815 25.6089 9.53304 25.5693 9.53304 25.5693C9.53304 25.4901 9.54919 25.4109 9.5815 25.3317C9.64611 25.2525 9.67841 25.1733 9.67841 25.0941H9.96916C9.96916 24.896 10.0499 24.7574 10.2115 24.6782C10.373 24.5594 10.5184 24.5 10.6476 24.5C10.7768 24.5792 10.8576 24.6188 10.8899 24.6188C10.9868 24.6188 11.1322 24.5792 11.326 24.5V24.6782L11.1322 24.9158H11.4229C11.4875 24.8366 11.5683 24.797 11.6652 24.797C11.7621 24.797 11.8429 24.797 11.9075 24.797C11.9721 24.8762 12.0044 24.9554 12.0044 25.0347C12.0367 25.0743 12.1013 25.1337 12.1982 25.2129V25.0941C12.3275 24.9752 12.4244 24.9158 12.489 24.9158C12.5859 24.9158 12.7151 24.9158 12.8767 24.9158C12.9413 24.9554 13.022 24.9752 13.1189 24.9752C13.2159 24.9752 13.2966 24.9752 13.3612 24.9752L13.2643 25.0941V25.1535C13.232 25.1931 13.2482 25.2129 13.3128 25.2129C13.3774 25.2129 13.4258 25.2129 13.4582 25.2129L13.5551 24.9158L14.3304 25.2129C14.395 25.2129 14.4919 25.2129 14.6211 25.2129C14.7504 25.1733 14.8796 25.1535 15.0088 25.1535C15.2349 25.1535 15.4288 25.1733 15.5903 25.2129C15.7518 25.2525 15.8164 25.3317 15.7841 25.4505V25.2129C15.8811 25.1733 15.9618 25.1535 16.0264 25.1535C16.1233 25.1139 16.2203 25.0941 16.3172 25.0941C16.4787 25.0941 16.6241 25.1139 16.7533 25.1535C16.8825 25.1535 17.0117 25.1733 17.141 25.2129C17.141 25.2921 17.1733 25.4109 17.2379 25.5693C17.3348 25.5297 17.3994 25.5297 17.4317 25.5693C17.4963 25.5693 17.5609 25.5693 17.6256 25.5693C17.6579 25.4901 17.674 25.4307 17.674 25.3911C17.674 25.3119 17.6902 25.2525 17.7225 25.2129L17.8194 25.5693C18.207 25.3317 18.627 25.2129 19.0793 25.2129C19.4024 25.2129 19.7254 25.2327 20.0485 25.2723C20.3715 25.3119 20.6946 25.3317 21.0176 25.3317C21.1791 25.3317 21.3245 25.3317 21.4537 25.3317C21.6153 25.2921 21.7606 25.2525 21.8899 25.2129C21.9222 25.2921 21.9383 25.3515 21.9383 25.3911C21.9383 25.4307 21.9545 25.4901 21.9868 25.5693C22.0837 25.2525 22.2614 25.0941 22.5198 25.0941C22.649 25.0941 22.7783 25.1139 22.9075 25.1535C23.0367 25.1931 23.1659 25.2129 23.2952 25.2129C23.6182 25.2129 23.8928 25.2327 24.1189 25.2723C24.3451 25.2723 24.6035 25.2921 24.8943 25.3317H24.9912C25.0881 25.3317 25.1366 25.3119 25.1366 25.2723C25.1689 25.1931 25.2335 25.1337 25.3304 25.0941C25.395 25.0545 25.5081 25.0347 25.6696 25.0347C25.928 25.0347 26.138 25.0941 26.2996 25.2129C26.4934 25.2921 26.7034 25.3713 26.9295 25.4505V24.9752C27.6079 24.9752 28.2863 24.9752 28.9648 24.9752C29.6432 24.9356 30.3216 24.9158 31 24.9158V24.9752H30.9031C30.8385 25.0545 30.79 25.0743 30.7577 25.0347C30.7577 24.9951 30.7254 25.0545 30.6608 25.2129C30.5316 25.4505 30.467 25.6485 30.467 25.8069C30.467 25.9653 30.3539 26.1436 30.1278 26.3416C29.9339 26.4604 29.7239 26.5198 29.4978 26.5198C29.304 26.5198 29.1101 26.5594 28.9163 26.6386L28.7709 26.1634H28.674C28.674 26.3218 28.6902 26.401 28.7225 26.401C28.7871 26.401 28.7386 26.4406 28.5771 26.5198C28.4479 26.599 28.3186 26.599 28.1894 26.5198C28.0925 26.4406 27.9794 26.4406 27.8502 26.5198V26.7574C27.6564 26.8762 27.4626 26.9356 27.2687 26.9356C27.0426 26.9356 26.8003 26.896 26.5418 26.8168C26.3157 26.698 26.0896 26.6782 25.8634 26.7574C25.7019 26.797 25.5404 26.8564 25.3789 26.9356C25.2496 26.9752 25.0881 26.995 24.8943 26.995C24.8943 26.8366 24.8943 26.7772 24.8943 26.8168C24.9266 26.8168 24.862 26.797 24.7004 26.7574C24.5712 26.995 24.3451 27.0941 24.022 27.0545C23.7313 26.9752 23.4728 26.9554 23.2467 26.995C22.5037 27.1535 21.7445 27.2327 20.9692 27.2327C20.1938 27.2327 19.4024 27.2723 18.5947 27.3515L18.7401 27.2327C18.8047 27.1931 18.7885 27.1733 18.6916 27.1733C18.5947 27.1337 18.5301 27.1139 18.4978 27.1139C18.4009 27.1931 18.2394 27.2525 18.0132 27.2921C17.7871 27.3317 17.5448 27.3515 17.2863 27.3515C16.8341 27.3515 16.4787 27.3119 16.2203 27.2327V27.3515L16.3656 27.4703H15.7841C15.7195 27.2327 15.6388 27.1139 15.5419 27.1139C15.4772 27.1139 15.3965 27.1733 15.2996 27.2921C15.2026 27.3713 15.1057 27.4307 15.0088 27.4703C14.8796 27.5099 14.815 27.5099 14.815 27.4703C14.815 27.3911 14.7827 27.3119 14.7181 27.2327C14.6211 27.2723 14.5727 27.3119 14.5727 27.3515C14.5727 27.3911 14.4919 27.4307 14.3304 27.4703C14.3304 27.2723 14.2819 27.1931 14.185 27.2327C14.0881 27.2327 13.975 27.2327 13.8458 27.2327C13.7812 27.3515 13.4743 27.4307 12.9251 27.4703C12.4082 27.4703 12.069 27.4703 11.9075 27.4703C11.8752 27.2723 11.746 27.1931 11.5198 27.2327C11.326 27.2327 11.1645 27.2327 11.0352 27.2327C10.9383 27.3515 10.8414 27.4109 10.7445 27.4109C10.6153 27.4109 10.5184 27.3515 10.4537 27.2327C10.3891 27.0743 10.2599 27.0347 10.0661 27.1139C9.96916 27.1535 9.90455 27.2327 9.87225 27.3515C9.87225 27.4307 9.71072 27.4703 9.38767 27.4703Z" stroke="#262626" stroke-width="0.8" mask="url(#path-4-outside-3_222_1176)"/>
</svg>
