<svg width="40" height="40" viewBox="0 0 40 40" fill="none" xmlns="http://www.w3.org/2000/svg">
<rect width="40" height="40" rx="20" fill="white"/>
<mask id="path-2-outside-1_231_2144" maskUnits="userSpaceOnUse" x="9.42772" y="9.74982" width="20.8223" height="20.1781" fill="black">
<rect fill="white" x="9.42772" y="9.74982" width="20.8223" height="20.1781"/>
<path d="M13.1715 28.2251C13.0154 28.155 12.875 28.1248 12.7502 28.1343C12.6214 28.0929 12.4771 28.0116 12.3171 27.8906C12.2466 27.6294 12.1568 27.4415 12.0475 27.3268C12.0943 27.2823 12.1313 27.2743 12.1586 27.303C12.182 27.2807 12.2054 27.2584 12.2288 27.2361C12.3223 27.1469 12.2968 26.9797 12.1523 26.7345C12.0275 26.744 11.9651 26.7488 11.9651 26.7488C11.9105 26.6914 11.8675 26.623 11.8363 26.5433C11.8284 26.4414 11.7971 26.3618 11.7425 26.3045L11.9529 26.1039C11.8163 25.9605 11.7791 25.8045 11.8414 25.6357C11.8764 25.4382 11.9406 25.2949 12.0341 25.2058C12.1823 25.174 12.2681 25.1469 12.2915 25.1246C12.3616 25.0578 12.4395 24.9288 12.5252 24.7377L12.6482 24.8667L12.6718 25.1725L12.8823 24.9719C12.8744 24.8699 12.9055 24.7855 12.9757 24.7187C13.0458 24.6518 13.1043 24.5961 13.1511 24.5515C13.2525 24.5643 13.3305 24.5993 13.3852 24.6567C13.4359 24.663 13.5236 24.6615 13.6484 24.6519L13.5665 24.5659C13.578 24.3908 13.6072 24.2809 13.654 24.2363C13.7241 24.1694 13.8177 24.0803 13.9346 23.9688C14.0087 23.9529 14.0808 23.9115 14.1509 23.8447C14.2211 23.7778 14.2796 23.7221 14.3263 23.6775L14.3381 23.8304L14.3791 23.8734C14.3831 23.9243 14.4084 23.9275 14.4552 23.8829C14.502 23.8384 14.537 23.8049 14.5604 23.7826L14.4256 23.5008L15.1918 23.1808C15.2386 23.1363 15.3087 23.0694 15.4023 22.9802C15.4685 22.8624 15.5484 22.7589 15.6419 22.6698C15.8056 22.5137 15.9596 22.3943 16.1038 22.3116C16.2481 22.2288 16.3495 22.2415 16.4081 22.3498L16.2441 22.1778C16.2869 22.0823 16.3317 22.0122 16.3785 21.9677C16.4213 21.8721 16.4778 21.7909 16.548 21.7241C16.6649 21.6126 16.7838 21.5266 16.9047 21.4662C16.9982 21.377 17.1054 21.3022 17.2263 21.2417C17.2809 21.299 17.3863 21.3627 17.5423 21.4328C17.5852 21.3373 17.6319 21.2927 17.6826 21.2991C17.7294 21.2545 17.7762 21.2099 17.823 21.1654C17.7917 21.0857 17.7624 21.0316 17.7351 21.0029C17.6804 20.9456 17.6511 20.8914 17.6472 20.8405L17.9633 21.0316C18.0799 20.5921 18.302 20.2164 18.6293 19.9043C18.8632 19.6814 19.1107 19.4729 19.3719 19.2787C19.633 19.0844 19.8805 18.8759 20.1144 18.653C20.2313 18.5415 20.3365 18.4412 20.4301 18.3521C20.5197 18.212 20.5976 18.083 20.6638 17.9652C20.7418 18.0002 20.7945 18.0321 20.8218 18.0607C20.8491 18.0894 20.9018 18.1213 20.9799 18.1563C20.8314 17.8601 20.8507 17.6229 21.0378 17.4445C21.1313 17.3554 21.2385 17.2806 21.3594 17.2201C21.4803 17.1596 21.5875 17.0848 21.681 16.9956C21.9149 16.7727 22.1273 16.5976 22.3183 16.4702C22.482 16.3142 22.6827 16.1502 22.9205 15.9783L22.9907 15.9114C23.0608 15.8446 23.0822 15.7968 23.0549 15.7681C23.0237 15.6885 23.0294 15.6009 23.0723 15.5054C23.0917 15.4321 23.1599 15.3398 23.2768 15.2283C23.4639 15.05 23.6569 14.9482 23.8558 14.9227C24.0507 14.8463 24.2574 14.7588 24.4757 14.6601L24.1478 14.3161C24.6389 13.848 25.13 13.3799 25.621 12.9118C26.0848 12.4151 26.5622 11.9327 27.0533 11.4646L27.0943 11.5076L27.0241 11.5745C27.032 11.6764 27.0106 11.7242 26.9599 11.7178C26.9325 11.6891 26.9502 11.7544 27.0127 11.9137C27.0831 12.1748 27.1729 12.3628 27.2822 12.4774C27.3915 12.5921 27.4327 12.7991 27.4056 13.0985C27.3473 13.3182 27.2362 13.5061 27.0726 13.6621C26.9322 13.7959 26.8193 13.9583 26.7336 14.1493L26.3005 13.9056L26.2303 13.9725C26.3396 14.0871 26.406 14.1333 26.4294 14.1111C26.4761 14.0665 26.4684 14.1286 26.4061 14.2974C26.3672 14.4438 26.2737 14.533 26.1255 14.5648C26.0007 14.5744 25.9188 14.6524 25.8799 14.7989L26.0439 14.9709C25.9856 15.1906 25.8862 15.3673 25.7459 15.5011C25.5822 15.6571 25.3795 15.7956 25.1378 15.9166C24.8921 15.9866 24.7148 16.1283 24.6057 16.3416C24.5161 16.4818 24.4402 16.6362 24.3779 16.805C24.3117 16.9228 24.2085 17.0486 24.0682 17.1823C23.9589 17.0677 23.9179 17.0247 23.9452 17.0533C23.9686 17.031 23.9082 17.0613 23.7639 17.1441C23.8343 17.4052 23.7389 17.6329 23.4778 17.8271C23.2127 17.9704 23.0119 18.1344 22.8756 18.3191C22.447 18.9464 21.9521 19.5275 21.3909 20.0625C20.8297 20.5974 20.2841 21.1722 19.7541 21.7867L19.7774 21.6004C19.7968 21.5272 19.7714 21.524 19.7013 21.5908C19.6038 21.629 19.5434 21.6593 19.52 21.6816C19.5045 21.8058 19.4286 21.9602 19.2922 22.1449C19.1558 22.3296 18.9941 22.5111 18.807 22.6894C18.4796 23.0015 18.1951 23.218 17.9534 23.339L18.0353 23.425L18.2225 23.4107L17.8016 23.8119C17.5909 23.6845 17.4505 23.6542 17.3803 23.721C17.3336 23.7656 17.3161 23.8643 17.3279 24.0172C17.3124 24.1414 17.2832 24.2513 17.2404 24.3468C17.1742 24.4646 17.1274 24.5092 17.1001 24.4806C17.0454 24.4232 16.9674 24.3882 16.866 24.3754C16.8232 24.4709 16.8154 24.5331 16.8427 24.5617C16.8701 24.5904 16.8389 24.6748 16.7493 24.8149C16.6127 24.6716 16.523 24.6477 16.4801 24.7432C16.41 24.8101 16.3281 24.8881 16.2346 24.9772C16.2698 25.1078 16.1023 25.3769 15.7321 25.7845C15.3579 26.1411 15.1124 26.3751 14.9955 26.4866C14.8355 26.3655 14.6873 26.3973 14.5509 26.582C14.4106 26.7158 14.2937 26.8272 14.2002 26.9164C14.212 27.0692 14.1828 27.1791 14.1127 27.246C14.0191 27.3351 13.908 27.359 13.7792 27.3176C13.6232 27.2475 13.5023 27.308 13.4166 27.499C13.3738 27.5946 13.3817 27.6965 13.4403 27.8048C13.4949 27.8621 13.4053 28.0022 13.1715 28.2251Z"/>
</mask>
<path d="M13.1715 28.2251C13.0154 28.155 12.875 28.1248 12.7502 28.1343C12.6214 28.0929 12.4771 28.0116 12.3171 27.8906C12.2466 27.6294 12.1568 27.4415 12.0475 27.3268C12.0943 27.2823 12.1313 27.2743 12.1586 27.303C12.182 27.2807 12.2054 27.2584 12.2288 27.2361C12.3223 27.1469 12.2968 26.9797 12.1523 26.7345C12.0275 26.744 11.9651 26.7488 11.9651 26.7488C11.9105 26.6914 11.8675 26.623 11.8363 26.5433C11.8284 26.4414 11.7971 26.3618 11.7425 26.3045L11.9529 26.1039C11.8163 25.9605 11.7791 25.8045 11.8414 25.6357C11.8764 25.4382 11.9406 25.2949 12.0341 25.2058C12.1823 25.174 12.2681 25.1469 12.2915 25.1246C12.3616 25.0578 12.4395 24.9288 12.5252 24.7377L12.6482 24.8667L12.6718 25.1725L12.8823 24.9719C12.8744 24.8699 12.9055 24.7855 12.9757 24.7187C13.0458 24.6518 13.1043 24.5961 13.1511 24.5515C13.2525 24.5643 13.3305 24.5993 13.3852 24.6567C13.4359 24.663 13.5236 24.6615 13.6484 24.6519L13.5665 24.5659C13.578 24.3908 13.6072 24.2809 13.654 24.2363C13.7241 24.1694 13.8177 24.0803 13.9346 23.9688C14.0087 23.9529 14.0808 23.9115 14.1509 23.8447C14.2211 23.7778 14.2796 23.7221 14.3263 23.6775L14.3381 23.8304L14.3791 23.8734C14.3831 23.9243 14.4084 23.9275 14.4552 23.8829C14.502 23.8384 14.537 23.8049 14.5604 23.7826L14.4256 23.5008L15.1918 23.1808C15.2386 23.1363 15.3087 23.0694 15.4023 22.9802C15.4685 22.8624 15.5484 22.7589 15.6419 22.6698C15.8056 22.5137 15.9596 22.3943 16.1038 22.3116C16.2481 22.2288 16.3495 22.2415 16.4081 22.3498L16.2441 22.1778C16.2869 22.0823 16.3317 22.0122 16.3785 21.9677C16.4213 21.8721 16.4778 21.7909 16.548 21.7241C16.6649 21.6126 16.7838 21.5266 16.9047 21.4662C16.9982 21.377 17.1054 21.3022 17.2263 21.2417C17.2809 21.299 17.3863 21.3627 17.5423 21.4328C17.5852 21.3373 17.6319 21.2927 17.6826 21.2991C17.7294 21.2545 17.7762 21.2099 17.823 21.1654C17.7917 21.0857 17.7624 21.0316 17.7351 21.0029C17.6804 20.9456 17.6511 20.8914 17.6472 20.8405L17.9633 21.0316C18.0799 20.5921 18.302 20.2164 18.6293 19.9043C18.8632 19.6814 19.1107 19.4729 19.3719 19.2787C19.633 19.0844 19.8805 18.8759 20.1144 18.653C20.2313 18.5415 20.3365 18.4412 20.4301 18.3521C20.5197 18.212 20.5976 18.083 20.6638 17.9652C20.7418 18.0002 20.7945 18.0321 20.8218 18.0607C20.8491 18.0894 20.9018 18.1213 20.9799 18.1563C20.8314 17.8601 20.8507 17.6229 21.0378 17.4445C21.1313 17.3554 21.2385 17.2806 21.3594 17.2201C21.4803 17.1596 21.5875 17.0848 21.681 16.9956C21.9149 16.7727 22.1273 16.5976 22.3183 16.4702C22.482 16.3142 22.6827 16.1502 22.9205 15.9783L22.9907 15.9114C23.0608 15.8446 23.0822 15.7968 23.0549 15.7681C23.0237 15.6885 23.0294 15.6009 23.0723 15.5054C23.0917 15.4321 23.1599 15.3398 23.2768 15.2283C23.4639 15.05 23.6569 14.9482 23.8558 14.9227C24.0507 14.8463 24.2574 14.7588 24.4757 14.6601L24.1478 14.3161C24.6389 13.848 25.13 13.3799 25.621 12.9118C26.0848 12.4151 26.5622 11.9327 27.0533 11.4646L27.0943 11.5076L27.0241 11.5745C27.032 11.6764 27.0106 11.7242 26.9599 11.7178C26.9325 11.6891 26.9502 11.7544 27.0127 11.9137C27.0831 12.1748 27.1729 12.3628 27.2822 12.4774C27.3915 12.5921 27.4327 12.7991 27.4056 13.0985C27.3473 13.3182 27.2362 13.5061 27.0726 13.6621C26.9322 13.7959 26.8193 13.9583 26.7336 14.1493L26.3005 13.9056L26.2303 13.9725C26.3396 14.0871 26.406 14.1333 26.4294 14.1111C26.4761 14.0665 26.4684 14.1286 26.4061 14.2974C26.3672 14.4438 26.2737 14.533 26.1255 14.5648C26.0007 14.5744 25.9188 14.6524 25.8799 14.7989L26.0439 14.9709C25.9856 15.1906 25.8862 15.3673 25.7459 15.5011C25.5822 15.6571 25.3795 15.7956 25.1378 15.9166C24.8921 15.9866 24.7148 16.1283 24.6057 16.3416C24.5161 16.4818 24.4402 16.6362 24.3779 16.805C24.3117 16.9228 24.2085 17.0486 24.0682 17.1823C23.9589 17.0677 23.9179 17.0247 23.9452 17.0533C23.9686 17.031 23.9082 17.0613 23.7639 17.1441C23.8343 17.4052 23.7389 17.6329 23.4778 17.8271C23.2127 17.9704 23.0119 18.1344 22.8756 18.3191C22.447 18.9464 21.9521 19.5275 21.3909 20.0625C20.8297 20.5974 20.2841 21.1722 19.7541 21.7867L19.7774 21.6004C19.7968 21.5272 19.7714 21.524 19.7013 21.5908C19.6038 21.629 19.5434 21.6593 19.52 21.6816C19.5045 21.8058 19.4286 21.9602 19.2922 22.1449C19.1558 22.3296 18.9941 22.5111 18.807 22.6894C18.4796 23.0015 18.1951 23.218 17.9534 23.339L18.0353 23.425L18.2225 23.4107L17.8016 23.8119C17.5909 23.6845 17.4505 23.6542 17.3803 23.721C17.3336 23.7656 17.3161 23.8643 17.3279 24.0172C17.3124 24.1414 17.2832 24.2513 17.2404 24.3468C17.1742 24.4646 17.1274 24.5092 17.1001 24.4806C17.0454 24.4232 16.9674 24.3882 16.866 24.3754C16.8232 24.4709 16.8154 24.5331 16.8427 24.5617C16.8701 24.5904 16.8389 24.6748 16.7493 24.8149C16.6127 24.6716 16.523 24.6477 16.4801 24.7432C16.41 24.8101 16.3281 24.8881 16.2346 24.9772C16.2698 25.1078 16.1023 25.3769 15.7321 25.7845C15.3579 26.1411 15.1124 26.3751 14.9955 26.4866C14.8355 26.3655 14.6873 26.3973 14.5509 26.582C14.4106 26.7158 14.2937 26.8272 14.2002 26.9164C14.212 27.0692 14.1828 27.1791 14.1127 27.246C14.0191 27.3351 13.908 27.359 13.7792 27.3176C13.6232 27.2475 13.5023 27.308 13.4166 27.499C13.3738 27.5946 13.3817 27.6965 13.4403 27.8048C13.4949 27.8621 13.4053 28.0022 13.1715 28.2251Z" fill="#262626"/>
<path d="M13.1715 28.2251C13.0154 28.155 12.875 28.1248 12.7502 28.1343C12.6214 28.0929 12.4771 28.0116 12.3171 27.8906C12.2466 27.6294 12.1568 27.4415 12.0475 27.3268C12.0943 27.2823 12.1313 27.2743 12.1586 27.303C12.182 27.2807 12.2054 27.2584 12.2288 27.2361C12.3223 27.1469 12.2968 26.9797 12.1523 26.7345C12.0275 26.744 11.9651 26.7488 11.9651 26.7488C11.9105 26.6914 11.8675 26.623 11.8363 26.5433C11.8284 26.4414 11.7971 26.3618 11.7425 26.3045L11.9529 26.1039C11.8163 25.9605 11.7791 25.8045 11.8414 25.6357C11.8764 25.4382 11.9406 25.2949 12.0341 25.2058C12.1823 25.174 12.2681 25.1469 12.2915 25.1246C12.3616 25.0578 12.4395 24.9288 12.5252 24.7377L12.6482 24.8667L12.6718 25.1725L12.8823 24.9719C12.8744 24.8699 12.9055 24.7855 12.9757 24.7187C13.0458 24.6518 13.1043 24.5961 13.1511 24.5515C13.2525 24.5643 13.3305 24.5993 13.3852 24.6567C13.4359 24.663 13.5236 24.6615 13.6484 24.6519L13.5665 24.5659C13.578 24.3908 13.6072 24.2809 13.654 24.2363C13.7241 24.1694 13.8177 24.0803 13.9346 23.9688C14.0087 23.9529 14.0808 23.9115 14.1509 23.8447C14.2211 23.7778 14.2796 23.7221 14.3263 23.6775L14.3381 23.8304L14.3791 23.8734C14.3831 23.9243 14.4084 23.9275 14.4552 23.8829C14.502 23.8384 14.537 23.8049 14.5604 23.7826L14.4256 23.5008L15.1918 23.1808C15.2386 23.1363 15.3087 23.0694 15.4023 22.9802C15.4685 22.8624 15.5484 22.7589 15.6419 22.6698C15.8056 22.5137 15.9596 22.3943 16.1038 22.3116C16.2481 22.2288 16.3495 22.2415 16.4081 22.3498L16.2441 22.1778C16.2869 22.0823 16.3317 22.0122 16.3785 21.9677C16.4213 21.8721 16.4778 21.7909 16.548 21.7241C16.6649 21.6126 16.7838 21.5266 16.9047 21.4662C16.9982 21.377 17.1054 21.3022 17.2263 21.2417C17.2809 21.299 17.3863 21.3627 17.5423 21.4328C17.5852 21.3373 17.6319 21.2927 17.6826 21.2991C17.7294 21.2545 17.7762 21.2099 17.823 21.1654C17.7917 21.0857 17.7624 21.0316 17.7351 21.0029C17.6804 20.9456 17.6511 20.8914 17.6472 20.8405L17.9633 21.0316C18.0799 20.5921 18.302 20.2164 18.6293 19.9043C18.8632 19.6814 19.1107 19.4729 19.3719 19.2787C19.633 19.0844 19.8805 18.8759 20.1144 18.653C20.2313 18.5415 20.3365 18.4412 20.4301 18.3521C20.5197 18.212 20.5976 18.083 20.6638 17.9652C20.7418 18.0002 20.7945 18.0321 20.8218 18.0607C20.8491 18.0894 20.9018 18.1213 20.9799 18.1563C20.8314 17.8601 20.8507 17.6229 21.0378 17.4445C21.1313 17.3554 21.2385 17.2806 21.3594 17.2201C21.4803 17.1596 21.5875 17.0848 21.681 16.9956C21.9149 16.7727 22.1273 16.5976 22.3183 16.4702C22.482 16.3142 22.6827 16.1502 22.9205 15.9783L22.9907 15.9114C23.0608 15.8446 23.0822 15.7968 23.0549 15.7681C23.0237 15.6885 23.0294 15.6009 23.0723 15.5054C23.0917 15.4321 23.1599 15.3398 23.2768 15.2283C23.4639 15.05 23.6569 14.9482 23.8558 14.9227C24.0507 14.8463 24.2574 14.7588 24.4757 14.6601L24.1478 14.3161C24.6389 13.848 25.13 13.3799 25.621 12.9118C26.0848 12.4151 26.5622 11.9327 27.0533 11.4646L27.0943 11.5076L27.0241 11.5745C27.032 11.6764 27.0106 11.7242 26.9599 11.7178C26.9325 11.6891 26.9502 11.7544 27.0127 11.9137C27.0831 12.1748 27.1729 12.3628 27.2822 12.4774C27.3915 12.5921 27.4327 12.7991 27.4056 13.0985C27.3473 13.3182 27.2362 13.5061 27.0726 13.6621C26.9322 13.7959 26.8193 13.9583 26.7336 14.1493L26.3005 13.9056L26.2303 13.9725C26.3396 14.0871 26.406 14.1333 26.4294 14.1111C26.4761 14.0665 26.4684 14.1286 26.4061 14.2974C26.3672 14.4438 26.2737 14.533 26.1255 14.5648C26.0007 14.5744 25.9188 14.6524 25.8799 14.7989L26.0439 14.9709C25.9856 15.1906 25.8862 15.3673 25.7459 15.5011C25.5822 15.6571 25.3795 15.7956 25.1378 15.9166C24.8921 15.9866 24.7148 16.1283 24.6057 16.3416C24.5161 16.4818 24.4402 16.6362 24.3779 16.805C24.3117 16.9228 24.2085 17.0486 24.0682 17.1823C23.9589 17.0677 23.9179 17.0247 23.9452 17.0533C23.9686 17.031 23.9082 17.0613 23.7639 17.1441C23.8343 17.4052 23.7389 17.6329 23.4778 17.8271C23.2127 17.9704 23.0119 18.1344 22.8756 18.3191C22.447 18.9464 21.9521 19.5275 21.3909 20.0625C20.8297 20.5974 20.2841 21.1722 19.7541 21.7867L19.7774 21.6004C19.7968 21.5272 19.7714 21.524 19.7013 21.5908C19.6038 21.629 19.5434 21.6593 19.52 21.6816C19.5045 21.8058 19.4286 21.9602 19.2922 22.1449C19.1558 22.3296 18.9941 22.5111 18.807 22.6894C18.4796 23.0015 18.1951 23.218 17.9534 23.339L18.0353 23.425L18.2225 23.4107L17.8016 23.8119C17.5909 23.6845 17.4505 23.6542 17.3803 23.721C17.3336 23.7656 17.3161 23.8643 17.3279 24.0172C17.3124 24.1414 17.2832 24.2513 17.2404 24.3468C17.1742 24.4646 17.1274 24.5092 17.1001 24.4806C17.0454 24.4232 16.9674 24.3882 16.866 24.3754C16.8232 24.4709 16.8154 24.5331 16.8427 24.5617C16.8701 24.5904 16.8389 24.6748 16.7493 24.8149C16.6127 24.6716 16.523 24.6477 16.4801 24.7432C16.41 24.8101 16.3281 24.8881 16.2346 24.9772C16.2698 25.1078 16.1023 25.3769 15.7321 25.7845C15.3579 26.1411 15.1124 26.3751 14.9955 26.4866C14.8355 26.3655 14.6873 26.3973 14.5509 26.582C14.4106 26.7158 14.2937 26.8272 14.2002 26.9164C14.212 27.0692 14.1828 27.1791 14.1127 27.246C14.0191 27.3351 13.908 27.359 13.7792 27.3176C13.6232 27.2475 13.5023 27.308 13.4166 27.499C13.3738 27.5946 13.3817 27.6965 13.4403 27.8048C13.4949 27.8621 13.4053 28.0022 13.1715 28.2251Z" stroke="#262626" stroke-width="0.8" mask="url(#path-2-outside-1_231_2144)"/>
<mask id="path-3-outside-2_231_2144" maskUnits="userSpaceOnUse" x="10.1656" y="9.48049" width="19.2668" height="21.5916" fill="black">
<rect fill="white" x="10.1656" y="9.48049" width="19.2668" height="21.5916"/>
<path d="M11.8466 13.0969C11.9264 12.9456 11.9654 12.8073 11.9637 12.6821C12.0131 12.5562 12.1032 12.4172 12.234 12.2651C12.4991 12.2112 12.6923 12.1333 12.8136 12.0314C12.8551 12.0809 12.8607 12.1183 12.8304 12.1438C12.8512 12.1685 12.872 12.1933 12.8928 12.218C12.9759 12.3169 13.1444 12.302 13.3982 12.1731C13.3965 12.048 13.3956 11.9854 13.3956 11.9854C13.4563 11.9344 13.5273 11.8958 13.6087 11.8696C13.7109 11.8681 13.7924 11.8419 13.853 11.791L14.04 12.0136C14.1916 11.8862 14.3497 11.8589 14.5143 11.9316C14.7092 11.9788 14.8482 12.0519 14.9313 12.1508C14.9538 12.3007 14.9754 12.388 14.9962 12.4128C15.0585 12.487 15.1824 12.5728 15.3677 12.6703L15.2312 12.7849L14.9246 12.7894L15.1116 13.012C15.2139 13.0105 15.2961 13.0468 15.3585 13.121C15.4208 13.1952 15.4728 13.2571 15.5143 13.3066C15.4952 13.407 15.4554 13.4827 15.3947 13.5336C15.3852 13.5838 15.3813 13.6715 15.383 13.7967L15.4739 13.7202C15.648 13.7427 15.7559 13.7787 15.7974 13.8282C15.8598 13.9024 15.9429 14.0013 16.0468 14.125C16.058 14.1999 16.0948 14.2745 16.1572 14.3487C16.2195 14.4229 16.2715 14.4848 16.313 14.5342L16.1597 14.5365L16.1142 14.5747C16.0631 14.5754 16.0584 14.6005 16.0999 14.65C16.1415 14.6995 16.1727 14.7366 16.1934 14.7613L16.4832 14.6444L16.7545 15.4291C16.7961 15.4786 16.8585 15.5528 16.9416 15.6517C17.055 15.7252 17.1533 15.8114 17.2364 15.9103C17.3819 16.0835 17.4914 16.2446 17.565 16.3937C17.6386 16.5429 17.6195 16.6433 17.5078 16.695L17.6897 16.5422C17.7824 16.5909 17.8495 16.64 17.891 16.6894C17.9837 16.7382 18.0612 16.7996 18.1236 16.8738C18.2275 16.9975 18.3058 17.1216 18.3586 17.246C18.4417 17.3449 18.5097 17.4566 18.5625 17.581C18.5019 17.6319 18.4317 17.7331 18.352 17.8845C18.4446 17.9332 18.4862 17.9827 18.4766 18.0329C18.5182 18.0823 18.5598 18.1318 18.6013 18.1813C18.6828 18.1551 18.7386 18.1292 18.769 18.1037C18.8296 18.0528 18.8855 18.0269 18.9366 18.0262L18.726 18.3297C19.1573 18.4736 19.5185 18.7188 19.8094 19.065C20.0172 19.3124 20.2099 19.5725 20.3873 19.8453C20.5648 20.1181 20.7575 20.3782 20.9653 20.6255C21.0692 20.7492 21.1627 20.8605 21.2459 20.9594C21.3801 21.0576 21.5039 21.1434 21.6174 21.2169C21.5775 21.2926 21.5424 21.3432 21.5121 21.3687C21.4818 21.3941 21.4467 21.4447 21.4068 21.5204C21.7117 21.3908 21.9473 21.4249 22.1136 21.6228C22.1967 21.7217 22.2647 21.8334 22.3175 21.9578C22.3703 22.0822 22.4382 22.1939 22.5214 22.2928C22.7292 22.5402 22.8906 22.7632 23.0058 22.9618C23.1513 23.1349 23.3024 23.3455 23.4591 23.5936L23.5214 23.6678C23.5837 23.742 23.6301 23.7664 23.6604 23.7409C23.7418 23.7147 23.8289 23.7259 23.9215 23.7747C23.9934 23.7987 24.0813 23.8725 24.1852 23.9962C24.3515 24.194 24.4411 24.393 24.454 24.5931C24.5181 24.7925 24.5925 25.0042 24.6773 25.2283L25.0412 24.9226C25.4776 25.442 25.914 25.9614 26.3504 26.4808C26.8171 26.9748 27.2687 27.4815 27.7051 28.0009L27.6596 28.0391L27.5973 27.9649C27.4951 27.9664 27.4487 27.942 27.4583 27.8918C27.4886 27.8663 27.4223 27.8798 27.2595 27.9322C26.9944 27.9862 26.8013 28.0641 26.68 28.166C26.5587 28.2679 26.3495 28.296 26.0524 28.2502C25.8368 28.1782 25.6562 28.0557 25.5107 27.8825C25.386 27.7341 25.231 27.6112 25.0457 27.5137L25.316 27.0967L25.2537 27.0225C25.1324 27.1244 25.0822 27.1877 25.1029 27.2125C25.1445 27.2619 25.083 27.2503 24.9185 27.1776C24.7747 27.1296 24.6916 27.0307 24.6691 26.8808C24.6674 26.7556 24.5947 26.6691 24.4509 26.6211L24.269 26.7739C24.0533 26.702 23.8831 26.5918 23.7584 26.4434C23.613 26.2702 23.4874 26.0592 23.3818 25.8104C23.3273 25.5608 23.197 25.375 22.9909 25.2528C22.8567 25.1546 22.7073 25.0691 22.5427 24.9964C22.4293 24.923 22.3102 24.812 22.1855 24.6636C22.3068 24.5617 22.3523 24.5235 22.322 24.549C22.3428 24.5737 22.3164 24.5115 22.2428 24.3624C21.9777 24.4163 21.7564 24.3068 21.579 24.034C21.4526 23.7605 21.3015 23.5498 21.1257 23.4022C20.5264 22.9352 19.9774 22.4049 19.4787 21.8113C18.9799 21.2177 18.4405 20.6371 17.8603 20.0697L18.0448 20.1046C18.1166 20.1286 18.1214 20.1035 18.0591 20.0293C18.027 19.9296 18.0006 19.8674 17.9799 19.8427C17.8569 19.8194 17.7075 19.734 17.5317 19.5863C17.3559 19.4386 17.1849 19.2659 17.0186 19.068C16.7277 18.7217 16.5294 18.4242 16.4238 18.1754L16.3329 18.2518L16.3354 18.4395L15.9613 17.9943C16.1017 17.792 16.1407 17.6537 16.0784 17.5795C16.0368 17.53 15.9394 17.5064 15.7861 17.5086C15.6631 17.4854 15.5553 17.4494 15.4626 17.4007C15.3491 17.3272 15.3076 17.2777 15.3379 17.2523C15.3985 17.2013 15.4384 17.1256 15.4575 17.0252C15.3648 16.9765 15.3033 16.9649 15.273 16.9903C15.2427 17.0158 15.1604 16.9795 15.0262 16.8813C15.1778 16.7539 15.2073 16.6658 15.1146 16.6171C15.0523 16.5429 14.9795 16.4563 14.8964 16.3574C14.7639 16.3844 14.5058 16.2003 14.1222 15.8053C13.7897 15.4096 13.5715 15.1499 13.4676 15.0262C13.5984 14.8741 13.5759 14.7242 13.4001 14.5765C13.2755 14.4281 13.1715 14.3045 13.0884 14.2055C12.9351 14.2077 12.8273 14.1718 12.7649 14.0976C12.6818 13.9986 12.665 13.8862 12.7144 13.7603C12.7941 13.6089 12.7413 13.4845 12.5559 13.3871C12.4633 13.3383 12.3611 13.3398 12.2493 13.3915C12.1887 13.4425 12.0545 13.3443 11.8466 13.0969Z"/>
</mask>
<path d="M11.8466 13.0969C11.9264 12.9456 11.9654 12.8073 11.9637 12.6821C12.0131 12.5562 12.1032 12.4172 12.234 12.2651C12.4991 12.2112 12.6923 12.1333 12.8136 12.0314C12.8551 12.0809 12.8607 12.1183 12.8304 12.1438C12.8512 12.1685 12.872 12.1933 12.8928 12.218C12.9759 12.3169 13.1444 12.302 13.3982 12.1731C13.3965 12.048 13.3956 11.9854 13.3956 11.9854C13.4563 11.9344 13.5273 11.8958 13.6087 11.8696C13.7109 11.8681 13.7924 11.8419 13.853 11.791L14.04 12.0136C14.1916 11.8862 14.3497 11.8589 14.5143 11.9316C14.7092 11.9788 14.8482 12.0519 14.9313 12.1508C14.9538 12.3007 14.9754 12.388 14.9962 12.4128C15.0585 12.487 15.1824 12.5728 15.3677 12.6703L15.2312 12.7849L14.9246 12.7894L15.1116 13.012C15.2139 13.0105 15.2961 13.0468 15.3585 13.121C15.4208 13.1952 15.4728 13.2571 15.5143 13.3066C15.4952 13.407 15.4554 13.4827 15.3947 13.5336C15.3852 13.5838 15.3813 13.6715 15.383 13.7967L15.4739 13.7202C15.648 13.7427 15.7559 13.7787 15.7974 13.8282C15.8598 13.9024 15.9429 14.0013 16.0468 14.125C16.058 14.1999 16.0948 14.2745 16.1572 14.3487C16.2195 14.4229 16.2715 14.4848 16.313 14.5342L16.1597 14.5365L16.1142 14.5747C16.0631 14.5754 16.0584 14.6005 16.0999 14.65C16.1415 14.6995 16.1727 14.7366 16.1934 14.7613L16.4832 14.6444L16.7545 15.4291C16.7961 15.4786 16.8585 15.5528 16.9416 15.6517C17.055 15.7252 17.1533 15.8114 17.2364 15.9103C17.3819 16.0835 17.4914 16.2446 17.565 16.3937C17.6386 16.5429 17.6195 16.6433 17.5078 16.695L17.6897 16.5422C17.7824 16.5909 17.8495 16.64 17.891 16.6894C17.9837 16.7382 18.0612 16.7996 18.1236 16.8738C18.2275 16.9975 18.3058 17.1216 18.3586 17.246C18.4417 17.3449 18.5097 17.4566 18.5625 17.581C18.5019 17.6319 18.4317 17.7331 18.352 17.8845C18.4446 17.9332 18.4862 17.9827 18.4766 18.0329C18.5182 18.0823 18.5598 18.1318 18.6013 18.1813C18.6828 18.1551 18.7386 18.1292 18.769 18.1037C18.8296 18.0528 18.8855 18.0269 18.9366 18.0262L18.726 18.3297C19.1573 18.4736 19.5185 18.7188 19.8094 19.065C20.0172 19.3124 20.2099 19.5725 20.3873 19.8453C20.5648 20.1181 20.7575 20.3782 20.9653 20.6255C21.0692 20.7492 21.1627 20.8605 21.2459 20.9594C21.3801 21.0576 21.5039 21.1434 21.6174 21.2169C21.5775 21.2926 21.5424 21.3432 21.5121 21.3687C21.4818 21.3941 21.4467 21.4447 21.4068 21.5204C21.7117 21.3908 21.9473 21.4249 22.1136 21.6228C22.1967 21.7217 22.2647 21.8334 22.3175 21.9578C22.3703 22.0822 22.4382 22.1939 22.5214 22.2928C22.7292 22.5402 22.8906 22.7632 23.0058 22.9618C23.1513 23.1349 23.3024 23.3455 23.4591 23.5936L23.5214 23.6678C23.5837 23.742 23.6301 23.7664 23.6604 23.7409C23.7418 23.7147 23.8289 23.7259 23.9215 23.7747C23.9934 23.7987 24.0813 23.8725 24.1852 23.9962C24.3515 24.194 24.4411 24.393 24.454 24.5931C24.5181 24.7925 24.5925 25.0042 24.6773 25.2283L25.0412 24.9226C25.4776 25.442 25.914 25.9614 26.3504 26.4808C26.8171 26.9748 27.2687 27.4815 27.7051 28.0009L27.6596 28.0391L27.5973 27.9649C27.4951 27.9664 27.4487 27.942 27.4583 27.8918C27.4886 27.8663 27.4223 27.8798 27.2595 27.9322C26.9944 27.9862 26.8013 28.0641 26.68 28.166C26.5587 28.2679 26.3495 28.296 26.0524 28.2502C25.8368 28.1782 25.6562 28.0557 25.5107 27.8825C25.386 27.7341 25.231 27.6112 25.0457 27.5137L25.316 27.0967L25.2537 27.0225C25.1324 27.1244 25.0822 27.1877 25.1029 27.2125C25.1445 27.2619 25.083 27.2503 24.9185 27.1776C24.7747 27.1296 24.6916 27.0307 24.6691 26.8808C24.6674 26.7556 24.5947 26.6691 24.4509 26.6211L24.269 26.7739C24.0533 26.702 23.8831 26.5918 23.7584 26.4434C23.613 26.2702 23.4874 26.0592 23.3818 25.8104C23.3273 25.5608 23.197 25.375 22.9909 25.2528C22.8567 25.1546 22.7073 25.0691 22.5427 24.9964C22.4293 24.923 22.3102 24.812 22.1855 24.6636C22.3068 24.5617 22.3523 24.5235 22.322 24.549C22.3428 24.5737 22.3164 24.5115 22.2428 24.3624C21.9777 24.4163 21.7564 24.3068 21.579 24.034C21.4526 23.7605 21.3015 23.5498 21.1257 23.4022C20.5264 22.9352 19.9774 22.4049 19.4787 21.8113C18.9799 21.2177 18.4405 20.6371 17.8603 20.0697L18.0448 20.1046C18.1166 20.1286 18.1214 20.1035 18.0591 20.0293C18.027 19.9296 18.0006 19.8674 17.9799 19.8427C17.8569 19.8194 17.7075 19.734 17.5317 19.5863C17.3559 19.4386 17.1849 19.2659 17.0186 19.068C16.7277 18.7217 16.5294 18.4242 16.4238 18.1754L16.3329 18.2518L16.3354 18.4395L15.9613 17.9943C16.1017 17.792 16.1407 17.6537 16.0784 17.5795C16.0368 17.53 15.9394 17.5064 15.7861 17.5086C15.6631 17.4854 15.5553 17.4494 15.4626 17.4007C15.3491 17.3272 15.3076 17.2777 15.3379 17.2523C15.3985 17.2013 15.4384 17.1256 15.4575 17.0252C15.3648 16.9765 15.3033 16.9649 15.273 16.9903C15.2427 17.0158 15.1604 16.9795 15.0262 16.8813C15.1778 16.7539 15.2073 16.6658 15.1146 16.6171C15.0523 16.5429 14.9795 16.4563 14.8964 16.3574C14.7639 16.3844 14.5058 16.2003 14.1222 15.8053C13.7897 15.4096 13.5715 15.1499 13.4676 15.0262C13.5984 14.8741 13.5759 14.7242 13.4001 14.5765C13.2755 14.4281 13.1715 14.3045 13.0884 14.2055C12.9351 14.2077 12.8273 14.1718 12.7649 14.0976C12.6818 13.9986 12.665 13.8862 12.7144 13.7603C12.7941 13.6089 12.7413 13.4845 12.5559 13.3871C12.4633 13.3383 12.3611 13.3398 12.2493 13.3915C12.1887 13.4425 12.0545 13.3443 11.8466 13.0969Z" fill="#262626"/>
<path d="M11.8466 13.0969C11.9264 12.9456 11.9654 12.8073 11.9637 12.6821C12.0131 12.5562 12.1032 12.4172 12.234 12.2651C12.4991 12.2112 12.6923 12.1333 12.8136 12.0314C12.8551 12.0809 12.8607 12.1183 12.8304 12.1438C12.8512 12.1685 12.872 12.1933 12.8928 12.218C12.9759 12.3169 13.1444 12.302 13.3982 12.1731C13.3965 12.048 13.3956 11.9854 13.3956 11.9854C13.4563 11.9344 13.5273 11.8958 13.6087 11.8696C13.7109 11.8681 13.7924 11.8419 13.853 11.791L14.04 12.0136C14.1916 11.8862 14.3497 11.8589 14.5143 11.9316C14.7092 11.9788 14.8482 12.0519 14.9313 12.1508C14.9538 12.3007 14.9754 12.388 14.9962 12.4128C15.0585 12.487 15.1824 12.5728 15.3677 12.6703L15.2312 12.7849L14.9246 12.7894L15.1116 13.012C15.2139 13.0105 15.2961 13.0468 15.3585 13.121C15.4208 13.1952 15.4728 13.2571 15.5143 13.3066C15.4952 13.407 15.4554 13.4827 15.3947 13.5336C15.3852 13.5838 15.3813 13.6715 15.383 13.7967L15.4739 13.7202C15.648 13.7427 15.7559 13.7787 15.7974 13.8282C15.8598 13.9024 15.9429 14.0013 16.0468 14.125C16.058 14.1999 16.0948 14.2745 16.1572 14.3487C16.2195 14.4229 16.2715 14.4848 16.313 14.5342L16.1597 14.5365L16.1142 14.5747C16.0631 14.5754 16.0584 14.6005 16.0999 14.65C16.1415 14.6995 16.1727 14.7366 16.1934 14.7613L16.4832 14.6444L16.7545 15.4291C16.7961 15.4786 16.8585 15.5528 16.9416 15.6517C17.055 15.7252 17.1533 15.8114 17.2364 15.9103C17.3819 16.0835 17.4914 16.2446 17.565 16.3937C17.6386 16.5429 17.6195 16.6433 17.5078 16.695L17.6897 16.5422C17.7824 16.5909 17.8495 16.64 17.891 16.6894C17.9837 16.7382 18.0612 16.7996 18.1236 16.8738C18.2275 16.9975 18.3058 17.1216 18.3586 17.246C18.4417 17.3449 18.5097 17.4566 18.5625 17.581C18.5019 17.6319 18.4317 17.7331 18.352 17.8845C18.4446 17.9332 18.4862 17.9827 18.4766 18.0329C18.5182 18.0823 18.5598 18.1318 18.6013 18.1813C18.6828 18.1551 18.7386 18.1292 18.769 18.1037C18.8296 18.0528 18.8855 18.0269 18.9366 18.0262L18.726 18.3297C19.1573 18.4736 19.5185 18.7188 19.8094 19.065C20.0172 19.3124 20.2099 19.5725 20.3873 19.8453C20.5648 20.1181 20.7575 20.3782 20.9653 20.6255C21.0692 20.7492 21.1627 20.8605 21.2459 20.9594C21.3801 21.0576 21.5039 21.1434 21.6174 21.2169C21.5775 21.2926 21.5424 21.3432 21.5121 21.3687C21.4818 21.3941 21.4467 21.4447 21.4068 21.5204C21.7117 21.3908 21.9473 21.4249 22.1136 21.6228C22.1967 21.7217 22.2647 21.8334 22.3175 21.9578C22.3703 22.0822 22.4382 22.1939 22.5214 22.2928C22.7292 22.5402 22.8906 22.7632 23.0058 22.9618C23.1513 23.1349 23.3024 23.3455 23.4591 23.5936L23.5214 23.6678C23.5837 23.742 23.6301 23.7664 23.6604 23.7409C23.7418 23.7147 23.8289 23.7259 23.9215 23.7747C23.9934 23.7987 24.0813 23.8725 24.1852 23.9962C24.3515 24.194 24.4411 24.393 24.454 24.5931C24.5181 24.7925 24.5925 25.0042 24.6773 25.2283L25.0412 24.9226C25.4776 25.442 25.914 25.9614 26.3504 26.4808C26.8171 26.9748 27.2687 27.4815 27.7051 28.0009L27.6596 28.0391L27.5973 27.9649C27.4951 27.9664 27.4487 27.942 27.4583 27.8918C27.4886 27.8663 27.4223 27.8798 27.2595 27.9322C26.9944 27.9862 26.8013 28.0641 26.68 28.166C26.5587 28.2679 26.3495 28.296 26.0524 28.2502C25.8368 28.1782 25.6562 28.0557 25.5107 27.8825C25.386 27.7341 25.231 27.6112 25.0457 27.5137L25.316 27.0967L25.2537 27.0225C25.1324 27.1244 25.0822 27.1877 25.1029 27.2125C25.1445 27.2619 25.083 27.2503 24.9185 27.1776C24.7747 27.1296 24.6916 27.0307 24.6691 26.8808C24.6674 26.7556 24.5947 26.6691 24.4509 26.6211L24.269 26.7739C24.0533 26.702 23.8831 26.5918 23.7584 26.4434C23.613 26.2702 23.4874 26.0592 23.3818 25.8104C23.3273 25.5608 23.197 25.375 22.9909 25.2528C22.8567 25.1546 22.7073 25.0691 22.5427 24.9964C22.4293 24.923 22.3102 24.812 22.1855 24.6636C22.3068 24.5617 22.3523 24.5235 22.322 24.549C22.3428 24.5737 22.3164 24.5115 22.2428 24.3624C21.9777 24.4163 21.7564 24.3068 21.579 24.034C21.4526 23.7605 21.3015 23.5498 21.1257 23.4022C20.5264 22.9352 19.9774 22.4049 19.4787 21.8113C18.9799 21.2177 18.4405 20.6371 17.8603 20.0697L18.0448 20.1046C18.1166 20.1286 18.1214 20.1035 18.0591 20.0293C18.027 19.9296 18.0006 19.8674 17.9799 19.8427C17.8569 19.8194 17.7075 19.734 17.5317 19.5863C17.3559 19.4386 17.1849 19.2659 17.0186 19.068C16.7277 18.7217 16.5294 18.4242 16.4238 18.1754L16.3329 18.2518L16.3354 18.4395L15.9613 17.9943C16.1017 17.792 16.1407 17.6537 16.0784 17.5795C16.0368 17.53 15.9394 17.5064 15.7861 17.5086C15.6631 17.4854 15.5553 17.4494 15.4626 17.4007C15.3491 17.3272 15.3076 17.2777 15.3379 17.2523C15.3985 17.2013 15.4384 17.1256 15.4575 17.0252C15.3648 16.9765 15.3033 16.9649 15.273 16.9903C15.2427 17.0158 15.1604 16.9795 15.0262 16.8813C15.1778 16.7539 15.2073 16.6658 15.1146 16.6171C15.0523 16.5429 14.9795 16.4563 14.8964 16.3574C14.7639 16.3844 14.5058 16.2003 14.1222 15.8053C13.7897 15.4096 13.5715 15.1499 13.4676 15.0262C13.5984 14.8741 13.5759 14.7242 13.4001 14.5765C13.2755 14.4281 13.1715 14.3045 13.0884 14.2055C12.9351 14.2077 12.8273 14.1718 12.7649 14.0976C12.6818 13.9986 12.665 13.8862 12.7144 13.7603C12.7941 13.6089 12.7413 13.4845 12.5559 13.3871C12.4633 13.3383 12.3611 13.3398 12.2493 13.3915C12.1887 13.4425 12.0545 13.3443 11.8466 13.0969Z" stroke="#262626" stroke-width="0.8" mask="url(#path-3-outside-2_231_2144)"/>
</svg>
