<svg width="260" height="170" viewBox="0 0 260 170" fill="none" xmlns="http://www.w3.org/2000/svg">
<path d="M30.7509 123.939C31.054 123.182 31.252 120.781 31.4129 118.83C31.7615 114.595 32.24 108.796 34.2633 103.565C35.1378 101.301 36.9569 97.0044 38.7162 92.8505C40.6674 88.2408 43.097 82.5029 43.3651 81.5294C44.3922 77.8066 45.4771 73.3702 46.5269 69.0802C48.3399 61.6758 50.0517 54.6819 51.58 50.6311C52.9702 46.9413 54.4057 45.0046 56.2289 44.3508C58.0522 43.6949 59.5784 44.5715 60.0796 44.8623C63.3549 46.7474 62.8289 53.2711 61.6162 64.6376C61.3254 67.3559 60.9438 70.9385 60.8427 73.5661C61.907 71.2747 63.3425 67.5993 65.0214 62.2987C69.2516 48.9296 71.5822 44.2601 74.6079 43.0844C75.4432 42.7606 76.7529 42.5544 78.2523 43.4186C83.8561 46.6422 81.9071 52.5554 78.0234 64.3364C77.3118 66.4773 77.2644 66.6918 75.8825 70.7529C74.9915 73.3743 73.8839 76.6289 73.3188 78.9121C75.5277 75.9297 78.8009 70.1403 80.8902 66.5124C82.5402 63.6661 83.9365 61.2117 85.1349 59.1101C90.1777 50.2578 91.6998 47.5848 94.1934 46.9062C95.6722 46.5082 96.9365 47.0712 97.8687 47.6075C99.3682 48.4696 100.323 49.6391 100.711 51.0869C101.721 54.8613 98.8876 60.3022 91.6833 72.737C88.901 77.5406 86.5271 82.5772 85.2896 85.7122C87.3933 83.7899 90.2994 80.2321 92.267 77.8231C98.209 70.5487 102.905 64.8067 106.977 67.1517C108.354 67.9437 109.289 69.1297 109.679 70.5837C110.209 72.5617 109.718 74.8737 108.218 77.456C107.369 78.9245 104.939 82.1049 101.579 86.5062C96.4848 93.1764 86.393 106.391 84.6234 111.104C86.4837 110.33 89.8209 107.913 92.1804 106.205C98.3679 101.723 104.76 97.0869 109.076 99.5701C111.102 100.735 112.333 102.235 112.733 104.027C114.014 109.74 109.093 109.639 97.8234 120.181C92.9559 124.72 88.4266 129.456 79.9642 134.715C72.1659 139.56 62.3154 141.068 61.1067 142.089C59.9724 144.048 59.1515 146.548 59.1412 146.572C58.2976 149.165 54.3706 147.907 55.2183 145.296C55.2575 145.176 56.1774 142.365 57.5365 140.018C59.4794 136.666 68.9855 136.679 77.7862 131.209C85.6237 126.337 90.0807 121.763 95.006 117.163C98.9742 113.453 106.808 107.377 108.575 106.015C108.735 105.666 108.78 105.276 108.703 104.9C108.517 104.143 107.684 103.526 107.02 103.144C105.024 101.996 98.4999 106.721 94.6017 109.546C88.8577 113.709 84.7059 116.72 81.6987 114.983C80.9707 114.564 80.4757 113.861 80.3045 113.001C79.5661 109.324 85.2586 101.084 98.3019 84.0065C101.323 80.0506 103.932 76.6331 104.652 75.3914C105.541 73.859 105.921 72.4998 105.694 71.6562C105.604 71.294 105.378 70.9802 105.063 70.7797C103.353 70.7797 98.2194 77.0641 95.4597 80.4404C89.759 87.4199 85.2524 92.9268 81.4079 90.7137C80.9335 90.4415 80.4881 89.8413 80.3457 89.3112C79.4424 85.9473 88.0224 70.8292 88.111 70.6766C93.5457 61.2963 97.3449 54.4777 96.722 52.1615C96.6766 51.9903 96.5817 51.6356 95.8062 51.1901C95.4329 50.9756 95.2597 50.9199 95.2617 50.8992C94.3068 51.3406 91.9555 55.4656 88.7133 61.1581C87.5109 63.2681 86.1104 65.7286 84.4542 68.5872C78.6854 78.4027 74.5542 86.8672 70.4457 84.5077C67.4324 82.7731 69.0432 78.0335 71.9699 69.4308C73.5251 64.8562 73.1497 65.906 74.0984 63.0494C77.7305 52.0316 78.7576 48.4779 76.1052 46.9331C72.1762 48.0509 66.4775 78.0376 60.8366 80.228C60.0672 80.5291 59.2567 80.4714 58.5657 80.0712C56.0804 78.644 56.4455 74.1766 57.5077 64.2106C58.0439 59.1905 59.0401 49.8494 58.0192 48.4469C57.7449 48.2902 57.6129 48.2572 57.6087 48.2469C57.5118 48.2943 56.6765 48.8017 55.4349 52.0976C53.9952 55.9152 52.2318 63.1113 50.5302 70.0702C49.4722 74.3891 48.3811 78.8544 47.3375 82.637C47.0178 83.7899 45.3018 87.8757 42.5112 94.4675C40.7643 98.5925 38.9596 102.858 38.1078 105.063C36.299 109.738 35.8679 114.973 35.5214 119.178C35.3709 121.008 35.1667 125.131 34.0529 126.428L21.6346 141.08C21.281 141.497 20.7761 141.757 20.2311 141.801C19.6861 141.846 19.1456 141.673 18.7286 141.319C18.3115 140.966 18.0519 140.461 18.0071 139.916C17.9622 139.371 18.1357 138.83 18.4893 138.413L30.7509 123.939ZM82.0927 137.953C92.4959 141.228 101.497 143.334 106.849 143.778C107.105 140.89 107.488 138.025 107.998 135.235C108.113 134.713 108.426 134.256 108.872 133.961C109.317 133.665 109.859 133.553 110.385 133.65C110.911 133.746 111.379 134.042 111.691 134.476C112.002 134.91 112.134 135.448 112.057 135.977C111.456 139.259 111.038 142.654 110.811 146.065C110.737 147.148 109.835 147.989 108.75 147.989C103.341 147.989 93.1724 145.766 80.8531 141.888C80.3512 141.708 79.9385 141.341 79.7016 140.863C79.4646 140.385 79.4218 139.834 79.582 139.325C79.7423 138.817 80.0931 138.39 80.5612 138.134C81.0292 137.878 81.578 137.813 82.0927 137.953Z" fill="#2A2A2A"/>
<path d="M22.9298 100.481C28.0613 93.9288 30.887 90.3194 34.5912 78.1486C35.9009 73.8401 37.2869 67.5515 38.7534 60.8937C42.1359 45.5343 45.97 28.1268 51.5037 21.7145C51.845 21.3194 52.3234 21.0684 52.8424 21.0121C53.3614 20.9558 53.8825 21.0985 54.3005 21.4113C62.6103 27.6442 72.4897 29.4901 82.0432 31.2762C89.3176 32.6354 96.8416 34.0421 103.64 37.3647C107.529 39.2664 112.669 43.2099 118.62 47.7742C127.065 54.2546 136.64 61.5991 144.512 64.4309C144.934 64.5827 145.295 64.8678 145.54 65.2429C145.785 65.618 145.901 66.0628 145.871 66.5099C145.275 75.3168 139.649 83.2781 133.133 92.4954C127.189 100.906 120.453 110.437 115.901 122.783C114.957 125.339 111.081 123.934 112.03 121.358C116.769 108.5 123.675 98.7324 129.765 90.1152C135.522 81.9704 140.542 74.8651 141.596 67.7247C133.476 64.3711 124.279 57.3153 116.109 51.0474C110.576 46.8007 105.347 42.7912 101.829 41.0711C95.536 37.9938 88.6143 36.7006 81.2883 35.3311C71.8854 33.5739 62.1854 31.7609 53.5229 25.9158C49.1814 32.7262 45.6586 48.725 42.7835 61.7806C41.2985 68.5209 39.898 74.8857 38.5389 79.349C34.6139 92.2582 31.4397 96.311 26.1804 103.024C25.081 104.429 23.8869 105.953 22.5669 107.715C23.8064 109.486 25.6359 111.369 28.0242 113.331C28.433 113.682 28.6882 114.179 28.7351 114.716C28.782 115.253 28.6169 115.787 28.2751 116.203C27.9334 116.62 27.4421 116.886 26.9065 116.945C26.3708 117.005 25.8333 116.852 25.409 116.519C22.1214 113.822 19.7206 111.173 18.2768 108.647C18.0787 108.3 17.9855 107.903 18.0086 107.504C18.0317 107.106 18.17 106.722 18.4068 106.401C20.0877 104.111 21.5789 102.208 22.9298 100.481ZM114.171 128.395L122.019 125.258C122.537 125.05 123.007 124.74 123.402 124.345C123.797 123.951 124.108 123.48 124.316 122.963L127.459 115.109C127.614 114.727 127.879 114.401 128.22 114.171C128.561 113.941 128.962 113.818 129.374 113.818C129.785 113.818 130.187 113.94 130.528 114.17C130.87 114.399 131.135 114.725 131.289 115.107L134.435 122.963C134.643 123.48 134.954 123.951 135.349 124.345C135.744 124.74 136.214 125.05 136.732 125.258L144.578 128.395C144.962 128.548 145.291 128.812 145.522 129.153C145.754 129.495 145.878 129.898 145.878 130.311C145.879 130.723 145.755 131.127 145.524 131.468C145.292 131.81 144.964 132.074 144.58 132.227L136.732 135.364C135.689 135.781 134.851 136.618 134.435 137.66L131.292 145.514C131.137 145.895 130.872 146.222 130.531 146.452C130.19 146.682 129.789 146.805 129.377 146.805C128.966 146.805 128.564 146.682 128.223 146.453C127.881 146.223 127.616 145.897 127.461 145.516L124.316 137.66C124.108 137.142 123.797 136.672 123.402 136.277C123.007 135.883 122.537 135.572 122.019 135.364L114.173 132.227C113.789 132.075 113.46 131.811 113.229 131.469C112.997 131.128 112.873 130.725 112.873 130.312C112.872 129.899 112.996 129.496 113.227 129.154C113.459 128.813 113.787 128.548 114.171 128.395ZM123.549 131.534C124.585 131.95 125.527 132.572 126.317 133.361C127.107 134.15 127.729 135.091 128.146 136.128L129.375 139.199L130.605 136.13C131.021 135.093 131.642 134.152 132.432 133.362C133.222 132.572 134.163 131.95 135.2 131.534L138.259 130.311L135.202 129.088C134.165 128.673 133.223 128.052 132.433 127.262C131.643 126.473 131.021 125.531 130.605 124.495L129.375 121.424L128.146 124.493C127.73 125.53 127.108 126.471 126.318 127.261C125.528 128.051 124.586 128.672 123.549 129.088L120.492 130.311L123.549 131.534ZM41.4532 35.2899L35.8493 37.5297C35.2512 37.769 34.7748 38.2454 34.5355 38.8415L32.2915 44.4515C32.1371 44.8327 31.8725 45.1592 31.5314 45.3891C31.1904 45.6191 30.7885 45.742 30.3772 45.7422C29.9659 45.7425 29.5639 45.6199 29.2226 45.3904C28.8813 45.1608 28.6163 44.8346 28.4615 44.4536L26.2154 38.8436C26.0969 38.5472 25.9193 38.278 25.6935 38.0525C25.4676 37.827 25.1982 37.6498 24.9016 37.5318L19.2978 35.2919C18.9162 35.1372 18.5894 34.8721 18.3594 34.5306C18.1293 34.189 18.0064 33.7866 18.0064 33.3748C18.0064 32.963 18.1293 32.5606 18.3594 32.2191C18.5894 31.8776 18.9162 31.6125 19.2978 31.4577L24.9016 29.2179C25.1977 29.0991 25.4668 28.9217 25.6926 28.6963C25.9183 28.4708 26.0962 28.2021 26.2154 27.9061L28.4594 22.2961C28.6138 21.9149 28.8785 21.5884 29.2195 21.3585C29.5606 21.1285 29.9624 21.0056 30.3738 21.0054C30.7851 21.0052 31.1871 21.1277 31.5284 21.3572C31.8696 21.5868 32.1347 21.913 32.2895 22.2941L34.5355 27.9041C34.654 28.2004 34.8316 28.4696 35.0575 28.6951C35.2834 28.9206 35.5528 29.0978 35.8493 29.2158L41.4532 31.4557C41.8348 31.6104 42.1615 31.8755 42.3916 32.217C42.6216 32.5586 42.7445 32.961 42.7445 33.3728C42.7445 33.7846 42.6216 34.187 42.3916 34.5285C42.1615 34.87 41.8348 35.1351 41.4532 35.2899ZM34.319 33.0479C31.1798 31.7939 30.5694 28.9291 30.3755 28.6136C30.2229 28.8652 29.5959 31.7857 26.432 33.0479L25.6194 33.3738L26.434 33.6997C29.5732 34.9537 30.1837 37.8185 30.3755 38.1341C30.5281 37.8824 31.1551 34.9619 34.319 33.6997L35.1316 33.3738L34.319 33.0479ZM144.578 37.3524L137.852 40.0419C137.034 40.3698 136.374 41.0277 136.046 41.8466L133.352 48.5786C133.199 48.9607 132.934 49.2881 132.593 49.5187C132.252 49.7494 131.85 49.8726 131.438 49.8726C131.026 49.8726 130.624 49.7494 130.283 49.5187C129.942 49.2881 129.677 48.9607 129.524 48.5786L126.83 41.8466C126.502 41.0257 125.842 40.3677 125.024 40.0419L118.298 37.3524C117.914 37.1996 117.586 36.9354 117.354 36.5938C117.122 36.2522 116.999 35.849 116.999 35.4363C116.999 35.0236 117.122 34.6204 117.354 34.2788C117.586 33.9372 117.914 33.673 118.298 33.5202L125.024 30.8328C125.431 30.669 125.801 30.4248 126.111 30.1147C126.421 29.8046 126.666 29.435 126.83 29.0281L129.524 22.2941C129.677 21.9119 129.942 21.5845 130.283 21.3539C130.624 21.1232 131.026 21 131.438 21C131.85 21 132.252 21.1232 132.593 21.3539C132.934 21.5845 133.199 21.9119 133.352 22.2941L136.046 29.0261C136.376 29.8469 137.034 30.5049 137.852 30.8328L144.578 33.5202C144.962 33.673 145.29 33.9372 145.522 34.2788C145.754 34.6204 145.877 35.0236 145.877 35.4363C145.877 35.849 145.754 36.2522 145.522 36.5938C145.29 36.9354 144.962 37.1996 144.578 37.3524ZM136.322 34.6629C135.397 34.2907 134.556 33.7355 133.851 33.0305C133.146 32.3256 132.59 31.4855 132.218 30.5606L131.438 28.6136L130.658 30.5606C130.286 31.4855 129.73 32.3256 129.025 33.0305C128.32 33.7355 127.479 34.2907 126.554 34.6629L124.619 35.4363L126.554 36.2097C127.479 36.5819 128.32 37.1371 129.025 37.8421C129.73 38.547 130.286 39.3871 130.658 40.3121L131.438 42.2591L132.218 40.3121C132.59 39.3871 133.146 38.547 133.851 37.8421C134.556 37.1371 135.397 36.5819 136.322 36.2097L138.257 35.4363L136.322 34.6629Z" fill="#2A2A2A"/>
</svg>
