<svg width="40" height="40" viewBox="0 0 40 40" fill="none" xmlns="http://www.w3.org/2000/svg">
<mask id="path-1-outside-1_275_1120" maskUnits="userSpaceOnUse" x="9.58619" y="9.86041" width="20.8223" height="20.1781" fill="black">
<rect fill="white" x="9.58619" y="9.86041" width="20.8223" height="20.1781"/>
<path d="M13.33 28.3357C13.1739 28.2656 13.0335 28.2354 12.9087 28.2449C12.7799 28.2035 12.6355 28.1222 12.4755 28.0012C12.4051 27.74 12.3153 27.5521 12.206 27.4374C12.2527 27.3928 12.2898 27.3849 12.3171 27.4136C12.3405 27.3913 12.3639 27.369 12.3873 27.3467C12.4808 27.2575 12.4553 27.0903 12.3108 26.8451C12.186 26.8546 12.1236 26.8594 12.1236 26.8594C12.069 26.802 12.026 26.7336 11.9947 26.6539C11.9869 26.552 11.9556 26.4724 11.9009 26.4151L12.1114 26.2145C11.9748 26.0711 11.9376 25.9151 11.9999 25.7463C12.0348 25.5488 12.0991 25.4055 12.1926 25.3164C12.3408 25.2846 12.4266 25.2575 12.45 25.2352C12.5201 25.1683 12.598 25.0394 12.6837 24.8483L12.8066 24.9773L12.8303 25.2831L13.0407 25.0824C13.0329 24.9805 13.064 24.8961 13.1342 24.8293C13.2043 24.7624 13.2628 24.7067 13.3095 24.6621C13.411 24.6749 13.489 24.7099 13.5436 24.7672C13.5944 24.7736 13.6821 24.772 13.8069 24.7625L13.7249 24.6765C13.7365 24.5014 13.7657 24.3915 13.8124 24.3469C13.8826 24.28 13.9761 24.1909 14.0931 24.0794C14.1671 24.0635 14.2393 24.0221 14.3094 23.9553C14.3796 23.8884 14.438 23.8327 14.4848 23.7881L14.4966 23.941L14.5376 23.984C14.5416 24.0349 14.5669 24.0381 14.6137 23.9935C14.6604 23.949 14.6955 23.9155 14.7189 23.8932L14.5841 23.6114L15.3503 23.2914C15.3971 23.2469 15.4672 23.18 15.5607 23.0908C15.627 22.973 15.7068 22.8695 15.8004 22.7804C15.9641 22.6243 16.118 22.5049 16.2623 22.4222C16.4065 22.3394 16.508 22.3521 16.5665 22.4604L16.4026 22.2884C16.4454 22.1929 16.4902 22.1228 16.537 22.0783C16.5798 21.9827 16.6363 21.9015 16.7065 21.8346C16.8234 21.7232 16.9423 21.6372 17.0631 21.5767C17.1567 21.4876 17.2639 21.4128 17.3847 21.3523C17.4394 21.4096 17.5447 21.4733 17.7008 21.5434C17.7436 21.4479 17.7904 21.4033 17.8411 21.4097C17.8879 21.3651 17.9347 21.3205 17.9814 21.2759C17.9502 21.1963 17.9209 21.1422 17.8935 21.1135C17.8389 21.0562 17.8096 21.002 17.8057 20.9511L18.1217 21.1422C18.2384 20.7027 18.4604 20.327 18.7878 20.0149C19.0217 19.792 19.2692 19.5835 19.5303 19.3893C19.7915 19.195 20.039 18.9865 20.2729 18.7636C20.3898 18.6521 20.495 18.5518 20.5885 18.4627C20.6781 18.3226 20.7561 18.1936 20.8223 18.0758C20.9003 18.1108 20.953 18.1427 20.9803 18.1713C21.0076 18.2 21.0603 18.2319 21.1383 18.2669C20.9899 17.9707 21.0092 17.7334 21.1963 17.5551C21.2898 17.466 21.397 17.3912 21.5179 17.3307C21.6388 17.2702 21.746 17.1954 21.8395 17.1062C22.0733 16.8833 22.2858 16.7082 22.4768 16.5808C22.6405 16.4248 22.8412 16.2608 23.079 16.0889L23.1492 16.022C23.2193 15.9552 23.2407 15.9074 23.2134 15.8787C23.1821 15.7991 23.1879 15.7115 23.2307 15.616C23.2502 15.5427 23.3184 15.4504 23.4353 15.3389C23.6224 15.1606 23.8154 15.0587 24.0142 15.0333C24.2092 14.9569 24.4159 14.8694 24.6342 14.7707L24.3063 14.4267C24.7974 13.9586 25.2884 13.4905 25.7795 13.0224C26.2433 12.5257 26.7207 12.0433 27.2118 11.5752L27.2527 11.6182L27.1826 11.6851C27.1905 11.787 27.1691 11.8348 27.1183 11.8284C27.091 11.7997 27.1086 11.865 27.1712 12.0243C27.2416 12.2854 27.3314 12.4733 27.4407 12.588C27.55 12.7027 27.5911 12.9097 27.5641 13.2091C27.5057 13.4288 27.3947 13.6167 27.231 13.7727C27.0907 13.9064 26.9777 14.0688 26.8921 14.2599L26.459 14.0162L26.3888 14.0831C26.4981 14.1977 26.5644 14.2439 26.5878 14.2216C26.6346 14.1771 26.6268 14.2392 26.5646 14.408C26.5257 14.5544 26.4321 14.6436 26.284 14.6754C26.1592 14.685 26.0773 14.763 26.0384 14.9095L26.2024 15.0815C26.144 15.3012 26.0447 15.4779 25.9044 15.6117C25.7407 15.7677 25.538 15.9062 25.2963 16.0272C25.0506 16.0972 24.8733 16.2389 24.7642 16.4522C24.6746 16.5924 24.5987 16.7468 24.5364 16.9156C24.4702 17.0334 24.3669 17.1592 24.2266 17.2929C24.1173 17.1783 24.0764 17.1353 24.1037 17.1639C24.1271 17.1416 24.0666 17.1719 23.9224 17.2547C23.9928 17.5158 23.8974 17.7435 23.6362 17.9377C23.3711 18.081 23.1704 18.245 23.034 18.4297C22.6055 19.057 22.1106 19.6381 21.5494 20.1731C20.9881 20.708 20.4425 21.2828 19.9126 21.8973L19.9358 21.711C19.9553 21.6378 19.9299 21.6346 19.8598 21.7014C19.7623 21.7396 19.7019 21.7699 19.6785 21.7922C19.663 21.9164 19.587 22.0708 19.4507 22.2555C19.3143 22.4402 19.1526 22.6217 18.9655 22.8C18.6381 23.1121 18.3536 23.3286 18.1118 23.4496L18.1938 23.5356L18.381 23.5213L17.9601 23.9225C17.7494 23.795 17.609 23.7648 17.5388 23.8316C17.492 23.8762 17.4746 23.9749 17.4864 24.1278C17.4709 24.252 17.4417 24.3619 17.3989 24.4574C17.3327 24.5752 17.2859 24.6198 17.2586 24.5911C17.2039 24.5338 17.1259 24.4988 17.0245 24.486C16.9816 24.5815 16.9739 24.6436 17.0012 24.6723C17.0285 24.701 16.9974 24.7854 16.9078 24.9255C16.7712 24.7821 16.6815 24.7582 16.6386 24.8538C16.5685 24.9206 16.4866 24.9987 16.3931 25.0878C16.4283 25.2184 16.2608 25.4875 15.8906 25.8951C15.5164 26.2517 15.2709 26.4857 15.154 26.5972C14.994 26.4761 14.8458 26.5079 14.7094 26.6926C14.5691 26.8264 14.4522 26.9378 14.3586 27.027C14.3705 27.1798 14.3413 27.2897 14.2711 27.3566C14.1776 27.4457 14.0665 27.4696 13.9377 27.4282C13.7816 27.3581 13.6608 27.4186 13.5751 27.6096C13.5323 27.7052 13.5402 27.8071 13.5988 27.9154C13.6534 27.9727 13.5638 28.1128 13.33 28.3357Z"/>
</mask>
<path d="M13.33 28.3357C13.1739 28.2656 13.0335 28.2354 12.9087 28.2449C12.7799 28.2035 12.6355 28.1222 12.4755 28.0012C12.4051 27.74 12.3153 27.5521 12.206 27.4374C12.2527 27.3928 12.2898 27.3849 12.3171 27.4136C12.3405 27.3913 12.3639 27.369 12.3873 27.3467C12.4808 27.2575 12.4553 27.0903 12.3108 26.8451C12.186 26.8546 12.1236 26.8594 12.1236 26.8594C12.069 26.802 12.026 26.7336 11.9947 26.6539C11.9869 26.552 11.9556 26.4724 11.9009 26.4151L12.1114 26.2145C11.9748 26.0711 11.9376 25.9151 11.9999 25.7463C12.0348 25.5488 12.0991 25.4055 12.1926 25.3164C12.3408 25.2846 12.4266 25.2575 12.45 25.2352C12.5201 25.1683 12.598 25.0394 12.6837 24.8483L12.8066 24.9773L12.8303 25.2831L13.0407 25.0824C13.0329 24.9805 13.064 24.8961 13.1342 24.8293C13.2043 24.7624 13.2628 24.7067 13.3095 24.6621C13.411 24.6749 13.489 24.7099 13.5436 24.7672C13.5944 24.7736 13.6821 24.772 13.8069 24.7625L13.7249 24.6765C13.7365 24.5014 13.7657 24.3915 13.8124 24.3469C13.8826 24.28 13.9761 24.1909 14.0931 24.0794C14.1671 24.0635 14.2393 24.0221 14.3094 23.9553C14.3796 23.8884 14.438 23.8327 14.4848 23.7881L14.4966 23.941L14.5376 23.984C14.5416 24.0349 14.5669 24.0381 14.6137 23.9935C14.6604 23.949 14.6955 23.9155 14.7189 23.8932L14.5841 23.6114L15.3503 23.2914C15.3971 23.2469 15.4672 23.18 15.5607 23.0908C15.627 22.973 15.7068 22.8695 15.8004 22.7804C15.9641 22.6243 16.118 22.5049 16.2623 22.4222C16.4065 22.3394 16.508 22.3521 16.5665 22.4604L16.4026 22.2884C16.4454 22.1929 16.4902 22.1228 16.537 22.0783C16.5798 21.9827 16.6363 21.9015 16.7065 21.8346C16.8234 21.7232 16.9423 21.6372 17.0631 21.5767C17.1567 21.4876 17.2639 21.4128 17.3847 21.3523C17.4394 21.4096 17.5447 21.4733 17.7008 21.5434C17.7436 21.4479 17.7904 21.4033 17.8411 21.4097C17.8879 21.3651 17.9347 21.3205 17.9814 21.2759C17.9502 21.1963 17.9209 21.1422 17.8935 21.1135C17.8389 21.0562 17.8096 21.002 17.8057 20.9511L18.1217 21.1422C18.2384 20.7027 18.4604 20.327 18.7878 20.0149C19.0217 19.792 19.2692 19.5835 19.5303 19.3893C19.7915 19.195 20.039 18.9865 20.2729 18.7636C20.3898 18.6521 20.495 18.5518 20.5885 18.4627C20.6781 18.3226 20.7561 18.1936 20.8223 18.0758C20.9003 18.1108 20.953 18.1427 20.9803 18.1713C21.0076 18.2 21.0603 18.2319 21.1383 18.2669C20.9899 17.9707 21.0092 17.7334 21.1963 17.5551C21.2898 17.466 21.397 17.3912 21.5179 17.3307C21.6388 17.2702 21.746 17.1954 21.8395 17.1062C22.0733 16.8833 22.2858 16.7082 22.4768 16.5808C22.6405 16.4248 22.8412 16.2608 23.079 16.0889L23.1492 16.022C23.2193 15.9552 23.2407 15.9074 23.2134 15.8787C23.1821 15.7991 23.1879 15.7115 23.2307 15.616C23.2502 15.5427 23.3184 15.4504 23.4353 15.3389C23.6224 15.1606 23.8154 15.0587 24.0142 15.0333C24.2092 14.9569 24.4159 14.8694 24.6342 14.7707L24.3063 14.4267C24.7974 13.9586 25.2884 13.4905 25.7795 13.0224C26.2433 12.5257 26.7207 12.0433 27.2118 11.5752L27.2527 11.6182L27.1826 11.6851C27.1905 11.787 27.1691 11.8348 27.1183 11.8284C27.091 11.7997 27.1086 11.865 27.1712 12.0243C27.2416 12.2854 27.3314 12.4733 27.4407 12.588C27.55 12.7027 27.5911 12.9097 27.5641 13.2091C27.5057 13.4288 27.3947 13.6167 27.231 13.7727C27.0907 13.9064 26.9777 14.0688 26.8921 14.2599L26.459 14.0162L26.3888 14.0831C26.4981 14.1977 26.5644 14.2439 26.5878 14.2216C26.6346 14.1771 26.6268 14.2392 26.5646 14.408C26.5257 14.5544 26.4321 14.6436 26.284 14.6754C26.1592 14.685 26.0773 14.763 26.0384 14.9095L26.2024 15.0815C26.144 15.3012 26.0447 15.4779 25.9044 15.6117C25.7407 15.7677 25.538 15.9062 25.2963 16.0272C25.0506 16.0972 24.8733 16.2389 24.7642 16.4522C24.6746 16.5924 24.5987 16.7468 24.5364 16.9156C24.4702 17.0334 24.3669 17.1592 24.2266 17.2929C24.1173 17.1783 24.0764 17.1353 24.1037 17.1639C24.1271 17.1416 24.0666 17.1719 23.9224 17.2547C23.9928 17.5158 23.8974 17.7435 23.6362 17.9377C23.3711 18.081 23.1704 18.245 23.034 18.4297C22.6055 19.057 22.1106 19.6381 21.5494 20.1731C20.9881 20.708 20.4425 21.2828 19.9126 21.8973L19.9358 21.711C19.9553 21.6378 19.9299 21.6346 19.8598 21.7014C19.7623 21.7396 19.7019 21.7699 19.6785 21.7922C19.663 21.9164 19.587 22.0708 19.4507 22.2555C19.3143 22.4402 19.1526 22.6217 18.9655 22.8C18.6381 23.1121 18.3536 23.3286 18.1118 23.4496L18.1938 23.5356L18.381 23.5213L17.9601 23.9225C17.7494 23.795 17.609 23.7648 17.5388 23.8316C17.492 23.8762 17.4746 23.9749 17.4864 24.1278C17.4709 24.252 17.4417 24.3619 17.3989 24.4574C17.3327 24.5752 17.2859 24.6198 17.2586 24.5911C17.2039 24.5338 17.1259 24.4988 17.0245 24.486C16.9816 24.5815 16.9739 24.6436 17.0012 24.6723C17.0285 24.701 16.9974 24.7854 16.9078 24.9255C16.7712 24.7821 16.6815 24.7582 16.6386 24.8538C16.5685 24.9206 16.4866 24.9987 16.3931 25.0878C16.4283 25.2184 16.2608 25.4875 15.8906 25.8951C15.5164 26.2517 15.2709 26.4857 15.154 26.5972C14.994 26.4761 14.8458 26.5079 14.7094 26.6926C14.5691 26.8264 14.4522 26.9378 14.3586 27.027C14.3705 27.1798 14.3413 27.2897 14.2711 27.3566C14.1776 27.4457 14.0665 27.4696 13.9377 27.4282C13.7816 27.3581 13.6608 27.4186 13.5751 27.6096C13.5323 27.7052 13.5402 27.8071 13.5988 27.9154C13.6534 27.9727 13.5638 28.1128 13.33 28.3357Z" fill="#A8A8A8"/>
<path d="M13.33 28.3357C13.1739 28.2656 13.0335 28.2354 12.9087 28.2449C12.7799 28.2035 12.6355 28.1222 12.4755 28.0012C12.4051 27.74 12.3153 27.5521 12.206 27.4374C12.2527 27.3928 12.2898 27.3849 12.3171 27.4136C12.3405 27.3913 12.3639 27.369 12.3873 27.3467C12.4808 27.2575 12.4553 27.0903 12.3108 26.8451C12.186 26.8546 12.1236 26.8594 12.1236 26.8594C12.069 26.802 12.026 26.7336 11.9947 26.6539C11.9869 26.552 11.9556 26.4724 11.9009 26.4151L12.1114 26.2145C11.9748 26.0711 11.9376 25.9151 11.9999 25.7463C12.0348 25.5488 12.0991 25.4055 12.1926 25.3164C12.3408 25.2846 12.4266 25.2575 12.45 25.2352C12.5201 25.1683 12.598 25.0394 12.6837 24.8483L12.8066 24.9773L12.8303 25.2831L13.0407 25.0824C13.0329 24.9805 13.064 24.8961 13.1342 24.8293C13.2043 24.7624 13.2628 24.7067 13.3095 24.6621C13.411 24.6749 13.489 24.7099 13.5436 24.7672C13.5944 24.7736 13.6821 24.772 13.8069 24.7625L13.7249 24.6765C13.7365 24.5014 13.7657 24.3915 13.8124 24.3469C13.8826 24.28 13.9761 24.1909 14.0931 24.0794C14.1671 24.0635 14.2393 24.0221 14.3094 23.9553C14.3796 23.8884 14.438 23.8327 14.4848 23.7881L14.4966 23.941L14.5376 23.984C14.5416 24.0349 14.5669 24.0381 14.6137 23.9935C14.6604 23.949 14.6955 23.9155 14.7189 23.8932L14.5841 23.6114L15.3503 23.2914C15.3971 23.2469 15.4672 23.18 15.5607 23.0908C15.627 22.973 15.7068 22.8695 15.8004 22.7804C15.9641 22.6243 16.118 22.5049 16.2623 22.4222C16.4065 22.3394 16.508 22.3521 16.5665 22.4604L16.4026 22.2884C16.4454 22.1929 16.4902 22.1228 16.537 22.0783C16.5798 21.9827 16.6363 21.9015 16.7065 21.8346C16.8234 21.7232 16.9423 21.6372 17.0631 21.5767C17.1567 21.4876 17.2639 21.4128 17.3847 21.3523C17.4394 21.4096 17.5447 21.4733 17.7008 21.5434C17.7436 21.4479 17.7904 21.4033 17.8411 21.4097C17.8879 21.3651 17.9347 21.3205 17.9814 21.2759C17.9502 21.1963 17.9209 21.1422 17.8935 21.1135C17.8389 21.0562 17.8096 21.002 17.8057 20.9511L18.1217 21.1422C18.2384 20.7027 18.4604 20.327 18.7878 20.0149C19.0217 19.792 19.2692 19.5835 19.5303 19.3893C19.7915 19.195 20.039 18.9865 20.2729 18.7636C20.3898 18.6521 20.495 18.5518 20.5885 18.4627C20.6781 18.3226 20.7561 18.1936 20.8223 18.0758C20.9003 18.1108 20.953 18.1427 20.9803 18.1713C21.0076 18.2 21.0603 18.2319 21.1383 18.2669C20.9899 17.9707 21.0092 17.7334 21.1963 17.5551C21.2898 17.466 21.397 17.3912 21.5179 17.3307C21.6388 17.2702 21.746 17.1954 21.8395 17.1062C22.0733 16.8833 22.2858 16.7082 22.4768 16.5808C22.6405 16.4248 22.8412 16.2608 23.079 16.0889L23.1492 16.022C23.2193 15.9552 23.2407 15.9074 23.2134 15.8787C23.1821 15.7991 23.1879 15.7115 23.2307 15.616C23.2502 15.5427 23.3184 15.4504 23.4353 15.3389C23.6224 15.1606 23.8154 15.0587 24.0142 15.0333C24.2092 14.9569 24.4159 14.8694 24.6342 14.7707L24.3063 14.4267C24.7974 13.9586 25.2884 13.4905 25.7795 13.0224C26.2433 12.5257 26.7207 12.0433 27.2118 11.5752L27.2527 11.6182L27.1826 11.6851C27.1905 11.787 27.1691 11.8348 27.1183 11.8284C27.091 11.7997 27.1086 11.865 27.1712 12.0243C27.2416 12.2854 27.3314 12.4733 27.4407 12.588C27.55 12.7027 27.5911 12.9097 27.5641 13.2091C27.5057 13.4288 27.3947 13.6167 27.231 13.7727C27.0907 13.9064 26.9777 14.0688 26.8921 14.2599L26.459 14.0162L26.3888 14.0831C26.4981 14.1977 26.5644 14.2439 26.5878 14.2216C26.6346 14.1771 26.6268 14.2392 26.5646 14.408C26.5257 14.5544 26.4321 14.6436 26.284 14.6754C26.1592 14.685 26.0773 14.763 26.0384 14.9095L26.2024 15.0815C26.144 15.3012 26.0447 15.4779 25.9044 15.6117C25.7407 15.7677 25.538 15.9062 25.2963 16.0272C25.0506 16.0972 24.8733 16.2389 24.7642 16.4522C24.6746 16.5924 24.5987 16.7468 24.5364 16.9156C24.4702 17.0334 24.3669 17.1592 24.2266 17.2929C24.1173 17.1783 24.0764 17.1353 24.1037 17.1639C24.1271 17.1416 24.0666 17.1719 23.9224 17.2547C23.9928 17.5158 23.8974 17.7435 23.6362 17.9377C23.3711 18.081 23.1704 18.245 23.034 18.4297C22.6055 19.057 22.1106 19.6381 21.5494 20.1731C20.9881 20.708 20.4425 21.2828 19.9126 21.8973L19.9358 21.711C19.9553 21.6378 19.9299 21.6346 19.8598 21.7014C19.7623 21.7396 19.7019 21.7699 19.6785 21.7922C19.663 21.9164 19.587 22.0708 19.4507 22.2555C19.3143 22.4402 19.1526 22.6217 18.9655 22.8C18.6381 23.1121 18.3536 23.3286 18.1118 23.4496L18.1938 23.5356L18.381 23.5213L17.9601 23.9225C17.7494 23.795 17.609 23.7648 17.5388 23.8316C17.492 23.8762 17.4746 23.9749 17.4864 24.1278C17.4709 24.252 17.4417 24.3619 17.3989 24.4574C17.3327 24.5752 17.2859 24.6198 17.2586 24.5911C17.2039 24.5338 17.1259 24.4988 17.0245 24.486C16.9816 24.5815 16.9739 24.6436 17.0012 24.6723C17.0285 24.701 16.9974 24.7854 16.9078 24.9255C16.7712 24.7821 16.6815 24.7582 16.6386 24.8538C16.5685 24.9206 16.4866 24.9987 16.3931 25.0878C16.4283 25.2184 16.2608 25.4875 15.8906 25.8951C15.5164 26.2517 15.2709 26.4857 15.154 26.5972C14.994 26.4761 14.8458 26.5079 14.7094 26.6926C14.5691 26.8264 14.4522 26.9378 14.3586 27.027C14.3705 27.1798 14.3413 27.2897 14.2711 27.3566C14.1776 27.4457 14.0665 27.4696 13.9377 27.4282C13.7816 27.3581 13.6608 27.4186 13.5751 27.6096C13.5323 27.7052 13.5402 27.8071 13.5988 27.9154C13.6534 27.9727 13.5638 28.1128 13.33 28.3357Z" stroke="#A8A8A8" stroke-width="0.8" mask="url(#path-1-outside-1_275_1120)"/>
<mask id="path-2-outside-2_275_1120" maskUnits="userSpaceOnUse" x="10.3241" y="9.59109" width="19.2668" height="21.5916" fill="black">
<rect fill="white" x="10.3241" y="9.59109" width="19.2668" height="21.5916"/>
<path d="M12.0051 13.2075C12.0848 13.0562 12.1239 12.9179 12.1222 12.7927C12.1716 12.6668 12.2617 12.5278 12.3925 12.3757C12.6576 12.3218 12.8507 12.2439 12.972 12.142C13.0136 12.1914 13.0192 12.2289 12.9889 12.2544C13.0097 12.2791 13.0305 12.3039 13.0512 12.3286C13.1344 12.4275 13.3028 12.4126 13.5566 12.2837C13.5549 12.1586 13.5541 12.096 13.5541 12.096C13.6147 12.045 13.6858 12.0064 13.7672 11.9802C13.8694 11.9787 13.9508 11.9525 14.0115 11.9016L14.1985 12.1242C14.3501 11.9968 14.5082 11.9695 14.6728 12.0422C14.8676 12.0894 15.0066 12.1625 15.0898 12.2614C15.1122 12.4113 15.1339 12.4986 15.1546 12.5234C15.217 12.5976 15.3408 12.6834 15.5262 12.7809L15.3897 12.8955L15.0831 12.9L15.2701 13.1226C15.3723 13.1211 15.4546 13.1574 15.5169 13.2316C15.5793 13.3058 15.6312 13.3677 15.6728 13.4171C15.6537 13.5176 15.6139 13.5933 15.5532 13.6442C15.5437 13.6944 15.5398 13.7821 15.5415 13.9073L15.6324 13.8308C15.8065 13.8533 15.9143 13.8893 15.9559 13.9388C16.0182 14.013 16.1014 14.1119 16.2053 14.2356C16.2165 14.3105 16.2533 14.3851 16.3157 14.4593C16.378 14.5335 16.43 14.5954 16.4715 14.6448L16.3182 14.6471L16.2727 14.6853C16.2216 14.686 16.2168 14.7111 16.2584 14.7606C16.3 14.8101 16.3311 14.8472 16.3519 14.8719L16.6417 14.755L16.913 15.5397C16.9546 15.5892 17.0169 15.6634 17.1001 15.7623C17.2135 15.8358 17.3118 15.922 17.3949 16.0209C17.5404 16.1941 17.6499 16.3552 17.7235 16.5043C17.7971 16.6535 17.778 16.7539 17.6662 16.8056L17.8482 16.6527C17.9408 16.7015 18.008 16.7506 18.0495 16.8C18.1422 16.8488 18.2197 16.9102 18.282 16.9844C18.3859 17.1081 18.4643 17.2321 18.5171 17.3566C18.6002 17.4555 18.6682 17.5672 18.721 17.6916C18.6603 17.7425 18.5902 17.8437 18.5104 17.9951C18.6031 18.0438 18.6447 18.0933 18.6351 18.1435C18.6767 18.1929 18.7183 18.2424 18.7598 18.2919C18.8412 18.2657 18.8971 18.2398 18.9274 18.2143C18.9881 18.1634 19.044 18.1375 19.0951 18.1368L18.8845 18.4403C19.3158 18.5842 19.6769 18.8294 19.9679 19.1756C20.1757 19.423 20.3683 19.6831 20.5458 19.9559C20.7233 20.2287 20.916 20.4888 21.1238 20.7361C21.2277 20.8598 21.3212 20.9711 21.4043 21.07C21.5386 21.1682 21.6624 21.254 21.7758 21.3275C21.736 21.4032 21.7009 21.4538 21.6706 21.4793C21.6402 21.5047 21.6052 21.5553 21.5653 21.631C21.8702 21.5014 22.1058 21.5355 22.272 21.7334C22.3552 21.8323 22.4231 21.944 22.4759 22.0684C22.5287 22.1928 22.5967 22.3045 22.6798 22.4034C22.8876 22.6508 23.0491 22.8738 23.1643 23.0724C23.3097 23.2455 23.4608 23.4561 23.6175 23.7042L23.6799 23.7784C23.7422 23.8526 23.7886 23.877 23.8189 23.8515C23.9003 23.8253 23.9874 23.8365 24.08 23.8853C24.1519 23.9093 24.2398 23.9831 24.3437 24.1068C24.51 24.3046 24.5996 24.5036 24.6125 24.7037C24.6765 24.9031 24.751 25.1148 24.8358 25.3389L25.1997 25.0332C25.6361 25.5526 26.0725 26.072 26.5089 26.5914C26.9756 27.0854 27.4272 27.5921 27.8636 28.1115L27.8181 28.1497L27.7558 28.0755C27.6536 28.077 27.6072 28.0526 27.6168 28.0024C27.6471 27.9769 27.5808 27.9904 27.418 28.0428C27.1529 28.0968 26.9597 28.1747 26.8384 28.2766C26.7172 28.3785 26.508 28.4066 26.2109 28.3608C25.9952 28.2888 25.8147 28.1663 25.6692 27.9931C25.5445 27.8447 25.3895 27.7218 25.2042 27.6243L25.4745 27.2073L25.4122 27.1331C25.2909 27.235 25.2406 27.2983 25.2614 27.3231C25.303 27.3725 25.2415 27.3609 25.0769 27.2882C24.9332 27.2402 24.85 27.1413 24.8276 26.9914C24.8259 26.8662 24.7531 26.7797 24.6094 26.7317L24.4274 26.8845C24.2118 26.8126 24.0416 26.7024 23.9169 26.554C23.7714 26.3808 23.6459 26.1698 23.5403 25.921C23.4858 25.6714 23.3555 25.4856 23.1494 25.3634C23.0151 25.2652 22.8658 25.1797 22.7012 25.107C22.5878 25.0336 22.4687 24.9226 22.344 24.7742C22.4653 24.6723 22.5108 24.6341 22.4805 24.6596C22.5012 24.6843 22.4748 24.6221 22.4013 24.473C22.1362 24.5269 21.9149 24.4174 21.7374 24.1446C21.611 23.871 21.46 23.6604 21.2842 23.5128C20.6849 23.0458 20.1359 22.5155 19.6371 21.9219C19.1384 21.3283 18.5989 20.7477 18.0188 20.1803L18.2032 20.2152C18.2751 20.2392 18.2799 20.2141 18.2175 20.1399C18.1855 20.0402 18.1591 19.978 18.1383 19.9533C18.0154 19.93 17.866 19.8446 17.6902 19.6969C17.5144 19.5492 17.3434 19.3765 17.1771 19.1786C16.8862 18.8323 16.6879 18.5348 16.5823 18.2859L16.4913 18.3624L16.4939 18.5501L16.1198 18.1049C16.2602 17.9026 16.2992 17.7643 16.2369 17.6901C16.1953 17.6406 16.0979 17.617 15.9445 17.6192C15.8216 17.596 15.7137 17.56 15.6211 17.5113C15.5076 17.4378 15.4661 17.3883 15.4964 17.3629C15.557 17.3119 15.5969 17.2362 15.616 17.1358C15.5233 17.0871 15.4618 17.0755 15.4315 17.1009C15.4012 17.1264 15.3189 17.0901 15.1847 16.9919C15.3363 16.8645 15.3657 16.7764 15.2731 16.7277C15.2107 16.6535 15.138 16.5669 15.0549 16.468C14.9223 16.4949 14.6643 16.3109 14.2807 15.9159C13.9482 15.5202 13.73 15.2605 13.6261 15.1368C13.7569 14.9847 13.7344 14.8348 13.5586 14.6871C13.4339 14.5387 13.33 14.4151 13.2469 14.3161C13.0936 14.3183 12.9858 14.2824 12.9234 14.2081C12.8403 14.1092 12.8234 13.9968 12.8728 13.8709C12.9526 13.7195 12.8998 13.5951 12.7144 13.4977C12.6218 13.4489 12.5196 13.4504 12.4078 13.5021C12.3472 13.5531 12.2129 13.4549 12.0051 13.2075Z"/>
</mask>
<path d="M12.0051 13.2075C12.0848 13.0562 12.1239 12.9179 12.1222 12.7927C12.1716 12.6668 12.2617 12.5278 12.3925 12.3757C12.6576 12.3218 12.8507 12.2439 12.972 12.142C13.0136 12.1914 13.0192 12.2289 12.9889 12.2544C13.0097 12.2791 13.0305 12.3039 13.0512 12.3286C13.1344 12.4275 13.3028 12.4126 13.5566 12.2837C13.5549 12.1586 13.5541 12.096 13.5541 12.096C13.6147 12.045 13.6858 12.0064 13.7672 11.9802C13.8694 11.9787 13.9508 11.9525 14.0115 11.9016L14.1985 12.1242C14.3501 11.9968 14.5082 11.9695 14.6728 12.0422C14.8676 12.0894 15.0066 12.1625 15.0898 12.2614C15.1122 12.4113 15.1339 12.4986 15.1546 12.5234C15.217 12.5976 15.3408 12.6834 15.5262 12.7809L15.3897 12.8955L15.0831 12.9L15.2701 13.1226C15.3723 13.1211 15.4546 13.1574 15.5169 13.2316C15.5793 13.3058 15.6312 13.3677 15.6728 13.4171C15.6537 13.5176 15.6139 13.5933 15.5532 13.6442C15.5437 13.6944 15.5398 13.7821 15.5415 13.9073L15.6324 13.8308C15.8065 13.8533 15.9143 13.8893 15.9559 13.9388C16.0182 14.013 16.1014 14.1119 16.2053 14.2356C16.2165 14.3105 16.2533 14.3851 16.3157 14.4593C16.378 14.5335 16.43 14.5954 16.4715 14.6448L16.3182 14.6471L16.2727 14.6853C16.2216 14.686 16.2168 14.7111 16.2584 14.7606C16.3 14.8101 16.3311 14.8472 16.3519 14.8719L16.6417 14.755L16.913 15.5397C16.9546 15.5892 17.0169 15.6634 17.1001 15.7623C17.2135 15.8358 17.3118 15.922 17.3949 16.0209C17.5404 16.1941 17.6499 16.3552 17.7235 16.5043C17.7971 16.6535 17.778 16.7539 17.6662 16.8056L17.8482 16.6527C17.9408 16.7015 18.008 16.7506 18.0495 16.8C18.1422 16.8488 18.2197 16.9102 18.282 16.9844C18.3859 17.1081 18.4643 17.2321 18.5171 17.3566C18.6002 17.4555 18.6682 17.5672 18.721 17.6916C18.6603 17.7425 18.5902 17.8437 18.5104 17.9951C18.6031 18.0438 18.6447 18.0933 18.6351 18.1435C18.6767 18.1929 18.7183 18.2424 18.7598 18.2919C18.8412 18.2657 18.8971 18.2398 18.9274 18.2143C18.9881 18.1634 19.044 18.1375 19.0951 18.1368L18.8845 18.4403C19.3158 18.5842 19.6769 18.8294 19.9679 19.1756C20.1757 19.423 20.3683 19.6831 20.5458 19.9559C20.7233 20.2287 20.916 20.4888 21.1238 20.7361C21.2277 20.8598 21.3212 20.9711 21.4043 21.07C21.5386 21.1682 21.6624 21.254 21.7758 21.3275C21.736 21.4032 21.7009 21.4538 21.6706 21.4793C21.6402 21.5047 21.6052 21.5553 21.5653 21.631C21.8702 21.5014 22.1058 21.5355 22.272 21.7334C22.3552 21.8323 22.4231 21.944 22.4759 22.0684C22.5287 22.1928 22.5967 22.3045 22.6798 22.4034C22.8876 22.6508 23.0491 22.8738 23.1643 23.0724C23.3097 23.2455 23.4608 23.4561 23.6175 23.7042L23.6799 23.7784C23.7422 23.8526 23.7886 23.877 23.8189 23.8515C23.9003 23.8253 23.9874 23.8365 24.08 23.8853C24.1519 23.9093 24.2398 23.9831 24.3437 24.1068C24.51 24.3046 24.5996 24.5036 24.6125 24.7037C24.6765 24.9031 24.751 25.1148 24.8358 25.3389L25.1997 25.0332C25.6361 25.5526 26.0725 26.072 26.5089 26.5914C26.9756 27.0854 27.4272 27.5921 27.8636 28.1115L27.8181 28.1497L27.7558 28.0755C27.6536 28.077 27.6072 28.0526 27.6168 28.0024C27.6471 27.9769 27.5808 27.9904 27.418 28.0428C27.1529 28.0968 26.9597 28.1747 26.8384 28.2766C26.7172 28.3785 26.508 28.4066 26.2109 28.3608C25.9952 28.2888 25.8147 28.1663 25.6692 27.9931C25.5445 27.8447 25.3895 27.7218 25.2042 27.6243L25.4745 27.2073L25.4122 27.1331C25.2909 27.235 25.2406 27.2983 25.2614 27.3231C25.303 27.3725 25.2415 27.3609 25.0769 27.2882C24.9332 27.2402 24.85 27.1413 24.8276 26.9914C24.8259 26.8662 24.7531 26.7797 24.6094 26.7317L24.4274 26.8845C24.2118 26.8126 24.0416 26.7024 23.9169 26.554C23.7714 26.3808 23.6459 26.1698 23.5403 25.921C23.4858 25.6714 23.3555 25.4856 23.1494 25.3634C23.0151 25.2652 22.8658 25.1797 22.7012 25.107C22.5878 25.0336 22.4687 24.9226 22.344 24.7742C22.4653 24.6723 22.5108 24.6341 22.4805 24.6596C22.5012 24.6843 22.4748 24.6221 22.4013 24.473C22.1362 24.5269 21.9149 24.4174 21.7374 24.1446C21.611 23.871 21.46 23.6604 21.2842 23.5128C20.6849 23.0458 20.1359 22.5155 19.6371 21.9219C19.1384 21.3283 18.5989 20.7477 18.0188 20.1803L18.2032 20.2152C18.2751 20.2392 18.2799 20.2141 18.2175 20.1399C18.1855 20.0402 18.1591 19.978 18.1383 19.9533C18.0154 19.93 17.866 19.8446 17.6902 19.6969C17.5144 19.5492 17.3434 19.3765 17.1771 19.1786C16.8862 18.8323 16.6879 18.5348 16.5823 18.2859L16.4913 18.3624L16.4939 18.5501L16.1198 18.1049C16.2602 17.9026 16.2992 17.7643 16.2369 17.6901C16.1953 17.6406 16.0979 17.617 15.9445 17.6192C15.8216 17.596 15.7137 17.56 15.6211 17.5113C15.5076 17.4378 15.4661 17.3883 15.4964 17.3629C15.557 17.3119 15.5969 17.2362 15.616 17.1358C15.5233 17.0871 15.4618 17.0755 15.4315 17.1009C15.4012 17.1264 15.3189 17.0901 15.1847 16.9919C15.3363 16.8645 15.3657 16.7764 15.2731 16.7277C15.2107 16.6535 15.138 16.5669 15.0549 16.468C14.9223 16.4949 14.6643 16.3109 14.2807 15.9159C13.9482 15.5202 13.73 15.2605 13.6261 15.1368C13.7569 14.9847 13.7344 14.8348 13.5586 14.6871C13.4339 14.5387 13.33 14.4151 13.2469 14.3161C13.0936 14.3183 12.9858 14.2824 12.9234 14.2081C12.8403 14.1092 12.8234 13.9968 12.8728 13.8709C12.9526 13.7195 12.8998 13.5951 12.7144 13.4977C12.6218 13.4489 12.5196 13.4504 12.4078 13.5021C12.3472 13.5531 12.2129 13.4549 12.0051 13.2075Z" fill="#A8A8A8"/>
<path d="M12.0051 13.2075C12.0848 13.0562 12.1239 12.9179 12.1222 12.7927C12.1716 12.6668 12.2617 12.5278 12.3925 12.3757C12.6576 12.3218 12.8507 12.2439 12.972 12.142C13.0136 12.1914 13.0192 12.2289 12.9889 12.2544C13.0097 12.2791 13.0305 12.3039 13.0512 12.3286C13.1344 12.4275 13.3028 12.4126 13.5566 12.2837C13.5549 12.1586 13.5541 12.096 13.5541 12.096C13.6147 12.045 13.6858 12.0064 13.7672 11.9802C13.8694 11.9787 13.9508 11.9525 14.0115 11.9016L14.1985 12.1242C14.3501 11.9968 14.5082 11.9695 14.6728 12.0422C14.8676 12.0894 15.0066 12.1625 15.0898 12.2614C15.1122 12.4113 15.1339 12.4986 15.1546 12.5234C15.217 12.5976 15.3408 12.6834 15.5262 12.7809L15.3897 12.8955L15.0831 12.9L15.2701 13.1226C15.3723 13.1211 15.4546 13.1574 15.5169 13.2316C15.5793 13.3058 15.6312 13.3677 15.6728 13.4171C15.6537 13.5176 15.6139 13.5933 15.5532 13.6442C15.5437 13.6944 15.5398 13.7821 15.5415 13.9073L15.6324 13.8308C15.8065 13.8533 15.9143 13.8893 15.9559 13.9388C16.0182 14.013 16.1014 14.1119 16.2053 14.2356C16.2165 14.3105 16.2533 14.3851 16.3157 14.4593C16.378 14.5335 16.43 14.5954 16.4715 14.6448L16.3182 14.6471L16.2727 14.6853C16.2216 14.686 16.2168 14.7111 16.2584 14.7606C16.3 14.8101 16.3311 14.8472 16.3519 14.8719L16.6417 14.755L16.913 15.5397C16.9546 15.5892 17.0169 15.6634 17.1001 15.7623C17.2135 15.8358 17.3118 15.922 17.3949 16.0209C17.5404 16.1941 17.6499 16.3552 17.7235 16.5043C17.7971 16.6535 17.778 16.7539 17.6662 16.8056L17.8482 16.6527C17.9408 16.7015 18.008 16.7506 18.0495 16.8C18.1422 16.8488 18.2197 16.9102 18.282 16.9844C18.3859 17.1081 18.4643 17.2321 18.5171 17.3566C18.6002 17.4555 18.6682 17.5672 18.721 17.6916C18.6603 17.7425 18.5902 17.8437 18.5104 17.9951C18.6031 18.0438 18.6447 18.0933 18.6351 18.1435C18.6767 18.1929 18.7183 18.2424 18.7598 18.2919C18.8412 18.2657 18.8971 18.2398 18.9274 18.2143C18.9881 18.1634 19.044 18.1375 19.0951 18.1368L18.8845 18.4403C19.3158 18.5842 19.6769 18.8294 19.9679 19.1756C20.1757 19.423 20.3683 19.6831 20.5458 19.9559C20.7233 20.2287 20.916 20.4888 21.1238 20.7361C21.2277 20.8598 21.3212 20.9711 21.4043 21.07C21.5386 21.1682 21.6624 21.254 21.7758 21.3275C21.736 21.4032 21.7009 21.4538 21.6706 21.4793C21.6402 21.5047 21.6052 21.5553 21.5653 21.631C21.8702 21.5014 22.1058 21.5355 22.272 21.7334C22.3552 21.8323 22.4231 21.944 22.4759 22.0684C22.5287 22.1928 22.5967 22.3045 22.6798 22.4034C22.8876 22.6508 23.0491 22.8738 23.1643 23.0724C23.3097 23.2455 23.4608 23.4561 23.6175 23.7042L23.6799 23.7784C23.7422 23.8526 23.7886 23.877 23.8189 23.8515C23.9003 23.8253 23.9874 23.8365 24.08 23.8853C24.1519 23.9093 24.2398 23.9831 24.3437 24.1068C24.51 24.3046 24.5996 24.5036 24.6125 24.7037C24.6765 24.9031 24.751 25.1148 24.8358 25.3389L25.1997 25.0332C25.6361 25.5526 26.0725 26.072 26.5089 26.5914C26.9756 27.0854 27.4272 27.5921 27.8636 28.1115L27.8181 28.1497L27.7558 28.0755C27.6536 28.077 27.6072 28.0526 27.6168 28.0024C27.6471 27.9769 27.5808 27.9904 27.418 28.0428C27.1529 28.0968 26.9597 28.1747 26.8384 28.2766C26.7172 28.3785 26.508 28.4066 26.2109 28.3608C25.9952 28.2888 25.8147 28.1663 25.6692 27.9931C25.5445 27.8447 25.3895 27.7218 25.2042 27.6243L25.4745 27.2073L25.4122 27.1331C25.2909 27.235 25.2406 27.2983 25.2614 27.3231C25.303 27.3725 25.2415 27.3609 25.0769 27.2882C24.9332 27.2402 24.85 27.1413 24.8276 26.9914C24.8259 26.8662 24.7531 26.7797 24.6094 26.7317L24.4274 26.8845C24.2118 26.8126 24.0416 26.7024 23.9169 26.554C23.7714 26.3808 23.6459 26.1698 23.5403 25.921C23.4858 25.6714 23.3555 25.4856 23.1494 25.3634C23.0151 25.2652 22.8658 25.1797 22.7012 25.107C22.5878 25.0336 22.4687 24.9226 22.344 24.7742C22.4653 24.6723 22.5108 24.6341 22.4805 24.6596C22.5012 24.6843 22.4748 24.6221 22.4013 24.473C22.1362 24.5269 21.9149 24.4174 21.7374 24.1446C21.611 23.871 21.46 23.6604 21.2842 23.5128C20.6849 23.0458 20.1359 22.5155 19.6371 21.9219C19.1384 21.3283 18.5989 20.7477 18.0188 20.1803L18.2032 20.2152C18.2751 20.2392 18.2799 20.2141 18.2175 20.1399C18.1855 20.0402 18.1591 19.978 18.1383 19.9533C18.0154 19.93 17.866 19.8446 17.6902 19.6969C17.5144 19.5492 17.3434 19.3765 17.1771 19.1786C16.8862 18.8323 16.6879 18.5348 16.5823 18.2859L16.4913 18.3624L16.4939 18.5501L16.1198 18.1049C16.2602 17.9026 16.2992 17.7643 16.2369 17.6901C16.1953 17.6406 16.0979 17.617 15.9445 17.6192C15.8216 17.596 15.7137 17.56 15.6211 17.5113C15.5076 17.4378 15.4661 17.3883 15.4964 17.3629C15.557 17.3119 15.5969 17.2362 15.616 17.1358C15.5233 17.0871 15.4618 17.0755 15.4315 17.1009C15.4012 17.1264 15.3189 17.0901 15.1847 16.9919C15.3363 16.8645 15.3657 16.7764 15.2731 16.7277C15.2107 16.6535 15.138 16.5669 15.0549 16.468C14.9223 16.4949 14.6643 16.3109 14.2807 15.9159C13.9482 15.5202 13.73 15.2605 13.6261 15.1368C13.7569 14.9847 13.7344 14.8348 13.5586 14.6871C13.4339 14.5387 13.33 14.4151 13.2469 14.3161C13.0936 14.3183 12.9858 14.2824 12.9234 14.2081C12.8403 14.1092 12.8234 13.9968 12.8728 13.8709C12.9526 13.7195 12.8998 13.5951 12.7144 13.4977C12.6218 13.4489 12.5196 13.4504 12.4078 13.5021C12.3472 13.5531 12.2129 13.4549 12.0051 13.2075Z" stroke="#A8A8A8" stroke-width="0.8" mask="url(#path-2-outside-2_275_1120)"/>
</svg>
