<svg width="80" height="80" viewBox="0 0 80 80" fill="none" xmlns="http://www.w3.org/2000/svg">
<path fill-rule="evenodd" clip-rule="evenodd" d="M38.3033 72.4286C39.8347 72.4286 67.1971 44.1363 67.1971 28.6936C67.1971 13.2508 54.2608 0.731934 38.3033 0.731934C22.3458 0.731934 9.40964 13.2508 9.40964 28.6936C9.40964 44.1363 36.772 72.4286 38.3033 72.4286ZM52.9526 28.5024C52.9526 36.3319 46.3939 42.6791 38.3034 42.6791C30.2129 42.6791 23.6543 36.3319 23.6543 28.5024C23.6543 20.6729 30.2129 14.3258 38.3034 14.3258C46.3939 14.3258 52.9526 20.6729 52.9526 28.5024Z" fill="#A2DB00"/>
<path d="M38.3034 42.6791C46.3939 42.6791 52.9526 36.3319 52.9526 28.5024C52.9526 20.6729 46.3939 14.3258 38.3034 14.3258C30.2129 14.3258 23.6543 20.6729 23.6543 28.5024C23.6543 36.3319 30.2129 42.6791 38.3034 42.6791Z" fill="white"/>
<ellipse cx="37" cy="74" rx="17" ry="1" fill="#B5B5B5"/>
</svg>
