<svg width="260" height="170" viewBox="0 0 260 170" fill="none" xmlns="http://www.w3.org/2000/svg">
<path d="M123.302 129.46H39.6471C25.3701 129.46 13.75 117.807 13.75 103.501V66.4375C13.75 52.1611 25.3706 40.5404 39.6471 40.5404H72.2242C85.9141 40.5404 99.3249 44.3587 110.935 51.5919C122.545 58.7937 131.951 69.0997 138.035 81.3306L123.302 129.46ZM123.302 129.46C136.526 129.46 147.281 118.705 147.25 105.48C147.25 101.823 146.406 98.1033 144.749 94.7883C144.749 94.7883 144.749 94.7882 144.749 94.7881L138.035 81.3308L123.302 129.46ZM17.2819 66.4375C17.2819 54.1078 27.3174 44.0723 39.6471 44.0723H72.2242C85.264 44.0723 97.9956 47.7098 109.094 54.5845C120.13 61.4281 129.07 71.2313 134.896 82.8843L141.608 96.3391C141.609 96.3397 141.609 96.3402 141.609 96.3407C142.985 99.1856 143.749 102.335 143.749 105.481C143.749 116.758 134.58 125.928 123.302 125.928H39.6471C27.3181 125.928 17.2819 115.862 17.2819 103.501V66.4375Z" fill="#2A2A2A" stroke="#2A2A2A" stroke-width="0.5"/>
<path d="M39.6197 48.5547C39.6288 48.5537 39.638 48.5532 39.6471 48.5532H72.2242C84.429 48.5532 96.3546 51.9382 106.727 58.3669C117.1 64.7954 125.454 73.9569 130.889 84.8886L137.601 98.3434C137.601 98.3439 137.601 98.3443 137.601 98.3448C138.734 100.547 139.299 103.062 139.268 105.513C139.268 105.513 139.268 105.514 139.268 105.515L139.018 105.511L39.6197 48.5547ZM39.6197 48.5547C33.0223 49.2821 28.9077 51.8245 26.3876 54.6003C23.8724 57.3706 22.9588 60.3581 22.7343 61.9654C22.733 61.9745 22.7322 61.9836 22.732 61.9928M39.6197 48.5547L22.732 61.9928M22.732 61.9928L21.7772 94.9336M22.732 61.9928L21.7772 94.9336M21.7772 94.9336C21.7483 95.9281 22.5467 96.75 23.5417 96.75M21.7772 94.9336L23.5417 96.75M23.5417 96.75C24.4968 96.75 25.2786 95.9905 25.3063 95.0359M23.5417 96.75L25.3063 95.0359M25.3063 95.0359L26.1769 64.9994M25.3063 95.0359L26.1769 64.9994M26.1769 64.9994C26.2348 63.0014 26.3592 61.0061 27.3935 59.3976M26.1769 64.9994L27.3935 59.3976M27.3935 59.3976C28.7078 57.3536 30.88 55.6022 33.1854 54.3201M27.3935 59.3976L33.1854 54.3201M33.1854 54.3201C35.4866 53.0404 37.8914 52.2443 39.6583 52.085M33.1854 54.3201L39.6583 52.085M39.6583 52.085H72.2242C95.9201 52.085 117.149 65.2415 127.75 86.4728C127.75 86.4728 127.75 86.4728 127.75 86.4729L39.6583 52.085Z" fill="#2A2A2A" stroke="#2A2A2A" stroke-width="0.5" stroke-linejoin="round"/>
<path fill-rule="evenodd" clip-rule="evenodd" d="M206.007 102.238C200.018 95.5266 192.241 92.4417 184.108 93.5532C182.5 93.7717 180.88 93.164 179.774 91.9246L163.657 73.863L151.894 60.6803C150.788 59.4411 150.367 57.7622 150.768 56.1895C152.794 48.2356 150.611 40.1589 144.623 33.447C140.312 28.6165 134.399 25.6022 127.971 24.9593C123.281 24.4886 120.505 30.0359 123.628 33.5358L131.53 42.3908C132.302 43.2558 132.553 44.4724 132.185 45.5662L129.73 52.8687C129.552 53.3928 129.242 53.8619 128.829 54.2303C128.416 54.5988 127.915 54.8539 127.374 54.9709L119.839 56.5822C118.712 56.823 117.531 56.4358 116.759 55.5711L108.855 46.7139C105.72 43.2023 99.9053 45.3661 99.8427 50.0766C99.7541 56.7422 102.218 63.1063 106.781 67.9971C112.741 74.386 120.373 77.3177 128.27 76.2568C129.893 76.0391 131.52 76.6459 132.623 77.882L160.497 109.12C161.6 110.356 162.019 112.041 161.618 113.629C159.666 121.354 161.715 129.269 167.387 135.916C171.728 141.004 177.772 144.174 184.404 144.842C189.092 145.325 191.901 139.781 188.767 136.27L180.864 127.412C180.092 126.547 179.841 125.331 180.209 124.237L182.664 116.934C182.842 116.41 183.152 115.941 183.565 115.573C183.978 115.204 184.479 114.949 185.02 114.832L192.554 113.221C193.682 112.98 194.863 113.367 195.635 114.232L203.537 123.087C206.662 126.592 212.485 124.45 212.551 119.745C212.641 113.286 210.317 107.068 206.007 102.238ZM176.876 94.5107L159.467 75.0002L148.996 63.2661C147.029 61.0613 146.284 58.0574 147.004 55.2307C148.205 50.5174 148.264 43.3603 141.725 36.0328C138.064 31.9296 133.042 29.3696 127.585 28.8237C126.44 28.706 125.738 30.0673 126.526 30.9496L134.427 39.8047C136.126 41.7083 136.677 44.3903 135.866 46.8036L133.411 54.1063C132.618 56.4629 130.616 58.2492 128.185 58.7688L120.651 60.3802C118.161 60.912 115.559 60.0605 113.861 58.1569L105.957 49.2995C105.168 48.4161 103.741 48.9617 103.726 50.1278C103.651 55.7873 105.744 61.1925 109.621 65.3476C116.129 72.3238 123.073 73.0377 127.752 72.4075C130.654 72.0169 133.558 73.097 135.521 75.2962L163.395 106.534C165.358 108.733 166.101 111.741 165.384 114.58C164.227 119.158 164.149 126.138 170.341 133.395C174.03 137.717 179.163 140.411 184.794 140.978C185.957 141.092 186.658 139.738 185.87 138.856L177.967 129.999C176.268 128.095 175.717 125.413 176.528 123L178.984 115.697C179.776 113.341 181.778 111.554 184.209 111.034L191.743 109.423C194.233 108.891 196.835 109.743 198.534 111.646L206.435 120.501C207.221 121.383 208.652 120.845 208.668 119.691C208.744 114.207 206.77 108.927 203.109 104.824C196.571 97.496 189.453 96.7428 184.634 97.4012C181.744 97.7962 178.844 96.7155 176.876 94.5107Z" fill="#2A2A2A"/>
<path d="M159.467 75.0002L176.876 94.5107C178.844 96.7155 181.744 97.7962 184.634 97.4012C189.453 96.7428 196.571 97.496 203.109 104.824C206.77 108.927 208.744 114.207 208.668 119.691C208.652 120.845 207.221 121.383 206.435 120.501L198.534 111.646C196.835 109.743 194.233 108.891 191.743 109.423L184.209 111.034C181.778 111.554 179.776 113.341 178.984 115.697L176.528 123C175.717 125.413 176.268 128.095 177.967 129.999L185.87 138.856C186.658 139.738 185.957 141.092 184.794 140.978C179.163 140.411 174.03 137.717 170.341 133.395C164.149 126.138 164.227 119.158 165.384 114.58C166.101 111.741 165.358 108.733 163.395 106.534L135.521 75.2962C133.558 73.097 130.654 72.0169 127.752 72.4075C123.073 73.0377 116.129 72.3238 109.621 65.3476C105.744 61.1925 103.651 55.7873 103.726 50.1278C103.741 48.9617 105.168 48.4161 105.957 49.2995L113.861 58.1569C115.559 60.0605 118.161 60.912 120.651 60.3802L128.185 58.7688C130.616 58.2492 132.618 56.4629 133.411 54.1063L135.866 46.8036C136.677 44.3903 136.126 41.7083 134.427 39.8047L126.526 30.9496C125.738 30.0673 126.44 28.706 127.585 28.8237C133.042 29.3696 138.064 31.9296 141.725 36.0328C148.264 43.3603 148.205 50.5174 147.004 55.2307C146.284 58.0574 147.029 61.0613 148.996 63.2661L159.467 75.0002Z" fill="#1C1C1C"/>
<rect x="39" y="64" width="58" height="9" rx="4.5" stroke="#2A2A2A" stroke-width="4"/>
<rect x="64" y="98" width="58" height="9" rx="4.5" stroke="#2A2A2A" stroke-width="4"/>
<rect x="39" y="81" width="76" height="9" rx="4.5" stroke="#2A2A2A" stroke-width="4"/>
</svg>
