<svg width="260" height="170" viewBox="0 0 260 170" fill="none" xmlns="http://www.w3.org/2000/svg">
<path d="M91.7367 138.107H132.141C149.385 138.107 161.271 120.82 155.1 104.72L148.819 88.334C141.543 69.3538 124.367 55.9498 104.186 53.5086L55.6483 47.635C44.3825 46.27 33.8332 50.3367 26.453 57.6603C20.0243 64.0409 16 72.8881 16 82.7747C16 113.332 40.7745 138.107 71.332 138.107H81.8246" stroke="#2A2A2A" stroke-width="5" stroke-miterlimit="10" stroke-linecap="round" stroke-linejoin="round"/>
<path d="M140.014 97.017L144.523 108.776C146.109 112.913 145.576 117.379 143.067 121.033C140.555 124.683 136.573 126.779 132.141 126.779H71.3321C47.0673 126.779 27.3281 107.039 27.3281 82.7747C27.3281 69.5011 38.0955 58.7026 51.3323 58.7026C52.3094 58.7026 53.3034 58.762 54.2861 58.881L102.824 64.7546C117.228 66.4963 129.632 75.1963 136.208 87.8724" stroke="#2A2A2A" stroke-width="5" stroke-miterlimit="10" stroke-linecap="round" stroke-linejoin="round"/>
<path d="M49.0157 73.7802C53.2496 70.025 58.8174 67.7452 64.9204 67.7452C78.1687 67.7452 88.9105 78.4871 88.9105 91.7353C88.9105 104.984 78.1687 115.723 64.9204 115.723C51.6722 115.723 40.9331 104.984 40.9331 91.7353C40.9331 88.1245 41.7317 84.6977 43.1619 81.625" stroke="#2A2A2A" stroke-width="5" stroke-miterlimit="10" stroke-linecap="round" stroke-linejoin="round"/>
<path d="M64.9207 106.228C72.9251 106.228 79.4139 99.7394 79.4139 91.735C79.4139 83.7306 72.9251 77.2418 64.9207 77.2418C56.9163 77.2418 50.4275 83.7306 50.4275 91.735C50.4275 99.7394 56.9163 106.228 64.9207 106.228Z" stroke="#2A2A2A" stroke-width="5" stroke-miterlimit="10" stroke-linecap="round" stroke-linejoin="round"/>
<path d="M112.811 115.724C121.43 115.724 128.418 108.736 128.418 100.116C128.418 91.4967 121.43 84.509 112.811 84.509C104.191 84.509 97.2034 91.4967 97.2034 100.116C97.2034 108.736 104.191 115.724 112.811 115.724Z" stroke="#2A2A2A" stroke-width="5" stroke-miterlimit="10" stroke-linecap="round" stroke-linejoin="round"/>
<path d="M105.607 102.518L115.212 92.9122M110.409 107.32L120.015 97.715M57.7166 94.1362L67.3222 84.5309M62.5194 98.9391L72.1247 89.3334M136.862 36.3562L129.424 49.2357M118.345 32L117.65 46.8568M149.889 50.217L137.368 58.2446" stroke="#2A2A2A" stroke-width="5" stroke-miterlimit="10" stroke-linecap="round" stroke-linejoin="round"/>
</svg>
