<svg width="260" height="170" viewBox="0 0 260 170" fill="none" xmlns="http://www.w3.org/2000/svg">
<path d="M73.9849 109.455C73.2762 110.164 72.1763 110.364 71.1843 109.967C64.3681 107.236 57.1203 114.464 59.8547 121.296C60.2524 122.289 60.0516 123.389 59.3434 124.097L43.4243 140.016C31.4552 151.986 12.02 132.483 23.9546 120.549L39.9391 104.564C40.6261 103.877 41.6629 103.682 42.6454 104.055C49.2827 106.573 56.4635 99.4081 53.9415 92.757C53.5692 91.7755 53.7651 90.7389 54.4523 90.0512C54.6508 89.857 54.8089 89.6253 54.9173 89.3696C55.0257 89.1139 55.0824 88.8392 55.0839 88.5614C55.0854 88.2837 55.0318 88.0084 54.9262 87.7515C54.8206 87.4946 54.6651 87.2612 54.4687 87.0648C54.2723 86.8684 54.0389 86.713 53.782 86.6074C53.5251 86.5019 53.2498 86.4483 52.972 86.4499C52.6943 86.4515 52.4196 86.5082 52.1639 86.6166C51.9082 86.7251 51.6766 86.8832 51.4824 87.0818C49.6394 88.9248 49.0632 91.7372 50.0145 94.2464C51.2482 97.4998 47.3906 101.365 44.1356 100.128C41.6259 99.1748 38.813 99.7509 36.9697 101.594L20.9853 117.579C13.1521 125.412 15.4511 135.907 21.7699 142.227C28.6916 149.148 39.0017 150.378 46.3944 142.986L62.3135 127.067C64.2116 125.169 64.7773 122.291 63.7544 119.736C62.3983 116.348 66.2313 112.506 69.6222 113.865C72.1779 114.889 75.0559 114.324 76.9551 112.426C77.1501 112.231 77.3048 111.999 77.4104 111.744C77.5159 111.49 77.5703 111.217 77.5703 110.941C77.5703 110.665 77.516 110.392 77.4105 110.137C77.305 109.882 77.1503 109.651 76.9553 109.456C76.5614 109.062 76.0273 108.841 75.4702 108.841C74.9132 108.841 74.3789 109.062 73.9849 109.455Z" fill="#2A2A2A"/>
<path d="M41.0126 117.328C41.2076 117.133 41.3624 116.901 41.4679 116.646C41.5735 116.392 41.6278 116.119 41.6278 115.843C41.6278 115.567 41.5735 115.294 41.4679 115.039C41.3624 114.784 41.2076 114.553 41.0126 114.358C40.6187 113.964 40.0847 113.743 39.5278 113.743C38.9709 113.743 38.4368 113.964 38.043 114.358L30.1896 122.211C26.9995 125.401 26.9995 130.592 30.1896 133.783C33.3797 136.972 38.5703 136.973 41.7607 133.783L49.6143 125.929C52.8042 122.739 52.8042 117.548 49.6141 114.358C49.2202 113.964 48.6861 113.743 48.1293 113.743C47.5724 113.743 47.0383 113.964 46.6445 114.358C46.4494 114.553 46.2947 114.784 46.1891 115.039C46.0836 115.294 46.0292 115.567 46.0292 115.843C46.0292 116.119 46.0836 116.392 46.1891 116.646C46.2947 116.901 46.4494 117.133 46.6445 117.328C48.1971 118.88 48.1971 121.407 46.6445 122.959L38.7911 130.812C37.2387 132.365 34.7124 132.365 33.1595 130.812C31.6068 129.26 31.6068 126.734 33.1595 125.181L41.0126 117.328ZM133.831 100.667C126.953 93.7886 118.367 90.9358 109.655 92.6355C107.932 92.9701 106.145 92.4136 104.875 91.1434L86.3652 72.6332L116.971 42.0279C117.218 41.7809 117.399 41.4763 117.499 41.1415L119.338 34.9552L133.752 26.7189L137.259 30.2253L134.073 35.8002L131.125 32.8524C130.731 32.4588 130.197 32.2377 129.641 32.2377C129.084 32.2377 128.55 32.4588 128.156 32.8524C127.961 33.0473 127.806 33.2788 127.7 33.5336C127.595 33.7884 127.54 34.0615 127.54 34.3373C127.54 34.6131 127.595 34.8862 127.7 35.141C127.806 35.3958 127.961 35.6273 128.156 35.8223L131.913 39.5799L129.022 44.6387L122.822 46.4817C122.487 46.5813 122.182 46.7629 121.935 47.0099L98.4146 70.5306C98.2195 70.7256 98.0648 70.9571 97.9592 71.2119C97.8537 71.4667 97.7993 71.7398 97.7993 72.0156C97.7993 72.2913 97.8537 72.5644 97.9592 72.8192C98.0648 73.074 98.2195 73.3055 98.4146 73.5005C98.8084 73.8942 99.3425 74.1154 99.8994 74.1154C100.456 74.1154 100.99 73.8942 101.384 73.5005L124.529 50.3562L131.026 48.4252C131.544 48.2712 131.983 47.9233 132.251 47.454L141.701 30.9167C141.93 30.5167 142.02 30.0527 141.959 29.5961C141.898 29.1395 141.688 28.7157 141.363 28.3899L135.588 22.615C135.262 22.2893 134.838 22.0797 134.382 22.0186C133.925 21.9574 133.461 22.0481 133.061 22.2766L116.524 31.7265C116.054 31.9946 115.707 32.4333 115.553 32.9513L113.625 39.4345L81.9106 71.1485C81.7156 71.3435 81.5609 71.575 81.4553 71.8298C81.3497 72.0846 81.2954 72.3577 81.2954 72.6335C81.2954 72.9093 81.3497 73.1824 81.4553 73.4371C81.5609 73.6919 81.7156 73.9234 81.9106 74.1184L101.906 94.1136C104.165 96.3731 107.363 97.3617 110.459 96.7577C115.621 95.7508 123.352 96.1267 130.862 103.637C135.066 107.841 137.522 113.42 137.776 119.346C137.83 120.594 136.318 121.262 135.416 120.359L126.341 111.284C124.389 109.333 121.528 108.573 118.873 109.301L110.837 111.503C108.245 112.214 106.193 114.265 105.482 116.858L103.28 124.893C102.552 127.549 103.312 130.411 105.263 132.361L114.34 141.439C115.245 142.343 114.572 143.848 113.309 143.796C107.194 143.529 101.487 140.937 97.2388 136.497C90.1073 129.042 89.7632 121.501 90.7305 116.487C91.3306 113.378 90.3431 110.177 88.089 107.922L56.0752 75.9092C53.8214 73.6554 50.6194 72.6676 47.5104 73.2677C42.4975 74.2355 34.9563 73.8914 27.5014 66.7593C23.0607 62.5113 20.4685 56.8041 20.2016 50.6893C20.1467 49.4293 21.6537 48.7526 22.5596 49.6579L31.637 58.7353C33.5879 60.6862 36.4493 61.4456 39.105 60.7185L47.1403 58.5159C49.7327 57.8056 51.7847 55.7539 52.4952 53.1609L54.6976 45.1257C55.4252 42.4702 54.6653 39.6085 52.7144 37.6576L43.6394 28.5826C42.7351 27.6783 43.4084 26.1655 44.6521 26.2222C50.5774 26.4763 56.1565 28.9317 60.3617 33.1369C67.8712 40.6464 68.2477 48.3772 67.2407 53.5397C66.637 56.6359 67.6253 59.8333 69.8849 62.0929L74.3772 66.5853C74.7711 66.979 75.3052 67.2002 75.862 67.2002C76.4189 67.2002 76.953 66.979 77.3468 66.5853C77.5419 66.3903 77.6966 66.1588 77.8022 65.904C77.9077 65.6492 77.9621 65.3761 77.9621 65.1003C77.9621 64.8246 77.9077 64.5515 77.8022 64.2967C77.6966 64.0419 77.5419 63.8104 77.3468 63.6154L72.8545 59.123C71.5845 57.8531 71.027 56.0663 71.3627 54.3438C73.0619 45.6318 70.2093 37.0457 63.3311 30.167C58.3804 25.2166 51.8106 22.3255 44.8316 22.0262C39.739 21.8062 37.083 27.966 40.6698 31.5527L49.7448 40.6278C50.6313 41.5142 50.977 42.8123 50.6473 44.0158L48.4449 52.0508C48.2854 52.6276 47.9791 53.1532 47.556 53.5763C47.1328 53.9995 46.6072 54.3058 46.0305 54.4653L37.9949 56.6679C36.7922 56.9971 35.4933 56.6516 34.6069 55.7654L25.5295 46.6883C21.9293 43.0895 15.784 45.7829 16.0058 50.8725C16.3198 58.0746 19.3713 64.7943 24.5979 69.7943C31.4254 76.326 39.8455 79.0224 48.3061 77.3918C50.0446 77.0571 51.8387 77.6122 53.1055 78.8791L85.1191 110.893C86.3859 112.159 86.9419 113.954 86.6064 115.692C84.9739 124.153 87.6721 132.572 94.2036 139.4C99.2036 144.627 105.924 147.678 113.125 147.992C118.216 148.225 120.908 142.067 117.309 138.468L108.232 129.391C107.346 128.505 107 127.207 107.33 126.003L109.532 117.968C109.692 117.391 109.998 116.866 110.421 116.443C110.844 116.019 111.37 115.713 111.947 115.554L119.982 113.351C121.185 113.021 122.484 113.367 123.37 114.254L132.445 123.328C136.035 126.92 142.19 124.25 141.972 119.166C141.673 112.187 138.782 105.617 133.831 100.667Z" fill="#2A2A2A"/>
<path d="M63.1302 69.1512C62.9351 69.3462 62.7804 69.5777 62.6748 69.8325C62.5693 70.0872 62.515 70.3603 62.515 70.6361C62.515 70.9119 62.5693 71.185 62.6748 71.4398C62.7804 71.6946 62.9351 71.9261 63.1302 72.1211L91.8379 100.828C92.2325 101.218 92.7654 101.436 93.3201 101.434C93.8749 101.433 94.4064 101.212 94.7986 100.819C95.1909 100.427 95.412 99.8956 95.4136 99.3408C95.4153 98.7861 95.1974 98.2532 94.8075 97.8586L66.0998 69.1512C65.7059 68.7575 65.1719 68.5363 64.615 68.5363C64.0581 68.5363 63.524 68.7575 63.1302 69.1512Z" fill="#2A2A2A"/>
</svg>
