<svg width="40" height="40" viewBox="0 0 40 40" fill="none" xmlns="http://www.w3.org/2000/svg">
<rect width="40" height="40" rx="20" fill="white"/>
<g clip-path="url(#clip0_49_56)">
<path d="M15.4138 11H24.5862C27.2952 11 29.5 13.2047 29.5 15.9138V25.0863C29.5 27.7952 27.2952 30 24.5863 30H15.4138C12.7047 30 10.5 27.7952 10.5 25.0863V15.9138C10.5 13.2047 12.7047 11 15.4138 11ZM14.0314 20.5C14.0314 23.7916 16.7084 26.4686 20 26.4686C23.2916 26.4686 25.9686 23.7916 25.9686 20.5C25.9686 18.9143 25.3473 17.4713 24.3354 16.4014C24.6882 16.6649 25.1258 16.8211 25.5993 16.8211C26.7665 16.8211 27.7154 15.8725 27.7154 14.7052C27.7154 13.5379 26.7666 12.5891 25.5993 12.5891C24.432 12.5891 23.4834 13.538 23.4834 14.7052C23.4834 15.2047 23.6572 15.6642 23.9474 16.0264C22.8947 15.0964 21.5122 14.5314 20 14.5314C16.7084 14.5314 14.0314 17.2084 14.0314 20.5Z" fill="#262626" stroke="#262626"/>
<path d="M17.3359 20.4998C17.3359 19.0307 18.532 17.8347 20.0011 17.8347C21.4702 17.8347 22.6662 19.0306 22.6662 20.4998C22.6662 21.9688 21.4702 23.1649 20.0011 23.1649C18.532 23.1649 17.3359 21.9688 17.3359 20.4998Z" fill="#262626" stroke="#262626"/>
<path d="M25.6562 14.7051C25.6562 14.7368 25.6314 14.7617 25.5997 14.7617C25.5683 14.7617 25.5432 14.7369 25.5432 14.7051C25.5432 14.6734 25.5683 14.6486 25.5997 14.6486C25.6314 14.6486 25.6562 14.6734 25.6562 14.7051Z" fill="#262626" stroke="#262626"/>
</g>
<defs>
<clipPath id="clip0_49_56">
<rect width="20" height="20" fill="white" transform="translate(10 10.5)"/>
</clipPath>
</defs>
</svg>
