<svg width="40" height="40" viewBox="0 0 40 40" fill="none" xmlns="http://www.w3.org/2000/svg">
<rect width="40" height="40" rx="20" fill="white"/>
<g clip-path="url(#clip0_49_38)">
<path d="M10 15.2C10 21.5666 18.4417 30 24.8 30C26.1917 30 27.4917 29.475 28.45 28.5166L29.2833 27.5583C30.25 26.5916 30.25 24.9583 29.2417 23.95C29.2167 23.925 27.2083 22.3833 27.2083 22.3833C26.7272 21.926 26.0888 21.6709 25.425 21.6709C24.7612 21.6709 24.1228 21.926 23.6417 22.3833L22.425 23.3583C19.7583 22.225 17.8667 20.325 16.65 17.5666L17.6167 16.35C18.0778 15.8708 18.3354 15.2317 18.3354 14.5666C18.3354 13.9016 18.0778 13.2625 17.6167 12.7833C17.6167 12.7833 16.075 10.775 16.05 10.75C15.8104 10.5102 15.5259 10.32 15.2128 10.1902C14.8996 10.0604 14.564 9.99365 14.225 9.99365C13.886 9.99365 13.5504 10.0604 13.2372 10.1902C12.9241 10.32 12.6396 10.5102 12.4 10.75L11.525 11.5083C11.0375 11.9891 10.6513 12.5628 10.3893 13.1955C10.1274 13.8282 9.99501 14.5069 10 15.1916V15.2Z" fill="#262626"/>
</g>
<defs>
<clipPath id="clip0_49_38">
<rect width="20" height="20" fill="white" transform="matrix(-1 0 0 1 30 10)"/>
</clipPath>
</defs>
</svg>
