<svg width="21" height="26" viewBox="0 0 21 26" fill="none" xmlns="http://www.w3.org/2000/svg">
<path d="M7.62 25.03C7.5 24.55 7.38 24.13 7.26 23.77C7.18 23.37 7.14 22.91 7.14 22.39L7.62 21.97C7.5 21.77 7.44 21.49 7.44 21.13C7.44 20.33 7.56 19.39 7.8 18.31C8.08 17.19 8.22 16.37 8.22 15.85C7.86 15.85 7.48 15.83 7.08 15.79C6.72 15.71 6.36 15.67 6 15.67C5.88 15.67 5.76 15.67 5.64 15.67C5.52 15.67 5.4 15.69 5.28 15.73L4.98 15.37C4.86 15.33 4.68 15.31 4.44 15.31C4.24 15.31 4.02 15.33 3.78 15.37C3.54 15.37 3.26 15.37 2.94 15.37C2.66 15.37 2.34 15.35 1.98 15.31C1.66 15.27 1.28 15.17 0.84 15.01V14.41L0.24 14.23C0.08 14.11 0 13.89 0 13.57C0.28 13.25 0.48 13.05 0.6 12.97C0.76 12.85 1.08 12.81 1.56 12.85C1.76 12.73 2.16 12.67 2.76 12.67C3.4 12.63 3.86 12.61 4.14 12.61C4.06 12.77 4.08 12.81 4.2 12.73C4.36 12.65 4.38 12.61 4.26 12.61H4.44C4.8 12.61 5.1 12.73 5.34 12.97L5.46 12.73C5.54 12.89 5.6 12.99 5.64 13.03C5.72 13.03 5.78 13.09 5.82 13.21C5.86 12.93 6.02 12.75 6.3 12.67C6.62 12.59 6.96 12.55 7.32 12.55C7.64 12.55 7.96 12.57 8.28 12.61C8.6 12.61 8.84 12.61 9 12.61L9.3 10.57L9.84 10.09V9.79C9.84 9.51 9.8 9.25 9.72 9.01C9.64 8.77 9.6 8.51 9.6 8.23C9.6 7.79 9.78 7.37 10.14 6.97C10.02 6.77 9.96 6.61 9.96 6.49C9.96 6.21 10.06 5.97 10.26 5.77C10.46 5.57 10.6 5.33 10.68 5.05L10.26 4.93L10.68 4.81C10.56 4.73 10.5 4.51 10.5 4.15C10.5 3.71 10.56 3.21 10.68 2.65C10.84 2.05 10.94 1.67 10.98 1.51L10.74 1.33V0.970001H11.1C11.42 1.49 11.62 2.13 11.7 2.89C11.82 3.65 11.88 4.47 11.88 5.35C11.88 6.23 11.84 7.11 11.76 7.99C11.72 8.87 11.7 9.61 11.7 10.21L11.1 10.45L11.58 11.17L11.22 11.53C11.46 11.81 11.58 12.17 11.58 12.61H12.54V12.97H12.66V12.61H15.42C15.5 12.65 15.48 12.71 15.36 12.79C15.28 12.83 15.26 12.89 15.3 12.97C15.78 12.77 16.16 12.67 16.44 12.67C16.8 12.67 17.1 12.77 17.34 12.97C17.54 12.81 17.82 12.69 18.18 12.61C18.58 12.49 18.94 12.43 19.26 12.43C19.62 12.43 19.88 12.49 20.04 12.61V12.37H20.58V12.97C20.18 13.13 19.84 13.35 19.56 13.63C19.28 13.87 18.9 14.05 18.42 14.17C18.14 14.21 17.9 14.19 17.7 14.11C17.5 13.99 17.3 14.01 17.1 14.17H16.98V14.53H16.02C16.06 14.53 16.12 14.49 16.2 14.41C16.28 14.33 16.3 14.27 16.26 14.23H16.14C16.02 14.43 15.88 14.57 15.72 14.65C15.56 14.73 15.38 14.81 15.18 14.89L14.94 14.53L14.7 15.01L13.5 14.89C13.58 14.93 13.58 14.99 13.5 15.07C13.42 15.15 13.34 15.15 13.26 15.07L13.02 14.89V15.01C12.74 15.13 12.42 15.25 12.06 15.37C11.74 15.45 11.42 15.53 11.1 15.61C11.14 15.65 11.1 15.95 10.98 16.51C10.9 17.07 10.78 17.73 10.62 18.49C10.5 19.21 10.36 19.87 10.2 20.47C10.04 21.03 9.92 21.37 9.84 21.49L9.9 21.97C9.66 22.13 9.5 22.29 9.42 22.45C9.38 22.57 9.36 22.69 9.36 22.81C9.36 22.89 9.36 22.99 9.36 23.11C9.4 23.19 9.42 23.27 9.42 23.35C9.42 23.59 9.22 23.77 8.82 23.89C8.9 23.97 8.94 24.09 8.94 24.25C8.94 24.33 8.92 24.43 8.88 24.55C8.88 24.63 8.86 24.73 8.82 24.85C8.46 24.85 8.06 24.91 7.62 25.03Z" fill="#A2DB00"/>
</svg>
