<svg width="260" height="170" viewBox="0 0 260 170" fill="none" xmlns="http://www.w3.org/2000/svg">
<g clip-path="url(#clip0_100_1932)">
<path d="M90.7367 117.107H127.141M80.8246 117.107H70.332C39.7745 117.107 15 92.3323 15 61.7748C15 51.8882 19.0243 43.0409 25.453 36.6604C32.8332 29.3368 43.3825 25.27 54.6483 26.6351C54.6483 26.6351 87.3405 29.4979 107 33C126.629 36.4966 130.5 41 140.5 55" stroke="#2A2A2A" stroke-width="5" stroke-miterlimit="10" stroke-linecap="round" stroke-linejoin="round"/>
<path d="M119.5 105.779H70.332C46.0673 105.779 26.3281 86.0395 26.3281 61.7747C26.3281 48.5011 37.0954 37.7026 50.3323 37.7026C51.3093 37.7026 52.3034 37.762 53.2861 37.881L101.824 43.7546C116.228 45.4963 119.5 47.4999 129 58.9999" stroke="#2A2A2A" stroke-width="4" stroke-miterlimit="10" stroke-linecap="round" stroke-linejoin="round"/>
<path d="M48.0157 52.7803C52.2496 49.025 57.8174 46.7452 63.9204 46.7452C77.1687 46.7452 87.9105 57.4871 87.9105 70.7354C87.9105 83.9836 77.1687 94.7227 63.9204 94.7227C50.6722 94.7227 39.9331 83.9836 39.9331 70.7354C39.9331 67.1245 40.7317 63.6978 42.1619 60.625" stroke="#2A2A2A" stroke-width="4" stroke-miterlimit="10" stroke-linecap="round" stroke-linejoin="round"/>
<path d="M63.9207 85.2282C71.925 85.2282 78.4139 78.7394 78.4139 70.735C78.4139 62.7306 71.925 56.2418 63.9207 56.2418C55.9163 56.2418 49.4275 62.7306 49.4275 70.735C49.4275 78.7394 55.9163 85.2282 63.9207 85.2282Z" stroke="#2A2A2A" stroke-width="4" stroke-miterlimit="10" stroke-linecap="round" stroke-linejoin="round"/>
<path d="M117.5 93.5001C115.361 94.6018 114.382 94.7237 111.811 94.7237C103.191 94.7237 96.2034 87.7361 96.2034 79.1164C96.2034 70.4967 103.191 63.5091 111.811 63.5091C116.199 63.5091 120.164 65.3202 123 68.2358" stroke="#2A2A2A" stroke-width="4" stroke-miterlimit="10" stroke-linecap="round" stroke-linejoin="round"/>
<path d="M104.89 80.5176L114.496 70.9122M109.693 85.3204L119.298 75.7151M57 72.1362L66.6056 62.5309M61.8028 76.9391L71.4082 67.3334" stroke="#2A2A2A" stroke-width="5" stroke-miterlimit="10" stroke-linecap="round" stroke-linejoin="round"/>
<path d="M155.84 53.0522C147.814 53.1188 139.75 55.7779 132.994 61.179C116.98 73.9811 114.377 97.3384 127.179 113.352C137.343 126.066 154.162 130.326 168.676 125.133" stroke="#2A2A2A" stroke-width="4" stroke-miterlimit="10" stroke-linecap="round" stroke-linejoin="round"/>
<path d="M187.522 110.067C195.783 97.0525 195.331 79.7082 185.167 66.9941C179.43 59.8174 171.572 55.3342 163.206 53.7238" stroke="#2A2A2A" stroke-width="4" stroke-miterlimit="10" stroke-linecap="round" stroke-linejoin="round"/>
<path d="M140.166 101.336C140.41 101.685 140.665 102.026 140.931 102.358C144.816 107.218 150.55 109.728 156.327 109.686" stroke="#2A2A2A" stroke-width="4" stroke-miterlimit="10" stroke-linecap="round" stroke-linejoin="round"/>
<path d="M175.174 94.62C176.486 88.9938 175.3 82.8484 171.415 77.9882C164.686 69.5707 152.406 68.202 143.988 74.9311C137.938 79.7677 135.53 87.4718 137.152 94.5486" stroke="#2A2A2A" stroke-width="4" stroke-miterlimit="10" stroke-linecap="round" stroke-linejoin="round"/>
<path d="M201.667 127.76L211.021 139.461C212.897 141.807 212.515 145.229 210.169 147.105L199.819 155.379C197.473 157.255 194.05 156.873 192.175 154.527L146.814 97.7865C144.938 95.4403 145.32 92.0181 147.666 90.1425L158.016 81.8682C160.362 79.9925 163.785 80.374 165.66 82.7201L196.897 121.794" stroke="#2A2A2A" stroke-width="4" stroke-miterlimit="10" stroke-linecap="round" stroke-linejoin="round"/>
<path d="M177.002 124.401L156.388 98.6155C154.627 96.4138 154.985 93.2019 157.187 91.4417C159.389 89.6815 162.601 90.0395 164.361 92.2413L184.975 118.027C186.735 120.229 186.377 123.441 184.176 125.201C181.974 126.961 178.762 126.603 177.002 124.401Z" stroke="#2A2A2A" stroke-width="2" stroke-miterlimit="10" stroke-linecap="round" stroke-linejoin="round"/>
</g>
<defs>
<clipPath id="clip0_100_1932">
<rect width="260" height="170" fill="white" transform="matrix(-1 0 0 1 260 0)"/>
</clipPath>
</defs>
</svg>
