<svg width="132" height="40" viewBox="0 0 132 40" fill="none" xmlns="http://www.w3.org/2000/svg">
<path d="M0 0H19.7289C23.4001 0 26.8104 2.78515 26.8104 6.42423C26.8104 10.0633 23.4001 12.8534 19.7289 12.8534H5.53629V17.9372H0V0ZM5.53629 8.75264H18.6807C19.9946 8.75264 21.2791 7.73985 21.2791 6.42423C21.2791 5.1086 19.9946 4.12064 18.6807 4.12064H5.53629V8.75264Z" fill="#A2DB00"/>
<path d="M49.9546 0C53.6258 0 57.0361 2.78515 57.0361 6.42423C57.0361 9.05548 55.3039 11.081 52.9713 12.2179L51.4211 12.9279C52.0756 13.7619 52.7055 14.5215 53.2862 15.2067C53.5224 15.4847 53.7832 15.7875 54.0195 16.0655L54.7035 16.8996C55.1218 17.406 55.4368 17.8081 55.5696 17.9372H49.428L45.2549 12.8534H35.7571V17.9372H30.2208V0H49.9497H49.9546ZM35.762 8.75264H48.9064C50.2203 8.75264 51.5048 7.73985 51.5048 6.42423C51.5048 5.1086 50.2203 4.12064 48.9064 4.12064H35.762V8.75264Z" fill="#A2DB00"/>
<path d="M60.4514 17.9421V0.00488281H65.9877V17.9421H60.4514Z" fill="#A2DB00"/>
<path d="M78.0052 0L87.3996 13.1066L96.7646 0H104.058V17.9372H98.5214V5.99231L90.0226 17.9372H84.7471L76.2483 5.99231V17.9372H70.712V0H78.0052Z" fill="#A2DB00"/>
<path d="M108.782 17.9421V0.00488281H132V3.72339H114.318V7.29295H130.455L129.328 10.6093H114.318V14.2285H132V17.947H108.782V17.9421Z" fill="#A2DB00"/>
<path d="M36 39.8851V33.7786C36 33.2126 36.4577 32.8899 37.7224 32.8899C38.9871 32.8899 39.6859 33.1977 40.0157 33.6892L43.2636 38.5446H43.426L46.674 33.7935C47.0234 33.297 47.7369 32.875 48.9672 32.875C50.0302 32.875 50.5076 33.1927 50.5076 33.7438V39.8801H48.3422V34.3793H48.2143L44.7695 39.3836C44.5136 39.7411 43.9969 39.9992 43.2636 39.9992C42.5304 39.9992 41.9448 39.7709 41.7233 39.4035L38.3129 34.3793H38.1653V39.8801H36V39.8851Z" fill="#A2DB00"/>
<path d="M55.0153 32.9297V39.8851H52.7959V32.9297H55.0153Z" fill="#A2DB00"/>
<path d="M57.9139 33.8936C57.9139 33.268 58.6816 32.8857 59.7839 32.8857C60.9552 32.8857 61.654 33.0545 62.3675 33.8439L66.8212 38.7092H67.0574V32.9304H69.2227V39.0766C69.2227 39.6327 68.268 39.9752 67.1115 39.9752C66.1765 39.9752 65.4236 39.7468 64.8183 39.1064L60.2711 34.2461H60.0694V39.8859H57.9041V33.8886L57.9139 33.8936Z" fill="#A2DB00"/>
<path d="M73.4303 37.9889C74.0159 38.6641 75.0247 38.9669 77.1506 38.9669C79.3898 38.9669 80.4134 38.6194 80.4134 37.8797C80.4134 37.4329 80.0295 37.1101 79.0207 37.0605L75.6103 36.9116C73.632 36.8321 71.9785 36.2066 71.9785 34.7768C71.9785 33.347 73.4844 32.8555 77.1654 32.8555C80.374 32.8555 81.3632 33.1136 82.372 34.1215L80.6496 34.7569C80.0098 34.0966 79.1831 33.8682 77.0178 33.8682C74.7245 33.8682 74.1586 34.1264 74.1586 34.7867C74.1586 35.5364 74.8721 35.8343 76.2698 35.8938L79.1486 36.0229C81.6633 36.142 82.559 36.6981 82.559 37.8946C82.559 39.3889 81.1466 39.9896 77.0768 39.9896C74.3604 39.9896 72.8791 39.7215 71.9047 38.7336L73.4253 37.9939L73.4303 37.9889Z" fill="#A2DB00"/>
<path d="M85.2213 32.9298H87.4408V39.8852H85.2213V32.9298ZM87.549 36.9462V36.3703L92.0027 32.9248H94.5715L90.3885 36.1319C90.1326 36.2908 89.8374 36.3405 89.4732 36.3405H88.7744V36.4398H89.0303C90.3147 36.4398 91.6139 36.7774 92.421 37.4674L95.2801 39.8803H92.7113L89.9407 37.5072C89.5372 37.1596 88.676 36.9412 87.8492 36.9412H87.5392L87.549 36.9462Z" fill="#A2DB00"/>
<path d="M42.3481 17.4566C42.1388 17.922 41.5854 19.6711 41.2414 20.4493C40.3403 22.7802 39.9253 24.413 39.3719 26.9003C38.8859 28.8821 38.7476 30.0857 38.7476 31.0203C38.7476 31.6421 38.7476 31.7185 38.8185 31.9148C38.9569 32.1475 38.9569 32.3039 38.8895 32.4603C38.7511 32.5766 38.6128 32.6166 38.3361 32.6166H38.0594C37.091 32.5403 35.7749 31.8785 35.0832 31.2166C34.8739 30.9839 34.5972 30.5948 34.5298 30.2857C34.3915 29.9766 34.4589 28.9657 34.5298 28.3803C34.5298 28.1875 34.6008 27.9512 34.6008 27.9512C34.5298 27.9512 34.3915 28.0275 34.1857 28.1075C30.1028 30.013 27.5381 31.0203 26.2929 31.2166C26.0837 31.2566 25.8779 31.2566 25.6012 31.2566C25.2536 31.2566 24.8385 31.2566 24.4945 31.2166C22.9017 30.9439 21.1706 30.1657 20.6172 29.3912C19.9255 28.5366 20.3405 27.1766 21.8623 25.6603C23.5225 23.9512 27.8857 20.8421 31.9013 20.8421C32.8023 20.8421 33.6998 20.9984 34.6717 21.3075C34.9484 21.3839 35.3634 21.5402 35.5727 21.6566C35.8494 21.773 36.0587 21.8493 36.0587 21.8493C36.0587 21.8493 36.1971 21.5402 36.3354 21.1875C36.5447 20.373 36.8888 19.6711 37.3748 18.5075C37.5841 18.002 37.7898 17.5766 37.7224 17.5766C37.7224 17.5766 36.5447 17.8093 35.0903 18.1584C33.7068 18.4675 31.8374 18.8966 31.0073 19.053C30.1773 19.2457 28.9322 19.5584 28.1695 19.7148C27.4778 19.9075 26.4384 20.1402 25.885 20.2602C25.2607 20.4166 24.7073 20.5693 24.6399 20.6093C24.4306 20.6857 24.1539 20.7257 23.6715 20.7257H23.4622C23.2529 20.7257 23.1145 20.6857 22.8379 20.6493C21.7311 20.3002 20 19.482 20 18.7439C20 18.4711 20.0709 18.4348 21.2451 18.122C21.7985 17.9657 22.6995 17.693 23.2529 17.5402C23.8063 17.3839 24.6363 17.1911 25.1223 17.0748C27.1975 16.4929 37.7224 14.082 38.8292 14.082C39.5209 14.082 39.9359 14.1984 40.6277 14.6275C41.4577 15.0566 42.0111 15.5984 42.2878 16.1802C42.4971 16.5293 42.4971 17.0348 42.3588 17.4639L42.3481 17.4566ZM33.6253 24.2566C33.5543 23.9475 33.4869 23.3621 33.416 23.3257C33.345 23.2857 32.6533 23.5584 31.8942 23.8712C29.9573 24.6493 27.9495 26.0093 26.6335 27.3693C26.4951 27.4857 26.4242 27.6021 26.4242 27.6021C26.4242 27.6021 26.7718 27.4857 27.1159 27.3293C28.847 26.5512 30.5072 25.7766 32.1709 24.9984C33.3486 24.453 33.6253 24.3366 33.6253 24.2602V24.2566Z" fill="white"/>
<path d="M68.9891 32.1177C68.9783 32.3348 68.4345 32.5342 67.695 32.5841C67.4267 32.6126 66.6908 32.6268 66.089 32.609L65.5561 32.5912C64.8238 32.4986 64.2293 32.3348 63.8342 32.1782C62.3297 31.4092 62.2681 25.6236 62.3225 24.502L62.337 24.178L61.5648 24.9506C58.759 27.6886 56.399 29.4616 54.764 30.0989C54.358 30.2307 53.7454 30.3944 53.2741 30.4514C53.0747 30.4443 52.7376 30.4728 52.3352 30.4585C51.8023 30.4407 51.2694 30.3909 50.867 30.341C49.0762 30.0348 48.0212 29.6396 47.3143 29.0059C46.4842 28.1479 46.089 26.5813 46.0274 23.6511C46.0745 22.6756 46.1362 21.376 46.3355 19.9376C46.35 19.6493 46.4407 19.1081 46.4552 18.8197C46.5386 18.4601 46.5567 18.0649 46.6328 17.9225C46.7271 17.3457 46.7379 17.0929 46.7597 16.6229C46.8829 15.4338 47.0425 14.8606 47.1983 14.4298C47.289 13.9277 47.4992 13.7141 47.9741 13.6216C48.1771 13.5539 48.4454 13.5646 48.8478 13.5753C49.1813 13.586 49.5837 13.5966 49.8483 13.6785C50.8416 13.8886 51.6319 14.1663 52.2844 14.5472C52.8064 14.8178 52.9986 15.0386 53.3103 15.5192C53.5605 15.8895 53.6221 15.9999 53.4155 16.0996C53.2088 16.2384 53.0058 16.2669 52.4729 16.2527L52.0053 16.2384L51.998 16.42C51.9944 16.5268 51.9219 16.6336 51.9183 16.6692C51.9147 16.7048 51.8929 17.1748 51.8023 17.716C51.7769 18.2216 51.6609 19.3039 51.5594 20.0231C51.2513 22.3267 51.2041 24.7121 51.3383 26.1256C51.4398 26.7807 51.6573 27.8701 51.6573 27.9057C51.7225 27.9449 53.1146 26.827 53.9556 26.0223C57.0261 23.3663 59.6326 20.5536 62.337 17.125C63.12 16.1352 63.1889 16.1031 63.526 16.039C63.729 16.0106 63.932 15.9785 64.1967 15.9856C65.4655 16.0248 67.5101 16.7013 68.014 17.3279C68.1409 17.4774 68.1372 17.5842 67.9886 19.3146C67.6007 23.3164 67.695 28.4184 68.2605 30.5689C68.3692 31.078 68.5541 31.4448 68.8043 31.815C68.9311 31.9646 68.9928 32.1105 68.9928 32.1105L68.9891 32.1177Z" fill="white"/>
<path d="M98.771 14.7718C98.7349 15.2214 98.7313 15.2577 98.5942 15.4353C98.5257 15.5079 98.3922 15.6493 98.3308 15.6819C98.2034 15.7496 98.0578 15.7798 97.8943 15.7725C97.1763 15.584 96.2671 15.497 95.5347 15.4571C92.9767 15.3193 89.0441 15.555 84.2961 16.0481C83.1199 16.2077 81.8247 16.3636 81.8247 16.3636C81.7597 16.3962 81.4134 18.4413 81.2402 19.8191C81.0273 20.9323 80.7495 24.4024 80.7712 25.6425C80.6738 30.6608 80.948 33.3368 81.6299 33.9713C82.1458 34.4101 82.1963 34.5261 81.9365 34.7001C81.7417 34.8379 81.4964 34.8633 80.8253 34.8271L80.5222 34.8089L80.0352 34.7835C79.31 34.6675 78.4729 34.4355 78.0039 34.1853C76.5932 33.4709 76.1927 32.3614 76.0448 28.9058C75.8464 25.298 76.1026 21.3384 76.8169 17.8176L76.8602 17.2592C76.8602 17.2229 75.3665 17.5892 74.7388 17.7813C73.5518 18.0932 72.9817 18.3615 72.841 18.5791C72.7652 18.764 72.5776 18.8256 72.271 18.8111C71.2355 18.7567 69.6372 17.3571 69.7057 16.4977C69.7202 16.3128 69.7238 16.2729 69.9258 16.059C70.9216 15.1017 75.2042 14.2823 76.8819 13.9632C77.4411 13.8435 77.69 13.7819 77.6936 13.7456C78.2384 11.5265 79.3605 8.21238 79.6672 7.47993C79.8187 7.11371 80.0712 7.01581 80.6197 7.04482C81.8355 7.11009 83.9533 8.16162 84.0724 8.9557C84.0628 9.07899 84.0147 9.17689 83.9281 9.24941C83.8631 9.28204 83.7333 9.3872 83.726 9.46335C83.5096 9.8622 82.5174 13.0712 82.5751 13.1111C86.349 12.5672 91.0284 12.1828 94.8636 12.3895C95.5347 12.4258 97.5407 12.5345 97.9376 12.9298C98.2875 13.1365 98.5617 13.5244 98.7133 13.9451C98.8143 14.2134 98.8035 14.3258 98.7674 14.7718H98.771Z" fill="white"/>
<path d="M110.96 25.5965C110.558 26.8611 109.292 28.0055 106.96 29.3466C103.892 31.1251 99.9599 32.3861 95.6261 32.3861C95.2279 32.3861 94.8262 32.3861 94.5595 32.346C92.4264 32.1893 90.6915 31.6754 89.0917 30.6878C86.891 29.3466 85.8245 27.6082 86.0236 25.7933C86.2226 24.3318 88.2918 20.2646 90.8231 19.6341C91.0221 19.594 91.2248 19.554 91.3563 19.554C91.6905 19.554 92.0247 19.6341 92.4229 19.7908L92.6895 19.9476L93.4219 19.7908C95.3559 19.4373 97.8232 19.1604 99.6221 19.0401C99.9563 19.0401 100.355 19 100.689 19C105.89 19 109.957 21.132 110.956 24.095C111.024 24.4886 111.024 25.2393 110.956 25.5965H110.96ZM107.76 23.111C107.76 22.9542 107.692 22.9542 107.493 22.7939C106.761 22.4768 105.758 22.1998 104.56 22.0431C104.159 21.9629 103.494 21.9629 102.761 21.9629C99.8283 21.9629 94.2254 22.6736 92.0922 23.6613C90.9581 24.0549 89.9591 27.098 89.8916 27.8852C89.8916 28.4392 89.9591 28.7927 90.1582 29.1498C90.2258 29.3065 90.2898 29.3466 90.4924 29.3867C91.2248 29.5835 92.2273 29.7038 93.2939 29.7038C93.8947 29.7038 94.428 29.6637 95.0288 29.6236C97.4286 29.3466 100.095 28.5558 102.63 27.3713C105.698 25.9099 107.764 24.2116 107.764 23.1073L107.76 23.111Z" fill="white"/>
</svg>
