<svg width="132" height="40" viewBox="0 0 132 40" fill="none" xmlns="http://www.w3.org/2000/svg">
<path d="M0 0H19.7289C23.4001 0 26.8104 2.78515 26.8104 6.42423C26.8104 10.0633 23.4001 12.8534 19.7289 12.8534H5.53629V17.9372H0V0ZM5.53629 8.75264H18.6807C19.9946 8.75264 21.2791 7.73985 21.2791 6.42423C21.2791 5.1086 19.9946 4.12064 18.6807 4.12064H5.53629V8.75264Z" fill="#A2DB00"/>
<path d="M49.9546 0C53.6258 0 57.0361 2.78515 57.0361 6.42423C57.0361 9.05548 55.3039 11.081 52.9712 12.2179L51.4211 12.9279C52.0756 13.7619 52.7055 14.5215 53.2862 15.2067C53.5224 15.4847 53.7832 15.7875 54.0194 16.0655L54.7035 16.8996C55.1218 17.406 55.4367 17.8081 55.5696 17.9372H49.428L45.2549 12.8534H35.7571V17.9372H30.2208V0H49.9496H49.9546ZM35.762 8.75264H48.9064C50.2203 8.75264 51.5047 7.73985 51.5047 6.42423C51.5047 5.1086 50.2203 4.12064 48.9064 4.12064H35.762V8.75264Z" fill="#A2DB00"/>
<path d="M60.4514 17.9421V0.00494385H65.9877V17.9421H60.4514Z" fill="#A2DB00"/>
<path d="M78.0052 0L87.3997 13.1066L96.7646 0H104.058V17.9372H98.5215V5.99231L90.0226 17.9372H84.7472L76.2483 5.99231V17.9372H70.712V0H78.0052Z" fill="#A2DB00"/>
<path d="M108.782 17.9421V0.00494385H132V3.72345H114.318V7.29301H130.455L129.328 10.6094H114.318V14.2286H132V17.9471H108.782V17.9421Z" fill="#A2DB00"/>
<path d="M36 39.8858V33.7793C36 33.2133 36.4577 32.8906 37.7224 32.8906C38.9871 32.8906 39.6859 33.1984 40.0157 33.6899L43.2636 38.5453H43.426L46.674 33.7942C47.0234 33.2977 47.7369 32.8757 48.9672 32.8757C50.0302 32.8757 50.5076 33.1935 50.5076 33.7445V39.8808H48.3422V34.38H48.2143L44.7695 39.3844C44.5136 39.7418 43.9969 40 43.2636 40C42.5304 40 41.9448 39.7716 41.7233 39.4042L38.3129 34.38H38.1653V39.8808H36V39.8858Z" fill="#A2DB00"/>
<path d="M55.0153 32.9304V39.8858H52.7959V32.9304H55.0153Z" fill="#A2DB00"/>
<path d="M57.9139 33.8935C57.9139 33.268 58.6816 32.8857 59.7839 32.8857C60.9552 32.8857 61.654 33.0545 62.3675 33.8439L66.8212 38.7092H67.0574V32.9304H69.2227V39.0766C69.2227 39.6326 68.268 39.9752 67.1115 39.9752C66.1765 39.9752 65.4236 39.7468 64.8183 39.1064L60.2711 34.246H60.0694V39.8858H57.9041V33.8885L57.9139 33.8935Z" fill="#A2DB00"/>
<path d="M73.4303 37.9893C74.0159 38.6645 75.0247 38.9673 77.1507 38.9673C79.3898 38.9673 80.4134 38.6198 80.4134 37.8801C80.4134 37.4333 80.0296 37.1106 79.0207 37.0609L75.6103 36.912C73.632 36.8326 71.9785 36.207 71.9785 34.7772C71.9785 33.3474 73.4844 32.8559 77.1654 32.8559C80.374 32.8559 81.3632 33.1141 82.372 34.1219L80.6496 34.7573C80.0099 34.0971 79.1831 33.8687 77.0178 33.8687C74.7246 33.8687 74.1586 34.1268 74.1586 34.7871C74.1586 35.5368 74.8722 35.8347 76.2698 35.8943L79.1487 36.0233C81.6634 36.1425 82.559 36.6985 82.559 37.895C82.559 39.3894 81.1466 39.9901 77.0769 39.9901C74.3604 39.9901 72.8791 39.722 71.9047 38.734L73.4254 37.9943L73.4303 37.9893Z" fill="#A2DB00"/>
<path d="M85.2213 32.9304H87.4408V39.8858H85.2213V32.9304ZM87.549 36.9468V36.3709L92.0027 32.9254H94.5715L90.3885 36.1326C90.1326 36.2914 89.8374 36.3411 89.4732 36.3411H88.7744V36.4404H89.0303C90.3147 36.4404 91.6139 36.778 92.421 37.468L95.2801 39.8809H92.7113L89.9407 37.5078C89.5372 37.1602 88.676 36.9418 87.8492 36.9418H87.5392L87.549 36.9468Z" fill="#A2DB00"/>
<path d="M42.3481 17.4568C42.1388 17.9223 41.5854 19.6714 41.2414 20.4496C40.3403 22.7805 39.9253 24.4132 39.3719 26.9005C38.8859 28.8823 38.7476 30.086 38.7476 31.0205C38.7476 31.6423 38.7476 31.7187 38.8185 31.9151C38.9569 32.1478 38.9569 32.3042 38.8895 32.4605C38.7511 32.5769 38.6128 32.6169 38.3361 32.6169H38.0594C37.091 32.5405 35.7749 31.8787 35.0832 31.2169C34.8739 30.9841 34.5972 30.5951 34.5298 30.286C34.3915 29.9769 34.4589 28.966 34.5298 28.3805C34.5298 28.1878 34.6008 27.9514 34.6008 27.9514C34.5298 27.9514 34.3915 28.0278 34.1857 28.1078C30.1028 30.0132 27.5381 31.0205 26.2929 31.2169C26.0837 31.2569 25.8779 31.2569 25.6012 31.2569C25.2536 31.2569 24.8385 31.2569 24.4945 31.2169C22.9017 30.9441 21.1706 30.166 20.6172 29.3914C19.9255 28.5369 20.3405 27.1769 21.8623 25.6605C23.5225 23.9514 27.8857 20.8423 31.9013 20.8423C32.8023 20.8423 33.6998 20.9987 34.6717 21.3078C34.9484 21.3841 35.3634 21.5405 35.5727 21.6568C35.8494 21.7732 36.0587 21.8496 36.0587 21.8496C36.0587 21.8496 36.1971 21.5405 36.3354 21.1878C36.5447 20.3732 36.8888 19.6714 37.3748 18.5077C37.5841 18.0023 37.7898 17.5768 37.7224 17.5768C37.7224 17.5768 36.5447 17.8096 35.0903 18.1586C33.7068 18.4677 31.8374 18.8968 31.0073 19.0532C30.1773 19.2459 28.9322 19.5587 28.1695 19.715C27.4778 19.9077 26.4384 20.1405 25.885 20.2605C25.2607 20.4168 24.7073 20.5696 24.6399 20.6096C24.4306 20.6859 24.1539 20.7259 23.6715 20.7259H23.4622C23.2529 20.7259 23.1145 20.6859 22.8379 20.6496C21.7311 20.3005 20 19.4823 20 18.7441C20 18.4714 20.0709 18.435 21.2451 18.1223C21.7985 17.9659 22.6995 17.6932 23.2529 17.5405C23.8063 17.3841 24.6363 17.1914 25.1223 17.075C27.1975 16.4932 37.7224 14.0823 38.8292 14.0823C39.5209 14.0823 39.9359 14.1986 40.6277 14.6277C41.4577 15.0568 42.0111 15.5986 42.2878 16.1805C42.4971 16.5296 42.4971 17.035 42.3588 17.4641L42.3481 17.4568ZM33.6253 24.2569C33.5543 23.9478 33.4869 23.3623 33.416 23.3259C33.345 23.2859 32.6533 23.5587 31.8942 23.8714C29.9573 24.6496 27.9495 26.0096 26.6335 27.3696C26.4951 27.486 26.4242 27.6023 26.4242 27.6023C26.4242 27.6023 26.7718 27.486 27.1159 27.3296C28.847 26.5514 30.5072 25.7769 32.1709 24.9987C33.3486 24.4532 33.6253 24.3369 33.6253 24.2605V24.2569Z" fill="#262626"/>
<path d="M68.9891 32.1177C68.9783 32.3349 68.4345 32.5343 67.695 32.5841C67.4267 32.6126 66.6908 32.6269 66.089 32.6091L65.5561 32.5913C64.8238 32.4987 64.2293 32.3349 63.8342 32.1783C62.3297 31.4092 62.2681 25.6236 62.3225 24.5021L62.337 24.1781L61.5648 24.9507C58.759 27.6886 56.399 29.4617 54.764 30.099C54.358 30.2307 53.7454 30.3945 53.2741 30.4515C53.0747 30.4443 52.7376 30.4728 52.3352 30.4586C51.8023 30.4408 51.2694 30.3909 50.867 30.3411C49.0762 30.0349 48.0212 29.6397 47.3143 29.006C46.4842 28.1479 46.089 26.5814 46.0274 23.6512C46.0745 22.6756 46.1362 21.3761 46.3355 19.9377C46.35 19.6493 46.4407 19.1081 46.4552 18.8198C46.5386 18.4602 46.5567 18.065 46.6328 17.9225C46.7271 17.3458 46.7379 17.093 46.7597 16.623C46.8829 15.4338 47.0425 14.8606 47.1983 14.4298C47.289 13.9278 47.4992 13.7142 47.9741 13.6216C48.1771 13.554 48.4454 13.5647 48.8478 13.5753C49.1813 13.586 49.5837 13.5967 49.8483 13.6786C50.8416 13.8886 51.6319 14.1664 52.2844 14.5473C52.8064 14.8179 52.9986 15.0386 53.3103 15.5193C53.5605 15.8896 53.6221 15.9999 53.4155 16.0996C53.2088 16.2385 53.0058 16.267 52.4729 16.2527L52.0053 16.2385L51.998 16.4201C51.9944 16.5269 51.9219 16.6337 51.9183 16.6693C51.9147 16.7049 51.8929 17.1749 51.8023 17.716C51.7769 18.2216 51.6609 19.304 51.5594 20.0232C51.2513 22.3267 51.2041 24.7122 51.3383 26.1256C51.4398 26.7807 51.6573 27.8702 51.6573 27.9058C51.7225 27.945 53.1146 26.827 53.9556 26.0224C57.0261 23.3663 59.6326 20.5537 62.337 17.125C63.12 16.1352 63.1889 16.1032 63.526 16.0391C63.729 16.0106 63.932 15.9786 64.1967 15.9857C65.4655 16.0249 67.5101 16.7013 68.014 17.328C68.1409 17.4775 68.1372 17.5843 67.9886 19.3146C67.6007 23.3165 67.695 28.4185 68.2605 30.569C68.3692 31.0781 68.5541 31.4448 68.8043 31.8151C68.9311 31.9646 68.9928 32.1106 68.9928 32.1106L68.9891 32.1177Z" fill="#262626"/>
<path d="M98.771 14.7716C98.7349 15.2212 98.7313 15.2575 98.5942 15.4351C98.5257 15.5077 98.3922 15.6491 98.3308 15.6817C98.2034 15.7494 98.0578 15.7796 97.8943 15.7724C97.1763 15.5838 96.2671 15.4968 95.5347 15.4569C92.9767 15.3191 89.0441 15.5548 84.2961 16.0479C83.1199 16.2075 81.8247 16.3634 81.8247 16.3634C81.7597 16.396 81.4134 18.4411 81.2402 19.819C81.0273 20.9321 80.7495 24.4022 80.7712 25.6423C80.6738 30.6606 80.948 33.3366 81.6299 33.9711C82.1458 34.4099 82.1963 34.5259 81.9365 34.7C81.7417 34.8378 81.4964 34.8631 80.8253 34.8269L80.5222 34.8087L80.0352 34.7834C79.31 34.6673 78.4729 34.4353 78.0039 34.1851C76.5932 33.4708 76.1927 32.3612 76.0448 28.9057C75.8464 25.2978 76.1026 21.3382 76.8169 17.8174L76.8602 17.259C76.8602 17.2228 75.3665 17.589 74.7388 17.7812C73.5518 18.093 72.9817 18.3613 72.841 18.5789C72.7652 18.7638 72.5776 18.8254 72.271 18.8109C71.2355 18.7565 69.6372 17.3569 69.7057 16.4976C69.7202 16.3126 69.7238 16.2727 69.9258 16.0588C70.9216 15.1016 75.2042 14.2821 76.8819 13.963C77.4411 13.8433 77.69 13.7817 77.6936 13.7454C78.2384 11.5263 79.3605 8.2122 79.6672 7.47975C79.8187 7.11353 80.0712 7.01563 80.6197 7.04464C81.8355 7.1099 83.9533 8.16143 84.0724 8.95552C84.0628 9.0788 84.0147 9.17671 83.9281 9.24923C83.8631 9.28186 83.7333 9.38702 83.726 9.46316C83.5096 9.86202 82.5174 13.071 82.5751 13.1109C86.349 12.567 91.0284 12.1826 94.8636 12.3893C95.5347 12.4256 97.5407 12.5344 97.9376 12.9296C98.2875 13.1363 98.5617 13.5243 98.7133 13.9449C98.8143 14.2132 98.8035 14.3256 98.7674 14.7716H98.771Z" fill="#262626"/>
<path d="M110.96 25.5965C110.558 26.8611 109.292 28.0055 106.96 29.3466C103.892 31.1251 99.9599 32.3861 95.6261 32.3861C95.2279 32.3861 94.8262 32.3861 94.5595 32.346C92.4264 32.1893 90.6915 31.6754 89.0917 30.6878C86.891 29.3466 85.8245 27.6082 86.0236 25.7933C86.2226 24.3318 88.2918 20.2646 90.8231 19.6341C91.0221 19.594 91.2248 19.554 91.3563 19.554C91.6905 19.554 92.0247 19.6341 92.4229 19.7908L92.6895 19.9476L93.4219 19.7908C95.3559 19.4373 97.8232 19.1604 99.6221 19.0401C99.9563 19.0401 100.355 19 100.689 19C105.89 19 109.957 21.132 110.956 24.095C111.024 24.4886 111.024 25.2393 110.956 25.5965H110.96ZM107.76 23.111C107.76 22.9542 107.692 22.9542 107.493 22.7939C106.761 22.4768 105.758 22.1998 104.56 22.0431C104.159 21.9629 103.494 21.9629 102.761 21.9629C99.8283 21.9629 94.2254 22.6736 92.0922 23.6613C90.9581 24.0549 89.9591 27.098 89.8916 27.8852C89.8916 28.4392 89.9591 28.7927 90.1582 29.1498C90.2258 29.3065 90.2898 29.3466 90.4924 29.3867C91.2248 29.5835 92.2273 29.7038 93.2939 29.7038C93.8947 29.7038 94.428 29.6637 95.0288 29.6236C97.4286 29.3466 100.095 28.5558 102.63 27.3713C105.698 25.9099 107.764 24.2116 107.764 23.1073L107.76 23.111Z" fill="#262626"/>
</svg>
